<?xml version="1.0" encoding="utf-8" standalone="no"?>
<!DOCTYPE svg PUBLIC "-//W3C//DTD SVG 1.1//EN"
  "http://www.w3.org/Graphics/SVG/1.1/DTD/svg11.dtd">
<!-- Created with matplotlib (http://matplotlib.org/) -->
<svg height="288pt" version="1.1" viewBox="0 0 1296 288" width="1296pt" xmlns="http://www.w3.org/2000/svg" xmlns:xlink="http://www.w3.org/1999/xlink">
 <defs>
  <style type="text/css">
*{stroke-linecap:butt;stroke-linejoin:round;}
  </style>
 </defs>
 <g id="figure_1">
  <g id="patch_1">
   <path d="
M0 288
L1296 288
L1296 0
L0 0
z
" style="fill:#ffffff;"/>
  </g>
  <g id="axes_1">
   <g id="patch_2">
    <path d="
M44.4366 165.988
L1283.04 165.988
L1283.04 26.4116
L44.4366 26.4116
z
" style="fill:#ffffff;"/>
   </g>
   <g id="matplotlib.axis_1">
    <g id="xtick_1">
     <g id="line2d_1">
      <defs>
       <path d="
M0 0
L0 0" id="md70f53a077" style="stroke:#262626;"/>
      </defs>
      <g>
       <use style="fill:#262626;stroke:#262626;" x="199.261992187" xlink:href="#md70f53a077" y="165.9884375"/>
      </g>
     </g>
     <g id="line2d_2">
      <g>
       <use style="fill:#262626;stroke:#262626;" x="199.261992187" xlink:href="#md70f53a077" y="26.4115625"/>
      </g>
     </g>
     <g id="text_1">
      <!-- Analytics Blue Line -->
      <defs>
       <path d="
M6.64062 61.4688
L6.64062 71.5781
L15.4375 71.5781
L15.4375 61.4688
z

M6.64062 0
L6.64062 51.8594
L15.4375 51.8594
L15.4375 0
z
" id="ArialMT-69"/>
       <path d="
M42.0938 16.7031
L51.1719 15.5781
Q49.0312 7.625 43.2188 3.21875
Q37.4062 -1.17188 28.375 -1.17188
Q17 -1.17188 10.3281 5.82812
Q3.65625 12.8438 3.65625 25.4844
Q3.65625 38.5781 10.3906 45.7969
Q17.1406 53.0312 27.875 53.0312
Q38.2812 53.0312 44.875 45.9531
Q51.4688 38.875 51.4688 26.0312
Q51.4688 25.25 51.4219 23.6875
L12.75 23.6875
Q13.2344 15.1406 17.5781 10.5938
Q21.9219 6.0625 28.4219 6.0625
Q33.25 6.0625 36.6719 8.59375
Q40.0938 11.1406 42.0938 16.7031
M13.2344 30.9062
L42.1875 30.9062
Q41.6094 37.4531 38.875 40.7188
Q34.6719 45.7969 27.9844 45.7969
Q21.9219 45.7969 17.7969 41.75
Q13.6719 37.7031 13.2344 30.9062" id="ArialMT-65"/>
       <path d="
M6.20312 -19.9688
L5.21875 -11.7188
Q8.10938 -12.5 10.25 -12.5
Q13.1875 -12.5 14.9375 -11.5156
Q16.7031 -10.5469 17.8281 -8.79688
Q18.6562 -7.46875 20.5156 -2.25
Q20.75 -1.51562 21.2969 -0.09375
L1.60938 51.8594
L11.0781 51.8594
L21.875 21.8281
Q23.9688 16.1094 25.6406 9.8125
Q27.1562 15.875 29.25 21.625
L40.3281 51.8594
L49.125 51.8594
L29.3906 -0.875
Q26.2188 -9.42188 24.4688 -12.6406
Q22.125 -17 19.0938 -19.0156
Q16.0625 -21.0469 11.8594 -21.0469
Q9.32812 -21.0469 6.20312 -19.9688" id="ArialMT-79"/>
       <path d="
M7.32812 0
L7.32812 71.5781
L34.1875 71.5781
Q42.3906 71.5781 47.3438 69.4062
Q52.2969 67.2344 55.0938 62.7188
Q57.9062 58.2031 57.9062 53.2656
Q57.9062 48.6875 55.4219 44.625
Q52.9375 40.5781 47.9062 38.0938
Q54.3906 36.1875 57.875 31.5938
Q61.375 27 61.375 20.75
Q61.375 15.7188 59.25 11.3906
Q57.125 7.07812 54 4.73438
Q50.875 2.39062 46.1562 1.1875
Q41.4531 0 34.625 0
z

M16.7969 41.5
L32.2812 41.5
Q38.5781 41.5 41.3125 42.3281
Q44.9219 43.4062 46.75 45.8906
Q48.5781 48.3906 48.5781 52.1562
Q48.5781 55.7188 46.875 58.4219
Q45.1719 61.1406 41.9844 62.1406
Q38.8125 63.1406 31.1094 63.1406
L16.7969 63.1406
z

M16.7969 8.45312
L34.625 8.45312
Q39.2031 8.45312 41.0625 8.79688
Q44.3438 9.375 46.5312 10.7344
Q48.7344 12.1094 50.1406 14.7188
Q51.5625 17.3281 51.5625 20.75
Q51.5625 24.75 49.5156 27.7031
Q47.4688 30.6719 43.8281 31.8594
Q40.1875 33.0625 33.3438 33.0625
L16.7969 33.0625
z
" id="ArialMT-42"/>
       <path d="
M6.39062 0
L6.39062 71.5781
L15.1875 71.5781
L15.1875 0
z
" id="ArialMT-6c"/>
       <path d="
M3.07812 15.4844
L11.7656 16.8438
Q12.5 11.625 15.8438 8.84375
Q19.1875 6.0625 25.2031 6.0625
Q31.25 6.0625 34.1719 8.51562
Q37.1094 10.9844 37.1094 14.3125
Q37.1094 17.2812 34.5156 19
Q32.7188 20.1719 25.5312 21.9688
Q15.875 24.4219 12.1406 26.2031
Q8.40625 27.9844 6.46875 31.125
Q4.54688 34.2812 4.54688 38.0938
Q4.54688 41.5469 6.125 44.5
Q7.71875 47.4688 10.4531 49.4219
Q12.5 50.9219 16.0312 51.9688
Q19.5781 53.0312 23.6406 53.0312
Q29.7344 53.0312 34.3438 51.2656
Q38.9688 49.5156 41.1562 46.5
Q43.3594 43.5 44.1875 38.4844
L35.5938 37.3125
Q35.0156 41.3125 32.2031 43.5469
Q29.3906 45.7969 24.2656 45.7969
Q18.2188 45.7969 15.625 43.7969
Q13.0312 41.7969 13.0312 39.1094
Q13.0312 37.4062 14.1094 36.0312
Q15.1875 34.625 17.4844 33.6875
Q18.7969 33.2031 25.25 31.4531
Q34.5781 28.9531 38.25 27.3594
Q41.9375 25.7812 44.0312 22.75
Q46.1406 19.7344 46.1406 15.2344
Q46.1406 10.8438 43.5781 6.95312
Q41.0156 3.07812 36.1719 0.953125
Q31.3438 -1.17188 25.25 -1.17188
Q15.1406 -1.17188 9.84375 3.03125
Q4.54688 7.23438 3.07812 15.4844" id="ArialMT-73"/>
       <path d="
M7.32812 0
L7.32812 71.5781
L16.7969 71.5781
L16.7969 8.45312
L52.0469 8.45312
L52.0469 0
z
" id="ArialMT-4c"/>
       <path d="
M25.7812 7.85938
L27.0469 0.09375
Q23.3438 -0.6875 20.4062 -0.6875
Q15.625 -0.6875 12.9844 0.828125
Q10.3594 2.34375 9.28125 4.8125
Q8.20312 7.28125 8.20312 15.1875
L8.20312 45.0156
L1.76562 45.0156
L1.76562 51.8594
L8.20312 51.8594
L8.20312 64.7031
L16.9375 69.9688
L16.9375 51.8594
L25.7812 51.8594
L25.7812 45.0156
L16.9375 45.0156
L16.9375 14.7031
Q16.9375 10.9375 17.4062 9.85938
Q17.875 8.79688 18.9219 8.15625
Q19.9688 7.51562 21.9219 7.51562
Q23.3906 7.51562 25.7812 7.85938" id="ArialMT-74"/>
       <path d="
M40.4375 19
L49.0781 17.875
Q47.6562 8.9375 41.8125 3.875
Q35.9844 -1.17188 27.4844 -1.17188
Q16.8438 -1.17188 10.375 5.78125
Q3.90625 12.75 3.90625 25.7344
Q3.90625 34.125 6.6875 40.4219
Q9.46875 46.7344 15.1562 49.875
Q20.8438 53.0312 27.5469 53.0312
Q35.9844 53.0312 41.3594 48.75
Q46.7344 44.4844 48.25 36.625
L39.7031 35.2969
Q38.4844 40.5312 35.375 43.1562
Q32.2812 45.7969 27.875 45.7969
Q21.2344 45.7969 17.0781 41.0312
Q12.9375 36.2812 12.9375 25.9844
Q12.9375 15.5312 16.9375 10.7969
Q20.9531 6.0625 27.3906 6.0625
Q32.5625 6.0625 36.0312 9.23438
Q39.5 12.4062 40.4375 19" id="ArialMT-63"/>
       <path d="
M40.4375 6.39062
Q35.5469 2.25 31.0312 0.53125
Q26.5156 -1.17188 21.3438 -1.17188
Q12.7969 -1.17188 8.20312 3
Q3.60938 7.17188 3.60938 13.6719
Q3.60938 17.4844 5.34375 20.625
Q7.07812 23.7812 9.89062 25.6875
Q12.7031 27.5938 16.2188 28.5625
Q18.7969 29.25 24.0312 29.8906
Q34.6719 31.1562 39.7031 32.9062
Q39.75 34.7188 39.75 35.2031
Q39.75 40.5781 37.25 42.7812
Q33.8906 45.75 27.25 45.75
Q21.0469 45.75 18.0938 43.5781
Q15.1406 41.4062 13.7188 35.8906
L5.125 37.0625
Q6.29688 42.5781 8.98438 45.9688
Q11.6719 49.3594 16.75 51.1875
Q21.8281 53.0312 28.5156 53.0312
Q35.1562 53.0312 39.2969 51.4688
Q43.4531 49.9062 45.4062 47.5312
Q47.3594 45.1719 48.1406 41.5469
Q48.5781 39.3125 48.5781 33.4531
L48.5781 21.7344
Q48.5781 9.46875 49.1406 6.21875
Q49.7031 2.98438 51.375 0
L42.1875 0
Q40.8281 2.73438 40.4375 6.39062
M39.7031 26.0312
Q34.9062 24.0781 25.3438 22.7031
Q19.9219 21.9219 17.6719 20.9375
Q15.4375 19.9688 14.2031 18.0938
Q12.9844 16.2188 12.9844 13.9219
Q12.9844 10.4062 15.6406 8.0625
Q18.3125 5.71875 23.4375 5.71875
Q28.5156 5.71875 32.4688 7.9375
Q36.4219 10.1562 38.2812 14.0156
Q39.7031 17 39.7031 22.7969
z
" id="ArialMT-61"/>
       <path id="ArialMT-20"/>
       <path d="
M-0.140625 0
L27.3438 71.5781
L37.5469 71.5781
L66.8438 0
L56.0625 0
L47.7031 21.6875
L17.7812 21.6875
L9.90625 0
z

M20.5156 29.3906
L44.7812 29.3906
L37.3125 49.2188
Q33.8906 58.25 32.2344 64.0625
Q30.8594 57.1719 28.375 50.3906
z
" id="ArialMT-41"/>
       <path d="
M6.59375 0
L6.59375 51.8594
L14.5 51.8594
L14.5 44.4844
Q20.2188 53.0312 31 53.0312
Q35.6875 53.0312 39.625 51.3438
Q43.5625 49.6562 45.5156 46.9219
Q47.4688 44.1875 48.25 40.4375
Q48.7344 37.9844 48.7344 31.8906
L48.7344 0
L39.9375 0
L39.9375 31.5469
Q39.9375 36.9219 38.9062 39.5781
Q37.8906 42.2344 35.2812 43.8125
Q32.6719 45.4062 29.1562 45.4062
Q23.5312 45.4062 19.4531 41.8438
Q15.375 38.2812 15.375 28.3281
L15.375 0
z
" id="ArialMT-6e"/>
       <path d="
M40.5781 0
L40.5781 7.625
Q34.5156 -1.17188 24.125 -1.17188
Q19.5312 -1.17188 15.5469 0.578125
Q11.5781 2.34375 9.64062 5
Q7.71875 7.67188 6.9375 11.5312
Q6.39062 14.1094 6.39062 19.7344
L6.39062 51.8594
L15.1875 51.8594
L15.1875 23.0938
Q15.1875 16.2188 15.7188 13.8125
Q16.5469 10.3594 19.2344 8.375
Q21.9219 6.39062 25.875 6.39062
Q29.8281 6.39062 33.2969 8.42188
Q36.7656 10.4531 38.2031 13.9375
Q39.6562 17.4375 39.6562 24.0781
L39.6562 51.8594
L48.4375 51.8594
L48.4375 0
z
" id="ArialMT-75"/>
      </defs>
      <g style="fill:#262626;" transform="translate(201.787544062 257.043864375)rotate(-90.0)scale(0.09996 -0.09996)">
       <use xlink:href="#ArialMT-41"/>
       <use x="66.69921875" xlink:href="#ArialMT-6e"/>
       <use x="122.314453125" xlink:href="#ArialMT-61"/>
       <use x="177.9296875" xlink:href="#ArialMT-6c"/>
       <use x="200.146484375" xlink:href="#ArialMT-79"/>
       <use x="250.146484375" xlink:href="#ArialMT-74"/>
       <use x="277.9296875" xlink:href="#ArialMT-69"/>
       <use x="300.146484375" xlink:href="#ArialMT-63"/>
       <use x="350.146484375" xlink:href="#ArialMT-73"/>
       <use x="400.146484375" xlink:href="#ArialMT-20"/>
       <use x="427.9296875" xlink:href="#ArialMT-42"/>
       <use x="494.62890625" xlink:href="#ArialMT-6c"/>
       <use x="516.845703125" xlink:href="#ArialMT-75"/>
       <use x="572.4609375" xlink:href="#ArialMT-65"/>
       <use x="628.076171875" xlink:href="#ArialMT-20"/>
       <use x="655.859375" xlink:href="#ArialMT-4c"/>
       <use x="711.474609375" xlink:href="#ArialMT-69"/>
       <use x="733.69140625" xlink:href="#ArialMT-6e"/>
       <use x="789.306640625" xlink:href="#ArialMT-65"/>
      </g>
     </g>
    </g>
    <g id="xtick_2">
     <g id="line2d_3">
      <g>
       <use style="fill:#262626;stroke:#262626;" x="508.912851562" xlink:href="#md70f53a077" y="165.9884375"/>
      </g>
     </g>
     <g id="line2d_4">
      <g>
       <use style="fill:#262626;stroke:#262626;" x="508.912851562" xlink:href="#md70f53a077" y="26.4115625"/>
      </g>
     </g>
     <g id="text_2">
      <!-- ABC Company Results -->
      <defs>
       <path d="
M58.7969 25.0938
L68.2656 22.7031
Q65.2812 11.0312 57.5469 4.90625
Q49.8125 -1.21875 38.625 -1.21875
Q27.0469 -1.21875 19.7969 3.48438
Q12.5469 8.20312 8.76562 17.1406
Q4.98438 26.0781 4.98438 36.3281
Q4.98438 47.5156 9.25 55.8281
Q13.5312 64.1562 21.4062 68.4688
Q29.2969 72.7969 38.7656 72.7969
Q49.5156 72.7969 56.8281 67.3281
Q64.1562 61.8594 67.0469 51.9531
L57.7188 49.75
Q55.2188 57.5625 50.4844 61.125
Q45.75 64.7031 38.5781 64.7031
Q30.3281 64.7031 24.7812 60.7344
Q19.2344 56.7812 16.9844 50.1094
Q14.75 43.4531 14.75 36.375
Q14.75 27.25 17.4062 20.4375
Q20.0625 13.625 25.6719 10.25
Q31.2969 6.89062 37.8438 6.89062
Q45.7969 6.89062 51.3125 11.4688
Q56.8438 16.0625 58.7969 25.0938" id="ArialMT-43"/>
       <path d="
M3.32812 25.9219
Q3.32812 40.3281 11.3281 47.2656
Q18.0156 53.0312 27.6406 53.0312
Q38.3281 53.0312 45.1094 46.0156
Q51.9062 39.0156 51.9062 26.6562
Q51.9062 16.6562 48.9062 10.9062
Q45.9062 5.17188 40.1562 2
Q34.4219 -1.17188 27.6406 -1.17188
Q16.75 -1.17188 10.0312 5.8125
Q3.32812 12.7969 3.32812 25.9219
M12.3594 25.9219
Q12.3594 15.9688 16.7031 11.0156
Q21.0469 6.0625 27.6406 6.0625
Q34.1875 6.0625 38.5312 11.0312
Q42.875 16.0156 42.875 26.2188
Q42.875 35.8438 38.5 40.7969
Q34.125 45.75 27.6406 45.75
Q21.0469 45.75 16.7031 40.8125
Q12.3594 35.8906 12.3594 25.9219" id="ArialMT-6f"/>
       <path d="
M6.59375 -19.875
L6.59375 51.8594
L14.5938 51.8594
L14.5938 45.125
Q17.4375 49.0781 21 51.0469
Q24.5625 53.0312 29.6406 53.0312
Q36.2812 53.0312 41.3594 49.6094
Q46.4375 46.1875 49.0156 39.9531
Q51.6094 33.7344 51.6094 26.3125
Q51.6094 18.3594 48.75 11.9844
Q45.9062 5.60938 40.4531 2.21875
Q35.0156 -1.17188 29 -1.17188
Q24.6094 -1.17188 21.1094 0.6875
Q17.625 2.54688 15.375 5.375
L15.375 -19.875
z

M14.5469 25.6406
Q14.5469 15.625 18.5938 10.8438
Q22.6562 6.0625 28.4219 6.0625
Q34.2812 6.0625 38.4531 11.0156
Q42.625 15.9688 42.625 26.375
Q42.625 36.2812 38.5469 41.2031
Q34.4688 46.1406 28.8125 46.1406
Q23.1875 46.1406 18.8594 40.8906
Q14.5469 35.6406 14.5469 25.6406" id="ArialMT-70"/>
       <path d="
M7.85938 0
L7.85938 71.5781
L39.5938 71.5781
Q49.1719 71.5781 54.1406 69.6406
Q59.125 67.7188 62.1094 62.8281
Q65.0938 57.9531 65.0938 52.0469
Q65.0938 44.4375 60.1562 39.2031
Q55.2188 33.9844 44.9219 32.5625
Q48.6875 30.7656 50.6406 29
Q54.7812 25.2031 58.5 19.4844
L70.9531 0
L59.0312 0
L49.5625 14.8906
Q45.4062 21.3438 42.7188 24.75
Q40.0469 28.1719 37.9219 29.5312
Q35.7969 30.9062 33.5938 31.4531
Q31.9844 31.7812 28.3281 31.7812
L17.3281 31.7812
L17.3281 0
z

M17.3281 39.9844
L37.7031 39.9844
Q44.1875 39.9844 47.8438 41.3281
Q51.5156 42.6719 53.4219 45.625
Q55.3281 48.5781 55.3281 52.0469
Q55.3281 57.125 51.6406 60.3906
Q47.9531 63.6719 39.9844 63.6719
L17.3281 63.6719
z
" id="ArialMT-52"/>
       <path d="
M6.59375 0
L6.59375 51.8594
L14.4531 51.8594
L14.4531 44.5781
Q16.8906 48.3906 20.9375 50.7031
Q25 53.0312 30.1719 53.0312
Q35.9375 53.0312 39.625 50.6406
Q43.3125 48.25 44.8281 43.9531
Q50.9844 53.0312 60.8438 53.0312
Q68.5625 53.0312 72.7031 48.75
Q76.8594 44.4844 76.8594 35.5938
L76.8594 0
L68.1094 0
L68.1094 32.6719
Q68.1094 37.9375 67.25 40.25
Q66.4062 42.5781 64.1562 43.9844
Q61.9219 45.4062 58.8906 45.4062
Q53.4219 45.4062 49.7969 41.7656
Q46.1875 38.1406 46.1875 30.125
L46.1875 0
L37.4062 0
L37.4062 33.6875
Q37.4062 39.5469 35.25 42.4688
Q33.1094 45.4062 28.2188 45.4062
Q24.5156 45.4062 21.3594 43.4531
Q18.2188 41.5 16.7969 37.7344
Q15.375 33.9844 15.375 26.9062
L15.375 0
z
" id="ArialMT-6d"/>
      </defs>
      <g style="fill:#262626;" transform="translate(511.499316562 274.833620625)rotate(-90.0)scale(0.09996 -0.09996)">
       <use xlink:href="#ArialMT-41"/>
       <use x="66.69921875" xlink:href="#ArialMT-42"/>
       <use x="133.3984375" xlink:href="#ArialMT-43"/>
       <use x="205.615234375" xlink:href="#ArialMT-20"/>
       <use x="233.3984375" xlink:href="#ArialMT-43"/>
       <use x="305.615234375" xlink:href="#ArialMT-6f"/>
       <use x="361.23046875" xlink:href="#ArialMT-6d"/>
       <use x="444.53125" xlink:href="#ArialMT-70"/>
       <use x="500.146484375" xlink:href="#ArialMT-61"/>
       <use x="555.76171875" xlink:href="#ArialMT-6e"/>
       <use x="611.376953125" xlink:href="#ArialMT-79"/>
       <use x="661.376953125" xlink:href="#ArialMT-20"/>
       <use x="689.16015625" xlink:href="#ArialMT-52"/>
       <use x="761.376953125" xlink:href="#ArialMT-65"/>
       <use x="816.9921875" xlink:href="#ArialMT-73"/>
       <use x="866.9921875" xlink:href="#ArialMT-75"/>
       <use x="922.607421875" xlink:href="#ArialMT-6c"/>
       <use x="944.82421875" xlink:href="#ArialMT-74"/>
       <use x="972.607421875" xlink:href="#ArialMT-73"/>
      </g>
     </g>
    </g>
    <g id="xtick_3">
     <g id="line2d_5">
      <g>
       <use style="fill:#262626;stroke:#262626;" x="818.563710937" xlink:href="#md70f53a077" y="165.9884375"/>
      </g>
     </g>
     <g id="line2d_6">
      <g>
       <use style="fill:#262626;stroke:#262626;" x="818.563710937" xlink:href="#md70f53a077" y="26.4115625"/>
      </g>
     </g>
     <g id="text_3">
      <!-- Analytics -->
      <g style="fill:#262626;" transform="translate(821.089262813 212.614768125)rotate(-90.0)scale(0.09996 -0.09996)">
       <use xlink:href="#ArialMT-41"/>
       <use x="66.69921875" xlink:href="#ArialMT-6e"/>
       <use x="122.314453125" xlink:href="#ArialMT-61"/>
       <use x="177.9296875" xlink:href="#ArialMT-6c"/>
       <use x="200.146484375" xlink:href="#ArialMT-79"/>
       <use x="250.146484375" xlink:href="#ArialMT-74"/>
       <use x="277.9296875" xlink:href="#ArialMT-69"/>
       <use x="300.146484375" xlink:href="#ArialMT-63"/>
       <use x="350.146484375" xlink:href="#ArialMT-73"/>
      </g>
     </g>
    </g>
    <g id="xtick_4">
     <g id="line2d_7">
      <g>
       <use style="fill:#262626;stroke:#262626;" x="1128.21457031" xlink:href="#md70f53a077" y="165.9884375"/>
      </g>
     </g>
     <g id="line2d_8">
      <g>
       <use style="fill:#262626;stroke:#262626;" x="1128.21457031" xlink:href="#md70f53a077" y="26.4115625"/>
      </g>
     </g>
     <g id="text_4">
      <!--  Realized -->
      <defs>
       <path d="
M40.2344 0
L40.2344 6.54688
Q35.2969 -1.17188 25.7344 -1.17188
Q19.5312 -1.17188 14.3281 2.25
Q9.125 5.67188 6.26562 11.7969
Q3.42188 17.9219 3.42188 25.875
Q3.42188 33.6406 6 39.9688
Q8.59375 46.2969 13.7656 49.6562
Q18.9531 53.0312 25.3438 53.0312
Q30.0312 53.0312 33.6875 51.0469
Q37.3594 49.0781 39.6562 45.9062
L39.6562 71.5781
L48.3906 71.5781
L48.3906 0
z

M12.4531 25.875
Q12.4531 15.9219 16.6406 10.9844
Q20.8438 6.0625 26.5625 6.0625
Q32.3281 6.0625 36.3438 10.7656
Q40.375 15.4844 40.375 25.1406
Q40.375 35.7969 36.2656 40.7656
Q32.1719 45.75 26.1719 45.75
Q20.3125 45.75 16.375 40.9688
Q12.4531 36.1875 12.4531 25.875" id="ArialMT-64"/>
       <path d="
M1.95312 0
L1.95312 7.125
L34.9688 45.0156
Q29.3438 44.7344 25.0469 44.7344
L3.90625 44.7344
L3.90625 51.8594
L46.2969 51.8594
L46.2969 46.0469
L18.2188 13.1406
L12.7969 7.125
Q18.7031 7.5625 23.875 7.5625
L47.8594 7.5625
L47.8594 0
z
" id="ArialMT-7a"/>
      </defs>
      <g style="fill:#262626;" transform="translate(1130.7986925 213.93767625)rotate(-90.0)scale(0.09996 -0.09996)">
       <use xlink:href="#ArialMT-20"/>
       <use x="27.783203125" xlink:href="#ArialMT-52"/>
       <use x="100.0" xlink:href="#ArialMT-65"/>
       <use x="155.615234375" xlink:href="#ArialMT-61"/>
       <use x="211.23046875" xlink:href="#ArialMT-6c"/>
       <use x="233.447265625" xlink:href="#ArialMT-69"/>
       <use x="255.6640625" xlink:href="#ArialMT-7a"/>
       <use x="305.6640625" xlink:href="#ArialMT-65"/>
       <use x="361.279296875" xlink:href="#ArialMT-64"/>
      </g>
     </g>
    </g>
   </g>
   <g id="matplotlib.axis_2">
    <g id="ytick_1">
     <g id="line2d_9">
      <g>
       <use style="fill:#262626;stroke:#262626;" x="44.4365625" xlink:href="#md70f53a077" y="165.9884375"/>
      </g>
     </g>
     <g id="line2d_10">
      <g>
       <use style="fill:#262626;stroke:#262626;" x="1283.04" xlink:href="#md70f53a077" y="165.9884375"/>
      </g>
     </g>
     <g id="text_5">
      <!-- 0 -->
      <defs>
       <path d="
M4.15625 35.2969
Q4.15625 48 6.76562 55.7344
Q9.375 63.4844 14.5156 67.6719
Q19.6719 71.875 27.4844 71.875
Q33.25 71.875 37.5938 69.5469
Q41.9375 67.2344 44.7656 62.8594
Q47.6094 58.5 49.2188 52.2188
Q50.8281 45.9531 50.8281 35.2969
Q50.8281 22.7031 48.2344 14.9688
Q45.6562 7.23438 40.5 3
Q35.3594 -1.21875 27.4844 -1.21875
Q17.1406 -1.21875 11.2344 6.20312
Q4.15625 15.1406 4.15625 35.2969
M13.1875 35.2969
Q13.1875 17.6719 17.3125 11.8281
Q21.4375 6 27.4844 6
Q33.5469 6 37.6719 11.8594
Q41.7969 17.7188 41.7969 35.2969
Q41.7969 52.9844 37.6719 58.7812
Q33.5469 64.5938 27.3906 64.5938
Q21.3438 64.5938 17.7188 59.4688
Q13.1875 52.9375 13.1875 35.2969" id="ArialMT-30"/>
      </defs>
      <g style="fill:#262626;" transform="translate(32.769375 168.57359375)scale(0.1 -0.1)">
       <use xlink:href="#ArialMT-30"/>
      </g>
     </g>
    </g>
    <g id="ytick_2">
     <g id="line2d_11">
      <g>
       <use style="fill:#262626;stroke:#262626;" x="44.4365625" xlink:href="#md70f53a077" y="138.0730625"/>
      </g>
     </g>
     <g id="line2d_12">
      <g>
       <use style="fill:#262626;stroke:#262626;" x="1283.04" xlink:href="#md70f53a077" y="138.0730625"/>
      </g>
     </g>
     <g id="text_6">
      <!-- 5 -->
      <defs>
       <path d="
M4.15625 18.75
L13.375 19.5312
Q14.4062 12.7969 18.1406 9.39062
Q21.875 6 27.1562 6
Q33.5 6 37.8906 10.7812
Q42.2812 15.5781 42.2812 23.4844
Q42.2812 31 38.0625 35.3438
Q33.8438 39.7031 27 39.7031
Q22.75 39.7031 19.3281 37.7656
Q15.9219 35.8438 13.9688 32.7656
L5.71875 33.8438
L12.6406 70.6094
L48.25 70.6094
L48.25 62.2031
L19.6719 62.2031
L15.8281 42.9688
Q22.2656 47.4688 29.3438 47.4688
Q38.7188 47.4688 45.1562 40.9688
Q51.6094 34.4688 51.6094 24.2656
Q51.6094 14.5469 45.9531 7.46875
Q39.0625 -1.21875 27.1562 -1.21875
Q17.3906 -1.21875 11.2031 4.25
Q5.03125 9.71875 4.15625 18.75" id="ArialMT-35"/>
      </defs>
      <g style="fill:#262626;" transform="translate(32.69125 140.65821875)scale(0.1 -0.1)">
       <use xlink:href="#ArialMT-35"/>
      </g>
     </g>
    </g>
    <g id="ytick_3">
     <g id="line2d_13">
      <g>
       <use style="fill:#262626;stroke:#262626;" x="44.4365625" xlink:href="#md70f53a077" y="110.1576875"/>
      </g>
     </g>
     <g id="line2d_14">
      <g>
       <use style="fill:#262626;stroke:#262626;" x="1283.04" xlink:href="#md70f53a077" y="110.1576875"/>
      </g>
     </g>
     <g id="text_7">
      <!-- 10 -->
      <defs>
       <path d="
M37.25 0
L28.4688 0
L28.4688 56
Q25.2969 52.9844 20.1406 49.9531
Q14.9844 46.9219 10.8906 45.4062
L10.8906 53.9062
Q18.2656 57.375 23.7812 62.2969
Q29.2969 67.2344 31.5938 71.875
L37.25 71.875
z
" id="ArialMT-31"/>
      </defs>
      <g style="fill:#262626;" transform="translate(27.881875 112.74284375)scale(0.1 -0.1)">
       <use xlink:href="#ArialMT-31"/>
       <use x="55.615234375" xlink:href="#ArialMT-30"/>
      </g>
     </g>
    </g>
    <g id="ytick_4">
     <g id="line2d_15">
      <g>
       <use style="fill:#262626;stroke:#262626;" x="44.4365625" xlink:href="#md70f53a077" y="82.2423125"/>
      </g>
     </g>
     <g id="line2d_16">
      <g>
       <use style="fill:#262626;stroke:#262626;" x="1283.04" xlink:href="#md70f53a077" y="82.2423125"/>
      </g>
     </g>
     <g id="text_8">
      <!-- 15 -->
      <g style="fill:#262626;" transform="translate(27.80375 84.82746875)scale(0.1 -0.1)">
       <use xlink:href="#ArialMT-31"/>
       <use x="55.615234375" xlink:href="#ArialMT-35"/>
      </g>
     </g>
    </g>
    <g id="ytick_5">
     <g id="line2d_17">
      <g>
       <use style="fill:#262626;stroke:#262626;" x="44.4365625" xlink:href="#md70f53a077" y="54.3269375"/>
      </g>
     </g>
     <g id="line2d_18">
      <g>
       <use style="fill:#262626;stroke:#262626;" x="1283.04" xlink:href="#md70f53a077" y="54.3269375"/>
      </g>
     </g>
     <g id="text_9">
      <!-- 20 -->
      <defs>
       <path d="
M50.3438 8.45312
L50.3438 0
L3.03125 0
Q2.9375 3.17188 4.04688 6.10938
Q5.85938 10.9375 9.82812 15.625
Q13.8125 20.3125 21.3438 26.4688
Q33.0156 36.0312 37.1094 41.625
Q41.2188 47.2188 41.2188 52.2031
Q41.2188 57.4219 37.4688 61
Q33.7344 64.5938 27.7344 64.5938
Q21.3906 64.5938 17.5781 60.7812
Q13.7656 56.9844 13.7188 50.25
L4.6875 51.1719
Q5.60938 61.2812 11.6562 66.5781
Q17.7188 71.875 27.9375 71.875
Q38.2344 71.875 44.2344 66.1562
Q50.25 60.4531 50.25 52
Q50.25 47.7031 48.4844 43.5469
Q46.7344 39.4062 42.6562 34.8125
Q38.5781 30.2188 29.1094 22.2188
Q21.1875 15.5781 18.9375 13.2031
Q16.7031 10.8438 15.2344 8.45312
z
" id="ArialMT-32"/>
      </defs>
      <g style="fill:#262626;" transform="translate(27.0865625 56.91209375)scale(0.1 -0.1)">
       <use xlink:href="#ArialMT-32"/>
       <use x="55.615234375" xlink:href="#ArialMT-30"/>
      </g>
     </g>
    </g>
    <g id="ytick_6">
     <g id="line2d_19">
      <g>
       <use style="fill:#262626;stroke:#262626;" x="44.4365625" xlink:href="#md70f53a077" y="26.4115625"/>
      </g>
     </g>
     <g id="line2d_20">
      <g>
       <use style="fill:#262626;stroke:#262626;" x="1283.04" xlink:href="#md70f53a077" y="26.4115625"/>
      </g>
     </g>
     <g id="text_10">
      <!-- 25 -->
      <g style="fill:#262626;" transform="translate(27.0084375 28.99671875)scale(0.1 -0.1)">
       <use xlink:href="#ArialMT-32"/>
       <use x="55.615234375" xlink:href="#ArialMT-35"/>
      </g>
     </g>
    </g>
    <g id="text_11">
     <!-- Percentage -->
     <defs>
      <path d="
M6.5 0
L6.5 51.8594
L14.4062 51.8594
L14.4062 44
Q17.4375 49.5156 20 51.2656
Q22.5625 53.0312 25.6406 53.0312
Q30.0781 53.0312 34.6719 50.2031
L31.6406 42.0469
Q28.4219 43.9531 25.2031 43.9531
Q22.3125 43.9531 20.0156 42.2188
Q17.7188 40.4844 16.75 37.4062
Q15.2812 32.7188 15.2812 27.1562
L15.2812 0
z
" id="ArialMT-72"/>
      <path d="
M7.71875 0
L7.71875 71.5781
L34.7188 71.5781
Q41.8438 71.5781 45.6094 70.9062
Q50.875 70.0156 54.4375 67.5469
Q58.0156 65.0938 60.1875 60.6406
Q62.3594 56.2031 62.3594 50.875
Q62.3594 41.75 56.5469 35.4219
Q50.7344 29.1094 35.5469 29.1094
L17.1875 29.1094
L17.1875 0
z

M17.1875 37.5469
L35.6875 37.5469
Q44.875 37.5469 48.7344 40.9688
Q52.5938 44.3906 52.5938 50.5938
Q52.5938 55.0781 50.3125 58.2656
Q48.0469 61.4688 44.3438 62.5
Q41.9375 63.1406 35.5 63.1406
L17.1875 63.1406
z
" id="ArialMT-50"/>
      <path d="
M4.98438 -4.29688
L13.5312 -5.5625
Q14.0625 -9.51562 16.5 -11.3281
Q19.7812 -13.7656 25.4375 -13.7656
Q31.5469 -13.7656 34.8594 -11.3281
Q38.1875 -8.89062 39.3594 -4.5
Q40.0469 -1.8125 39.9844 6.78125
Q34.2344 0 25.6406 0
Q14.9375 0 9.07812 7.71875
Q3.21875 15.4375 3.21875 26.2188
Q3.21875 33.6406 5.90625 39.9062
Q8.59375 46.1875 13.6875 49.6094
Q18.7969 53.0312 25.6875 53.0312
Q34.8594 53.0312 40.8281 45.6094
L40.8281 51.8594
L48.9219 51.8594
L48.9219 7.03125
Q48.9219 -5.07812 46.4531 -10.125
Q44 -15.1875 38.6406 -18.1094
Q33.2969 -21.0469 25.4844 -21.0469
Q16.2188 -21.0469 10.5 -16.875
Q4.78125 -12.7031 4.98438 -4.29688
M12.25 26.8594
Q12.25 16.6562 16.2969 11.9688
Q20.3594 7.28125 26.4688 7.28125
Q32.5156 7.28125 36.6094 11.9375
Q40.7188 16.6094 40.7188 26.5625
Q40.7188 36.0781 36.5 40.9062
Q32.2812 45.75 26.3125 45.75
Q20.4531 45.75 16.3438 40.9844
Q12.25 36.2344 12.25 26.8594" id="ArialMT-67"/>
     </defs>
     <g style="fill:#262626;" transform="translate(19.69328125 123.676796875)rotate(-90.0)scale(0.11 -0.11)">
      <use xlink:href="#ArialMT-50"/>
      <use x="66.69921875" xlink:href="#ArialMT-65"/>
      <use x="122.314453125" xlink:href="#ArialMT-72"/>
      <use x="155.615234375" xlink:href="#ArialMT-63"/>
      <use x="205.615234375" xlink:href="#ArialMT-65"/>
      <use x="261.23046875" xlink:href="#ArialMT-6e"/>
      <use x="316.845703125" xlink:href="#ArialMT-74"/>
      <use x="344.62890625" xlink:href="#ArialMT-61"/>
      <use x="400.244140625" xlink:href="#ArialMT-67"/>
      <use x="455.859375" xlink:href="#ArialMT-65"/>
     </g>
    </g>
   </g>
   <g id="patch_3">
    <path clip-path="url(#p17a0179892)" d="
M121.849 165.988
L147.654 165.988
L147.654 154.934
L121.849 154.934
z
" style="fill:#800000;opacity:0.85;stroke:#000000;stroke-linejoin:miter;stroke-width:0.3;"/>
   </g>
   <g id="patch_4">
    <path clip-path="url(#p17a0179892)" d="
M431.5 165.988
L457.304 165.988
L457.304 142.875
L431.5 142.875
z
" style="fill:#800000;opacity:0.85;stroke:#000000;stroke-linejoin:miter;stroke-width:0.3;"/>
   </g>
   <g id="patch_5">
    <path clip-path="url(#p17a0179892)" d="
M741.151 165.988
L766.955 165.988
L766.955 153.929
L741.151 153.929
z
" style="fill:#800000;opacity:0.85;stroke:#000000;stroke-linejoin:miter;stroke-width:0.3;"/>
   </g>
   <g id="patch_6">
    <path clip-path="url(#p17a0179892)" d="
M1050.8 165.988
L1076.61 165.988
L1076.61 156.944
L1050.8 156.944
z
" style="fill:#800000;opacity:0.85;stroke:#000000;stroke-linejoin:miter;stroke-width:0.3;"/>
   </g>
   <g id="patch_7">
    <path clip-path="url(#p17a0179892)" d="
M147.654 165.988
L173.458 165.988
L173.458 93.576
L147.654 93.576
z
" style="fill:#fffafa;opacity:0.85;stroke:#000000;stroke-linejoin:miter;stroke-width:0.3;"/>
   </g>
   <g id="patch_8">
    <path clip-path="url(#p17a0179892)" d="
M457.304 165.988
L483.109 165.988
L483.109 90.7286
L457.304 90.7286
z
" style="fill:#fffafa;opacity:0.85;stroke:#000000;stroke-linejoin:miter;stroke-width:0.3;"/>
   </g>
   <g id="patch_9">
    <path clip-path="url(#p17a0179892)" d="
M766.955 165.988
L792.759 165.988
L792.759 163.141
L766.955 163.141
z
" style="fill:#fffafa;opacity:0.85;stroke:#000000;stroke-linejoin:miter;stroke-width:0.3;"/>
   </g>
   <g id="patch_10">
    <path clip-path="url(#p17a0179892)" d="
M1076.61 165.988
L1102.41 165.988
L1102.41 163.867
L1076.61 163.867
z
" style="fill:#fffafa;opacity:0.85;stroke:#000000;stroke-linejoin:miter;stroke-width:0.3;"/>
   </g>
   <g id="patch_11">
    <path clip-path="url(#p17a0179892)" d="
M173.458 165.988
L199.262 165.988
L199.262 121.547
L173.458 121.547
z
" style="fill:#7b68ee;opacity:0.85;stroke:#000000;stroke-linejoin:miter;stroke-width:0.3;"/>
   </g>
   <g id="patch_12">
    <path clip-path="url(#p17a0179892)" d="
M483.109 165.988
L508.913 165.988
L508.913 47.2923
L483.109 47.2923
z
" style="fill:#7b68ee;opacity:0.85;stroke:#000000;stroke-linejoin:miter;stroke-width:0.3;"/>
   </g>
   <g id="patch_13">
    <path clip-path="url(#p17a0179892)" d="
M792.759 165.988
L818.564 165.988
L818.564 91.7335
L792.759 91.7335
z
" style="fill:#7b68ee;opacity:0.85;stroke:#000000;stroke-linejoin:miter;stroke-width:0.3;"/>
   </g>
   <g id="patch_14">
    <path clip-path="url(#p17a0179892)" d="
M1102.41 165.988
L1128.21 165.988
L1128.21 110.269
L1102.41 110.269
z
" style="fill:#7b68ee;opacity:0.85;stroke:#000000;stroke-linejoin:miter;stroke-width:0.3;"/>
   </g>
   <g id="patch_15">
    <path clip-path="url(#p17a0179892)" d="
M199.262 165.988
L225.066 165.988
L225.066 161.131
L199.262 161.131
z
" style="fill:#ffa500;opacity:0.85;stroke:#000000;stroke-linejoin:miter;stroke-width:0.3;"/>
   </g>
   <g id="patch_16">
    <path clip-path="url(#p17a0179892)" d="
M508.913 165.988
L534.717 165.988
L534.717 158.228
L508.913 158.228
z
" style="fill:#ffa500;opacity:0.85;stroke:#000000;stroke-linejoin:miter;stroke-width:0.3;"/>
   </g>
   <g id="patch_17">
    <path clip-path="url(#p17a0179892)" d="
M818.564 165.988
L844.368 165.988
L844.368 163.085
L818.564 163.085
z
" style="fill:#ffa500;opacity:0.85;stroke:#000000;stroke-linejoin:miter;stroke-width:0.3;"/>
   </g>
   <g id="patch_18">
    <path clip-path="url(#p17a0179892)" d="
M1128.21 165.988
L1154.02 165.988
L1154.02 163.811
L1128.21 163.811
z
" style="fill:#ffa500;opacity:0.85;stroke:#000000;stroke-linejoin:miter;stroke-width:0.3;"/>
   </g>
   <g id="patch_19">
    <path clip-path="url(#p17a0179892)" d="
M225.066 165.988
L250.87 165.988
L250.87 65.2698
L225.066 65.2698
z
" style="fill:#00fa9a;opacity:0.85;stroke:#000000;stroke-linejoin:miter;stroke-width:0.3;"/>
   </g>
   <g id="patch_20">
    <path clip-path="url(#p17a0179892)" d="
M534.717 165.988
L560.521 165.988
L560.521 51.5912
L534.717 51.5912
z
" style="fill:#00fa9a;opacity:0.85;stroke:#000000;stroke-linejoin:miter;stroke-width:0.3;"/>
   </g>
   <g id="patch_21">
    <path clip-path="url(#p17a0179892)" d="
M844.368 165.988
L870.172 165.988
L870.172 152.31
L844.368 152.31
z
" style="fill:#00fa9a;opacity:0.85;stroke:#000000;stroke-linejoin:miter;stroke-width:0.3;"/>
   </g>
   <g id="patch_22">
    <path clip-path="url(#p17a0179892)" d="
M1154.02 165.988
L1179.82 165.988
L1179.82 155.716
L1154.02 155.716
z
" style="fill:#00fa9a;opacity:0.85;stroke:#000000;stroke-linejoin:miter;stroke-width:0.3;"/>
   </g>
   <g id="patch_23">
    <path clip-path="url(#p17a0179892)" d="
M250.87 165.988
L276.675 165.988
L276.675 156.051
L250.87 156.051
z
" style="fill:#ff0000;opacity:0.85;stroke:#000000;stroke-linejoin:miter;stroke-width:0.3;"/>
   </g>
   <g id="patch_24">
    <path clip-path="url(#p17a0179892)" d="
M560.521 165.988
L586.326 165.988
L586.326 153.706
L560.521 153.706
z
" style="fill:#ff0000;opacity:0.85;stroke:#000000;stroke-linejoin:miter;stroke-width:0.3;"/>
   </g>
   <g id="patch_25">
    <path clip-path="url(#p17a0179892)" d="
M870.172 165.988
L895.976 165.988
L895.976 163.644
L870.172 163.644
z
" style="fill:#ff0000;opacity:0.85;stroke:#000000;stroke-linejoin:miter;stroke-width:0.3;"/>
   </g>
   <g id="patch_26">
    <path clip-path="url(#p17a0179892)" d="
M1179.82 165.988
L1205.63 165.988
L1205.63 164.202
L1179.82 164.202
z
" style="fill:#ff0000;opacity:0.85;stroke:#000000;stroke-linejoin:miter;stroke-width:0.3;"/>
   </g>
   <g id="patch_27">
    <path d="
M44.4366 165.988
L1283.04 165.988" style="fill:none;stroke:#262626;stroke-linecap:square;stroke-linejoin:miter;stroke-width:1.25;"/>
   </g>
   <g id="patch_28">
    <path d="
M44.4366 165.988
L44.4366 26.4116" style="fill:none;stroke:#262626;stroke-linecap:square;stroke-linejoin:miter;stroke-width:1.25;"/>
   </g>
   <g id="patch_29">
    <path d="
M1283.04 165.988
L1283.04 26.4116" style="fill:none;stroke:#262626;stroke-linecap:square;stroke-linejoin:miter;stroke-width:1.25;"/>
   </g>
   <g id="patch_30">
    <path d="
M44.4366 26.4116
L1283.04 26.4116" style="fill:none;stroke:#262626;stroke-linecap:square;stroke-linejoin:miter;stroke-width:1.25;"/>
   </g>
   <g id="text_12">
    <!-- Best Practice Financial Measurment -->
    <defs>
     <path d="
M7.42188 0
L7.42188 71.5781
L21.6875 71.5781
L38.625 20.9062
Q40.9688 13.8125 42.0469 10.2969
Q43.2656 14.2031 45.8438 21.7812
L62.9844 71.5781
L75.7344 71.5781
L75.7344 0
L66.6094 0
L66.6094 59.9062
L45.7969 0
L37.25 0
L16.5469 60.9375
L16.5469 0
z
" id="ArialMT-4d"/>
     <path d="
M8.20312 0
L8.20312 71.5781
L56.5 71.5781
L56.5 63.1406
L17.6719 63.1406
L17.6719 40.9688
L51.2656 40.9688
L51.2656 32.5156
L17.6719 32.5156
L17.6719 0
z
" id="ArialMT-46"/>
    </defs>
    <g style="fill:#262626;" transform="translate(567.74953125 21.4115625)scale(0.12 -0.12)">
     <use xlink:href="#ArialMT-42"/>
     <use x="66.69921875" xlink:href="#ArialMT-65"/>
     <use x="122.314453125" xlink:href="#ArialMT-73"/>
     <use x="172.314453125" xlink:href="#ArialMT-74"/>
     <use x="200.09765625" xlink:href="#ArialMT-20"/>
     <use x="227.880859375" xlink:href="#ArialMT-50"/>
     <use x="294.580078125" xlink:href="#ArialMT-72"/>
     <use x="327.880859375" xlink:href="#ArialMT-61"/>
     <use x="383.49609375" xlink:href="#ArialMT-63"/>
     <use x="433.49609375" xlink:href="#ArialMT-74"/>
     <use x="461.279296875" xlink:href="#ArialMT-69"/>
     <use x="483.49609375" xlink:href="#ArialMT-63"/>
     <use x="533.49609375" xlink:href="#ArialMT-65"/>
     <use x="589.111328125" xlink:href="#ArialMT-20"/>
     <use x="616.89453125" xlink:href="#ArialMT-46"/>
     <use x="677.978515625" xlink:href="#ArialMT-69"/>
     <use x="700.1953125" xlink:href="#ArialMT-6e"/>
     <use x="755.810546875" xlink:href="#ArialMT-61"/>
     <use x="811.42578125" xlink:href="#ArialMT-6e"/>
     <use x="867.041015625" xlink:href="#ArialMT-63"/>
     <use x="917.041015625" xlink:href="#ArialMT-69"/>
     <use x="939.2578125" xlink:href="#ArialMT-61"/>
     <use x="994.873046875" xlink:href="#ArialMT-6c"/>
     <use x="1017.08984375" xlink:href="#ArialMT-20"/>
     <use x="1044.873046875" xlink:href="#ArialMT-4d"/>
     <use x="1128.173828125" xlink:href="#ArialMT-65"/>
     <use x="1183.7890625" xlink:href="#ArialMT-61"/>
     <use x="1239.404296875" xlink:href="#ArialMT-73"/>
     <use x="1289.404296875" xlink:href="#ArialMT-75"/>
     <use x="1345.01953125" xlink:href="#ArialMT-72"/>
     <use x="1378.3203125" xlink:href="#ArialMT-6d"/>
     <use x="1461.62109375" xlink:href="#ArialMT-65"/>
     <use x="1517.236328125" xlink:href="#ArialMT-6e"/>
     <use x="1572.8515625" xlink:href="#ArialMT-74"/>
    </g>
   </g>
   <g id="legend_1">
    <g id="patch_31">
     <path d="
M1138.04 42.6975
L1158.04 42.6975
L1158.04 35.6975
L1138.04 35.6975
z
" style="fill:#800000;opacity:0.85;stroke:#000000;stroke-linejoin:miter;stroke-width:0.3;"/>
    </g>
    <g id="text_13">
     <!-- Deduction For Openings -->
     <defs>
      <path d="
M7.71875 0
L7.71875 71.5781
L32.375 71.5781
Q40.7188 71.5781 45.125 70.5625
Q51.2656 69.1406 55.6094 65.4375
Q61.2812 60.6406 64.0781 53.1875
Q66.8906 45.75 66.8906 36.1875
Q66.8906 28.0312 64.9844 21.7344
Q63.0938 15.4375 60.1094 11.2969
Q57.125 7.17188 53.5781 4.79688
Q50.0469 2.4375 45.0469 1.21875
Q40.0469 0 33.5469 0
z

M17.1875 8.45312
L32.4688 8.45312
Q39.5469 8.45312 43.5781 9.76562
Q47.6094 11.0781 50 13.4844
Q53.375 16.8438 55.25 22.5312
Q57.125 28.2188 57.125 36.3281
Q57.125 47.5625 53.4375 53.5938
Q49.75 59.625 44.4844 61.6719
Q40.6719 63.1406 32.2344 63.1406
L17.1875 63.1406
z
" id="ArialMT-44"/>
      <path d="
M4.82812 34.8594
Q4.82812 52.6875 14.3906 62.7656
Q23.9688 72.8594 39.1094 72.8594
Q49.0312 72.8594 56.9844 68.1094
Q64.9375 63.375 69.1094 54.9062
Q73.2969 46.4375 73.2969 35.6875
Q73.2969 24.8125 68.8906 16.2188
Q64.5 7.625 56.4375 3.20312
Q48.3906 -1.21875 39.0625 -1.21875
Q28.9531 -1.21875 20.9844 3.65625
Q13.0312 8.54688 8.92188 16.9844
Q4.82812 25.4375 4.82812 34.8594
M14.5938 34.7188
Q14.5938 21.7812 21.5469 14.3281
Q28.5156 6.89062 39.0156 6.89062
Q49.7031 6.89062 56.6094 14.4062
Q63.5312 21.9219 63.5312 35.75
Q63.5312 44.4844 60.5781 51
Q57.625 57.5156 51.9219 61.1094
Q46.2344 64.7031 39.1562 64.7031
Q29.1094 64.7031 21.8438 57.7812
Q14.5938 50.875 14.5938 34.7188" id="ArialMT-4f"/>
     </defs>
     <g style="fill:#262626;" transform="translate(1166.04 42.6975)scale(0.1 -0.1)">
      <use xlink:href="#ArialMT-44"/>
      <use x="72.216796875" xlink:href="#ArialMT-65"/>
      <use x="127.83203125" xlink:href="#ArialMT-64"/>
      <use x="183.447265625" xlink:href="#ArialMT-75"/>
      <use x="239.0625" xlink:href="#ArialMT-63"/>
      <use x="289.0625" xlink:href="#ArialMT-74"/>
      <use x="316.845703125" xlink:href="#ArialMT-69"/>
      <use x="339.0625" xlink:href="#ArialMT-6f"/>
      <use x="394.677734375" xlink:href="#ArialMT-6e"/>
      <use x="450.29296875" xlink:href="#ArialMT-20"/>
      <use x="478.076171875" xlink:href="#ArialMT-46"/>
      <use x="539.16015625" xlink:href="#ArialMT-6f"/>
      <use x="594.775390625" xlink:href="#ArialMT-72"/>
      <use x="628.076171875" xlink:href="#ArialMT-20"/>
      <use x="655.859375" xlink:href="#ArialMT-4f"/>
      <use x="733.642578125" xlink:href="#ArialMT-70"/>
      <use x="789.2578125" xlink:href="#ArialMT-65"/>
      <use x="844.873046875" xlink:href="#ArialMT-6e"/>
      <use x="900.48828125" xlink:href="#ArialMT-69"/>
      <use x="922.705078125" xlink:href="#ArialMT-6e"/>
      <use x="978.3203125" xlink:href="#ArialMT-67"/>
      <use x="1033.935546875" xlink:href="#ArialMT-73"/>
     </g>
    </g>
    <g id="patch_32">
     <path d="
M1138.04 56.96
L1158.04 56.96
L1158.04 49.96
L1138.04 49.96
z
" style="fill:#fffafa;opacity:0.85;stroke:#000000;stroke-linejoin:miter;stroke-width:0.3;"/>
    </g>
    <g id="text_14">
     <!--  Multiple Minimums -->
     <g style="fill:#262626;" transform="translate(1166.04 56.96)scale(0.1 -0.1)">
      <use xlink:href="#ArialMT-20"/>
      <use x="27.783203125" xlink:href="#ArialMT-4d"/>
      <use x="111.083984375" xlink:href="#ArialMT-75"/>
      <use x="166.69921875" xlink:href="#ArialMT-6c"/>
      <use x="188.916015625" xlink:href="#ArialMT-74"/>
      <use x="216.69921875" xlink:href="#ArialMT-69"/>
      <use x="238.916015625" xlink:href="#ArialMT-70"/>
      <use x="294.53125" xlink:href="#ArialMT-6c"/>
      <use x="316.748046875" xlink:href="#ArialMT-65"/>
      <use x="372.36328125" xlink:href="#ArialMT-20"/>
      <use x="400.146484375" xlink:href="#ArialMT-4d"/>
      <use x="483.447265625" xlink:href="#ArialMT-69"/>
      <use x="505.6640625" xlink:href="#ArialMT-6e"/>
      <use x="561.279296875" xlink:href="#ArialMT-69"/>
      <use x="583.49609375" xlink:href="#ArialMT-6d"/>
      <use x="666.796875" xlink:href="#ArialMT-75"/>
      <use x="722.412109375" xlink:href="#ArialMT-6d"/>
      <use x="805.712890625" xlink:href="#ArialMT-73"/>
     </g>
    </g>
    <g id="patch_33">
     <path d="
M1138.04 71.1053
L1158.04 71.1053
L1158.04 64.1053
L1138.04 64.1053
z
" style="fill:#7b68ee;opacity:0.85;stroke:#000000;stroke-linejoin:miter;stroke-width:0.3;"/>
    </g>
    <g id="text_15">
     <!--  Overhead -->
     <defs>
      <path d="
M21 0
L1.26562 51.8594
L10.5469 51.8594
L21.6875 20.7969
Q23.4844 15.7656 25 10.3594
Q26.1719 14.4531 28.2656 20.2188
L39.7969 51.8594
L48.8281 51.8594
L29.2031 0
z
" id="ArialMT-76"/>
      <path d="
M6.59375 0
L6.59375 71.5781
L15.375 71.5781
L15.375 45.9062
Q21.5312 53.0312 30.9062 53.0312
Q36.6719 53.0312 40.9219 50.75
Q45.1719 48.4844 47 44.4844
Q48.8281 40.4844 48.8281 32.8594
L48.8281 0
L40.0469 0
L40.0469 32.8594
Q40.0469 39.4531 37.1875 42.4531
Q34.3281 45.4531 29.1094 45.4531
Q25.2031 45.4531 21.75 43.4219
Q18.3125 41.4062 16.8438 37.9375
Q15.375 34.4688 15.375 28.375
L15.375 0
z
" id="ArialMT-68"/>
     </defs>
     <g style="fill:#262626;" transform="translate(1166.04 71.1053125)scale(0.1 -0.1)">
      <use xlink:href="#ArialMT-20"/>
      <use x="27.783203125" xlink:href="#ArialMT-4f"/>
      <use x="105.56640625" xlink:href="#ArialMT-76"/>
      <use x="155.56640625" xlink:href="#ArialMT-65"/>
      <use x="211.181640625" xlink:href="#ArialMT-72"/>
      <use x="244.482421875" xlink:href="#ArialMT-68"/>
      <use x="300.09765625" xlink:href="#ArialMT-65"/>
      <use x="355.712890625" xlink:href="#ArialMT-61"/>
      <use x="411.328125" xlink:href="#ArialMT-64"/>
     </g>
    </g>
    <g id="patch_34">
     <path d="
M1138.04 85.2506
L1158.04 85.2506
L1158.04 78.2506
L1138.04 78.2506
z
" style="fill:#ffa500;opacity:0.85;stroke:#000000;stroke-linejoin:miter;stroke-width:0.3;"/>
    </g>
    <g id="text_16">
     <!--  Profit -->
     <defs>
      <path d="
M8.6875 0
L8.6875 45.0156
L0.921875 45.0156
L0.921875 51.8594
L8.6875 51.8594
L8.6875 57.375
Q8.6875 62.5938 9.625 65.1406
Q10.8906 68.5625 14.0781 70.6719
Q17.2812 72.7969 23.0469 72.7969
Q26.7656 72.7969 31.25 71.9219
L29.9375 64.2656
Q27.2031 64.75 24.75 64.75
Q20.75 64.75 19.0938 63.0312
Q17.4375 61.3281 17.4375 56.6406
L17.4375 51.8594
L27.5469 51.8594
L27.5469 45.0156
L17.4375 45.0156
L17.4375 0
z
" id="ArialMT-66"/>
     </defs>
     <g style="fill:#262626;" transform="translate(1166.04 85.250625)scale(0.1 -0.1)">
      <use xlink:href="#ArialMT-20"/>
      <use x="27.783203125" xlink:href="#ArialMT-50"/>
      <use x="94.482421875" xlink:href="#ArialMT-72"/>
      <use x="127.783203125" xlink:href="#ArialMT-6f"/>
      <use x="183.3984375" xlink:href="#ArialMT-66"/>
      <use x="211.181640625" xlink:href="#ArialMT-69"/>
      <use x="233.3984375" xlink:href="#ArialMT-74"/>
     </g>
    </g>
    <g id="patch_35">
     <path d="
M1138.04 99.3959
L1158.04 99.3959
L1158.04 92.3959
L1138.04 92.3959
z
" style="fill:#00fa9a;opacity:0.85;stroke:#000000;stroke-linejoin:miter;stroke-width:0.3;"/>
    </g>
    <g id="text_17">
     <!--  Submaterial -->
     <defs>
      <path d="
M14.7031 0
L6.54688 0
L6.54688 71.5781
L15.3281 71.5781
L15.3281 46.0469
Q20.9062 53.0312 29.5469 53.0312
Q34.3281 53.0312 38.5938 51.0938
Q42.875 49.1719 45.625 45.6719
Q48.3906 42.1875 49.9531 37.25
Q51.5156 32.3281 51.5156 26.7031
Q51.5156 13.375 44.9219 6.09375
Q38.3281 -1.17188 29.1094 -1.17188
Q19.9219 -1.17188 14.7031 6.5
z

M14.5938 26.3125
Q14.5938 17 17.1406 12.8438
Q21.2969 6.0625 28.375 6.0625
Q34.125 6.0625 38.3281 11.0625
Q42.5312 16.0625 42.5312 25.9844
Q42.5312 36.1406 38.5 40.9688
Q34.4688 45.7969 28.7656 45.7969
Q23 45.7969 18.7969 40.7969
Q14.5938 35.7969 14.5938 26.3125" id="ArialMT-62"/>
      <path d="
M4.5 23
L13.4219 23.7812
Q14.0625 18.4062 16.375 14.9688
Q18.7031 11.5312 23.5781 9.40625
Q28.4688 7.28125 34.5781 7.28125
Q39.9844 7.28125 44.1406 8.89062
Q48.2969 10.5 50.3125 13.2969
Q52.3438 16.1094 52.3438 19.4375
Q52.3438 22.7969 50.3906 25.3125
Q48.4375 27.8281 43.9531 29.5469
Q41.0625 30.6719 31.2031 33.0312
Q21.3438 35.4062 17.3906 37.5
Q12.25 40.1875 9.73438 44.1562
Q7.23438 48.1406 7.23438 53.0781
Q7.23438 58.5 10.2969 63.2031
Q13.375 67.9219 19.2812 70.3594
Q25.2031 72.7969 32.4219 72.7969
Q40.375 72.7969 46.4531 70.2344
Q52.5469 67.6719 55.8125 62.6875
Q59.0781 57.7188 59.3281 51.4219
L50.25 50.7344
Q49.5156 57.5156 45.2812 60.9844
Q41.0625 64.4531 32.8125 64.4531
Q24.2188 64.4531 20.2812 61.2969
Q16.3594 58.1562 16.3594 53.7188
Q16.3594 49.8594 19.1406 47.3594
Q21.875 44.875 33.4219 42.2656
Q44.9688 39.6562 49.2656 37.7031
Q55.5156 34.8125 58.4844 30.3906
Q61.4688 25.9844 61.4688 20.2188
Q61.4688 14.5 58.2031 9.4375
Q54.9375 4.39062 48.7969 1.57812
Q42.6719 -1.21875 35.0156 -1.21875
Q25.2969 -1.21875 18.7188 1.60938
Q12.1562 4.4375 8.42188 10.125
Q4.6875 15.8281 4.5 23" id="ArialMT-53"/>
     </defs>
     <g style="fill:#262626;" transform="translate(1166.04 99.3959375)scale(0.1 -0.1)">
      <use xlink:href="#ArialMT-20"/>
      <use x="27.783203125" xlink:href="#ArialMT-53"/>
      <use x="94.482421875" xlink:href="#ArialMT-75"/>
      <use x="150.09765625" xlink:href="#ArialMT-62"/>
      <use x="205.712890625" xlink:href="#ArialMT-6d"/>
      <use x="289.013671875" xlink:href="#ArialMT-61"/>
      <use x="344.62890625" xlink:href="#ArialMT-74"/>
      <use x="372.412109375" xlink:href="#ArialMT-65"/>
      <use x="428.02734375" xlink:href="#ArialMT-72"/>
      <use x="461.328125" xlink:href="#ArialMT-69"/>
      <use x="483.544921875" xlink:href="#ArialMT-61"/>
      <use x="539.16015625" xlink:href="#ArialMT-6c"/>
     </g>
    </g>
    <g id="patch_36">
     <path d="
M1138.04 113.541
L1158.04 113.541
L1158.04 106.541
L1138.04 106.541
z
" style="fill:#ff0000;opacity:0.85;stroke:#000000;stroke-linejoin:miter;stroke-width:0.3;"/>
    </g>
    <g id="text_18">
     <!--  Tax -->
     <defs>
      <path d="
M25.9219 0
L25.9219 63.1406
L2.34375 63.1406
L2.34375 71.5781
L59.0781 71.5781
L59.0781 63.1406
L35.4062 63.1406
L35.4062 0
z
" id="ArialMT-54"/>
      <path d="
M0.734375 0
L19.6719 26.9531
L2.15625 51.8594
L13.1406 51.8594
L21.0938 39.7031
Q23.3438 36.2344 24.7031 33.8906
Q26.8594 37.1094 28.6562 39.5938
L37.4062 51.8594
L47.9062 51.8594
L29.9844 27.4375
L49.2656 0
L38.4844 0
L27.8281 16.1094
L25 20.4531
L11.375 0
z
" id="ArialMT-78"/>
     </defs>
     <g style="fill:#262626;" transform="translate(1166.04 113.54125)scale(0.1 -0.1)">
      <use xlink:href="#ArialMT-20"/>
      <use x="26.033203125" xlink:href="#ArialMT-54"/>
      <use x="75.9921875" xlink:href="#ArialMT-61"/>
      <use x="131.607421875" xlink:href="#ArialMT-78"/>
     </g>
    </g>
   </g>
  </g>
 </g>
 <defs>
  <clipPath id="p17a0179892">
   <rect height="139.576875" width="1238.6034375" x="44.4365625" y="26.4115625"/>
  </clipPath>
 </defs>
</svg>
