<?xml version="1.0" encoding="utf-8" standalone="no"?>
<!DOCTYPE svg PUBLIC "-//W3C//DTD SVG 1.1//EN"
  "http://www.w3.org/Graphics/SVG/1.1/DTD/svg11.dtd">
<!-- Created with matplotlib (http://matplotlib.org/) -->
<svg height="648pt" version="1.1" viewBox="0 0 864 648" width="864pt" xmlns="http://www.w3.org/2000/svg" xmlns:xlink="http://www.w3.org/1999/xlink">
 <defs>
  <style type="text/css">
*{stroke-linecap:butt;stroke-linejoin:round;}
  </style>
 </defs>
 <g id="figure_1">
  <g id="patch_1">
   <path d="
M0 648
L864 648
L864 0
L0 0
z
" style="fill:#ffffff;"/>
  </g>
  <g id="axes_1">
   <g id="patch_2">
    <path d="
M108 567
L777.6 567
L777.6 64.8
L108 64.8
z
" style="fill:#eaeaf2;"/>
   </g>
   <g id="matplotlib.axis_1">
    <g id="xtick_1">
     <g id="line2d_1">
      <path clip-path="url(#p82c8045bb0)" d="
M135.9 567
L135.9 64.8" style="fill:none;stroke:#ffffff;stroke-linecap:round;"/>
     </g>
     <g id="line2d_2">
      <defs>
       <path d="
M0 0
L0 0" id="md70f53a077" style="stroke:#262626;"/>
      </defs>
      <g>
       <use style="fill:#262626;stroke:#262626;" x="135.9" xlink:href="#md70f53a077" y="567.0"/>
      </g>
     </g>
     <g id="line2d_3">
      <g>
       <use style="fill:#262626;stroke:#262626;" x="135.9" xlink:href="#md70f53a077" y="64.8"/>
      </g>
     </g>
     <g id="text_1">
      <!-- Clean/Deodorize -->
      <defs>
       <path d="
M6.39062 0
L6.39062 71.5781
L15.1875 71.5781
L15.1875 0
z
" id="ArialMT-6c"/>
       <path d="
M40.4375 6.39062
Q35.5469 2.25 31.0312 0.53125
Q26.5156 -1.17188 21.3438 -1.17188
Q12.7969 -1.17188 8.20312 3
Q3.60938 7.17188 3.60938 13.6719
Q3.60938 17.4844 5.34375 20.625
Q7.07812 23.7812 9.89062 25.6875
Q12.7031 27.5938 16.2188 28.5625
Q18.7969 29.25 24.0312 29.8906
Q34.6719 31.1562 39.7031 32.9062
Q39.75 34.7188 39.75 35.2031
Q39.75 40.5781 37.25 42.7812
Q33.8906 45.75 27.25 45.75
Q21.0469 45.75 18.0938 43.5781
Q15.1406 41.4062 13.7188 35.8906
L5.125 37.0625
Q6.29688 42.5781 8.98438 45.9688
Q11.6719 49.3594 16.75 51.1875
Q21.8281 53.0312 28.5156 53.0312
Q35.1562 53.0312 39.2969 51.4688
Q43.4531 49.9062 45.4062 47.5312
Q47.3594 45.1719 48.1406 41.5469
Q48.5781 39.3125 48.5781 33.4531
L48.5781 21.7344
Q48.5781 9.46875 49.1406 6.21875
Q49.7031 2.98438 51.375 0
L42.1875 0
Q40.8281 2.73438 40.4375 6.39062
M39.7031 26.0312
Q34.9062 24.0781 25.3438 22.7031
Q19.9219 21.9219 17.6719 20.9375
Q15.4375 19.9688 14.2031 18.0938
Q12.9844 16.2188 12.9844 13.9219
Q12.9844 10.4062 15.6406 8.0625
Q18.3125 5.71875 23.4375 5.71875
Q28.5156 5.71875 32.4688 7.9375
Q36.4219 10.1562 38.2812 14.0156
Q39.7031 17 39.7031 22.7969
z
" id="ArialMT-61"/>
       <path d="
M6.64062 61.4688
L6.64062 71.5781
L15.4375 71.5781
L15.4375 61.4688
z

M6.64062 0
L6.64062 51.8594
L15.4375 51.8594
L15.4375 0
z
" id="ArialMT-69"/>
       <path d="
M1.95312 0
L1.95312 7.125
L34.9688 45.0156
Q29.3438 44.7344 25.0469 44.7344
L3.90625 44.7344
L3.90625 51.8594
L46.2969 51.8594
L46.2969 46.0469
L18.2188 13.1406
L12.7969 7.125
Q18.7031 7.5625 23.875 7.5625
L47.8594 7.5625
L47.8594 0
z
" id="ArialMT-7a"/>
       <path d="
M0 -1.21875
L20.75 72.7969
L27.7812 72.7969
L7.07812 -1.21875
z
" id="ArialMT-2f"/>
       <path d="
M3.32812 25.9219
Q3.32812 40.3281 11.3281 47.2656
Q18.0156 53.0312 27.6406 53.0312
Q38.3281 53.0312 45.1094 46.0156
Q51.9062 39.0156 51.9062 26.6562
Q51.9062 16.6562 48.9062 10.9062
Q45.9062 5.17188 40.1562 2
Q34.4219 -1.17188 27.6406 -1.17188
Q16.75 -1.17188 10.0312 5.8125
Q3.32812 12.7969 3.32812 25.9219
M12.3594 25.9219
Q12.3594 15.9688 16.7031 11.0156
Q21.0469 6.0625 27.6406 6.0625
Q34.1875 6.0625 38.5312 11.0312
Q42.875 16.0156 42.875 26.2188
Q42.875 35.8438 38.5 40.7969
Q34.125 45.75 27.6406 45.75
Q21.0469 45.75 16.7031 40.8125
Q12.3594 35.8906 12.3594 25.9219" id="ArialMT-6f"/>
       <path d="
M6.5 0
L6.5 51.8594
L14.4062 51.8594
L14.4062 44
Q17.4375 49.5156 20 51.2656
Q22.5625 53.0312 25.6406 53.0312
Q30.0781 53.0312 34.6719 50.2031
L31.6406 42.0469
Q28.4219 43.9531 25.2031 43.9531
Q22.3125 43.9531 20.0156 42.2188
Q17.7188 40.4844 16.75 37.4062
Q15.2812 32.7188 15.2812 27.1562
L15.2812 0
z
" id="ArialMT-72"/>
       <path d="
M6.59375 0
L6.59375 51.8594
L14.5 51.8594
L14.5 44.4844
Q20.2188 53.0312 31 53.0312
Q35.6875 53.0312 39.625 51.3438
Q43.5625 49.6562 45.5156 46.9219
Q47.4688 44.1875 48.25 40.4375
Q48.7344 37.9844 48.7344 31.8906
L48.7344 0
L39.9375 0
L39.9375 31.5469
Q39.9375 36.9219 38.9062 39.5781
Q37.8906 42.2344 35.2812 43.8125
Q32.6719 45.4062 29.1562 45.4062
Q23.5312 45.4062 19.4531 41.8438
Q15.375 38.2812 15.375 28.3281
L15.375 0
z
" id="ArialMT-6e"/>
       <path d="
M7.71875 0
L7.71875 71.5781
L32.375 71.5781
Q40.7188 71.5781 45.125 70.5625
Q51.2656 69.1406 55.6094 65.4375
Q61.2812 60.6406 64.0781 53.1875
Q66.8906 45.75 66.8906 36.1875
Q66.8906 28.0312 64.9844 21.7344
Q63.0938 15.4375 60.1094 11.2969
Q57.125 7.17188 53.5781 4.79688
Q50.0469 2.4375 45.0469 1.21875
Q40.0469 0 33.5469 0
z

M17.1875 8.45312
L32.4688 8.45312
Q39.5469 8.45312 43.5781 9.76562
Q47.6094 11.0781 50 13.4844
Q53.375 16.8438 55.25 22.5312
Q57.125 28.2188 57.125 36.3281
Q57.125 47.5625 53.4375 53.5938
Q49.75 59.625 44.4844 61.6719
Q40.6719 63.1406 32.2344 63.1406
L17.1875 63.1406
z
" id="ArialMT-44"/>
       <path d="
M40.2344 0
L40.2344 6.54688
Q35.2969 -1.17188 25.7344 -1.17188
Q19.5312 -1.17188 14.3281 2.25
Q9.125 5.67188 6.26562 11.7969
Q3.42188 17.9219 3.42188 25.875
Q3.42188 33.6406 6 39.9688
Q8.59375 46.2969 13.7656 49.6562
Q18.9531 53.0312 25.3438 53.0312
Q30.0312 53.0312 33.6875 51.0469
Q37.3594 49.0781 39.6562 45.9062
L39.6562 71.5781
L48.3906 71.5781
L48.3906 0
z

M12.4531 25.875
Q12.4531 15.9219 16.6406 10.9844
Q20.8438 6.0625 26.5625 6.0625
Q32.3281 6.0625 36.3438 10.7656
Q40.375 15.4844 40.375 25.1406
Q40.375 35.7969 36.2656 40.7656
Q32.1719 45.75 26.1719 45.75
Q20.3125 45.75 16.375 40.9688
Q12.4531 36.1875 12.4531 25.875" id="ArialMT-64"/>
       <path d="
M58.7969 25.0938
L68.2656 22.7031
Q65.2812 11.0312 57.5469 4.90625
Q49.8125 -1.21875 38.625 -1.21875
Q27.0469 -1.21875 19.7969 3.48438
Q12.5469 8.20312 8.76562 17.1406
Q4.98438 26.0781 4.98438 36.3281
Q4.98438 47.5156 9.25 55.8281
Q13.5312 64.1562 21.4062 68.4688
Q29.2969 72.7969 38.7656 72.7969
Q49.5156 72.7969 56.8281 67.3281
Q64.1562 61.8594 67.0469 51.9531
L57.7188 49.75
Q55.2188 57.5625 50.4844 61.125
Q45.75 64.7031 38.5781 64.7031
Q30.3281 64.7031 24.7812 60.7344
Q19.2344 56.7812 16.9844 50.1094
Q14.75 43.4531 14.75 36.375
Q14.75 27.25 17.4062 20.4375
Q20.0625 13.625 25.6719 10.25
Q31.2969 6.89062 37.8438 6.89062
Q45.7969 6.89062 51.3125 11.4688
Q56.8438 16.0625 58.7969 25.0938" id="ArialMT-43"/>
       <path d="
M42.0938 16.7031
L51.1719 15.5781
Q49.0312 7.625 43.2188 3.21875
Q37.4062 -1.17188 28.375 -1.17188
Q17 -1.17188 10.3281 5.82812
Q3.65625 12.8438 3.65625 25.4844
Q3.65625 38.5781 10.3906 45.7969
Q17.1406 53.0312 27.875 53.0312
Q38.2812 53.0312 44.875 45.9531
Q51.4688 38.875 51.4688 26.0312
Q51.4688 25.25 51.4219 23.6875
L12.75 23.6875
Q13.2344 15.1406 17.5781 10.5938
Q21.9219 6.0625 28.4219 6.0625
Q33.25 6.0625 36.6719 8.59375
Q40.0938 11.1406 42.0938 16.7031
M13.2344 30.9062
L42.1875 30.9062
Q41.6094 37.4531 38.875 40.7188
Q34.6719 45.7969 27.9844 45.7969
Q21.9219 45.7969 17.7969 41.75
Q13.6719 37.7031 13.2344 30.9062" id="ArialMT-65"/>
      </defs>
      <g style="fill:#262626;" transform="translate(138.053435156 635.284070313)rotate(-90.0)scale(0.0833 -0.0833)">
       <use xlink:href="#ArialMT-43"/>
       <use x="72.216796875" xlink:href="#ArialMT-6c"/>
       <use x="94.43359375" xlink:href="#ArialMT-65"/>
       <use x="150.048828125" xlink:href="#ArialMT-61"/>
       <use x="205.6640625" xlink:href="#ArialMT-6e"/>
       <use x="261.279296875" xlink:href="#ArialMT-2f"/>
       <use x="289.0625" xlink:href="#ArialMT-44"/>
       <use x="361.279296875" xlink:href="#ArialMT-65"/>
       <use x="416.89453125" xlink:href="#ArialMT-6f"/>
       <use x="472.509765625" xlink:href="#ArialMT-64"/>
       <use x="528.125" xlink:href="#ArialMT-6f"/>
       <use x="583.740234375" xlink:href="#ArialMT-72"/>
       <use x="617.041015625" xlink:href="#ArialMT-69"/>
       <use x="639.2578125" xlink:href="#ArialMT-7a"/>
       <use x="689.2578125" xlink:href="#ArialMT-65"/>
      </g>
     </g>
    </g>
    <g id="xtick_2">
     <g id="line2d_4">
      <path clip-path="url(#p82c8045bb0)" d="
M191.7 567
L191.7 64.8" style="fill:none;stroke:#ffffff;stroke-linecap:round;"/>
     </g>
     <g id="line2d_5">
      <g>
       <use style="fill:#262626;stroke:#262626;" x="191.7" xlink:href="#md70f53a077" y="567.0"/>
      </g>
     </g>
     <g id="line2d_6">
      <g>
       <use style="fill:#262626;stroke:#262626;" x="191.7" xlink:href="#md70f53a077" y="64.8"/>
      </g>
     </g>
     <g id="text_2">
      <!-- Debris Removal -->
      <defs>
       <path d="
M6.59375 0
L6.59375 51.8594
L14.4531 51.8594
L14.4531 44.5781
Q16.8906 48.3906 20.9375 50.7031
Q25 53.0312 30.1719 53.0312
Q35.9375 53.0312 39.625 50.6406
Q43.3125 48.25 44.8281 43.9531
Q50.9844 53.0312 60.8438 53.0312
Q68.5625 53.0312 72.7031 48.75
Q76.8594 44.4844 76.8594 35.5938
L76.8594 0
L68.1094 0
L68.1094 32.6719
Q68.1094 37.9375 67.25 40.25
Q66.4062 42.5781 64.1562 43.9844
Q61.9219 45.4062 58.8906 45.4062
Q53.4219 45.4062 49.7969 41.7656
Q46.1875 38.1406 46.1875 30.125
L46.1875 0
L37.4062 0
L37.4062 33.6875
Q37.4062 39.5469 35.25 42.4688
Q33.1094 45.4062 28.2188 45.4062
Q24.5156 45.4062 21.3594 43.4531
Q18.2188 41.5 16.7969 37.7344
Q15.375 33.9844 15.375 26.9062
L15.375 0
z
" id="ArialMT-6d"/>
       <path d="
M21 0
L1.26562 51.8594
L10.5469 51.8594
L21.6875 20.7969
Q23.4844 15.7656 25 10.3594
Q26.1719 14.4531 28.2656 20.2188
L39.7969 51.8594
L48.8281 51.8594
L29.2031 0
z
" id="ArialMT-76"/>
       <path d="
M14.7031 0
L6.54688 0
L6.54688 71.5781
L15.3281 71.5781
L15.3281 46.0469
Q20.9062 53.0312 29.5469 53.0312
Q34.3281 53.0312 38.5938 51.0938
Q42.875 49.1719 45.625 45.6719
Q48.3906 42.1875 49.9531 37.25
Q51.5156 32.3281 51.5156 26.7031
Q51.5156 13.375 44.9219 6.09375
Q38.3281 -1.17188 29.1094 -1.17188
Q19.9219 -1.17188 14.7031 6.5
z

M14.5938 26.3125
Q14.5938 17 17.1406 12.8438
Q21.2969 6.0625 28.375 6.0625
Q34.125 6.0625 38.3281 11.0625
Q42.5312 16.0625 42.5312 25.9844
Q42.5312 36.1406 38.5 40.9688
Q34.4688 45.7969 28.7656 45.7969
Q23 45.7969 18.7969 40.7969
Q14.5938 35.7969 14.5938 26.3125" id="ArialMT-62"/>
       <path d="
M7.85938 0
L7.85938 71.5781
L39.5938 71.5781
Q49.1719 71.5781 54.1406 69.6406
Q59.125 67.7188 62.1094 62.8281
Q65.0938 57.9531 65.0938 52.0469
Q65.0938 44.4375 60.1562 39.2031
Q55.2188 33.9844 44.9219 32.5625
Q48.6875 30.7656 50.6406 29
Q54.7812 25.2031 58.5 19.4844
L70.9531 0
L59.0312 0
L49.5625 14.8906
Q45.4062 21.3438 42.7188 24.75
Q40.0469 28.1719 37.9219 29.5312
Q35.7969 30.9062 33.5938 31.4531
Q31.9844 31.7812 28.3281 31.7812
L17.3281 31.7812
L17.3281 0
z

M17.3281 39.9844
L37.7031 39.9844
Q44.1875 39.9844 47.8438 41.3281
Q51.5156 42.6719 53.4219 45.625
Q55.3281 48.5781 55.3281 52.0469
Q55.3281 57.125 51.6406 60.3906
Q47.9531 63.6719 39.9844 63.6719
L17.3281 63.6719
z
" id="ArialMT-52"/>
       <path d="
M3.07812 15.4844
L11.7656 16.8438
Q12.5 11.625 15.8438 8.84375
Q19.1875 6.0625 25.2031 6.0625
Q31.25 6.0625 34.1719 8.51562
Q37.1094 10.9844 37.1094 14.3125
Q37.1094 17.2812 34.5156 19
Q32.7188 20.1719 25.5312 21.9688
Q15.875 24.4219 12.1406 26.2031
Q8.40625 27.9844 6.46875 31.125
Q4.54688 34.2812 4.54688 38.0938
Q4.54688 41.5469 6.125 44.5
Q7.71875 47.4688 10.4531 49.4219
Q12.5 50.9219 16.0312 51.9688
Q19.5781 53.0312 23.6406 53.0312
Q29.7344 53.0312 34.3438 51.2656
Q38.9688 49.5156 41.1562 46.5
Q43.3594 43.5 44.1875 38.4844
L35.5938 37.3125
Q35.0156 41.3125 32.2031 43.5469
Q29.3906 45.7969 24.2656 45.7969
Q18.2188 45.7969 15.625 43.7969
Q13.0312 41.7969 13.0312 39.1094
Q13.0312 37.4062 14.1094 36.0312
Q15.1875 34.625 17.4844 33.6875
Q18.7969 33.2031 25.25 31.4531
Q34.5781 28.9531 38.25 27.3594
Q41.9375 25.7812 44.0312 22.75
Q46.1406 19.7344 46.1406 15.2344
Q46.1406 10.8438 43.5781 6.95312
Q41.0156 3.07812 36.1719 0.953125
Q31.3438 -1.17188 25.25 -1.17188
Q15.1406 -1.17188 9.84375 3.03125
Q4.54688 7.23438 3.07812 15.4844" id="ArialMT-73"/>
       <path id="ArialMT-20"/>
      </defs>
      <g style="fill:#262626;" transform="translate(193.853435156 632.665326563)rotate(-90.0)scale(0.0833 -0.0833)">
       <use xlink:href="#ArialMT-44"/>
       <use x="72.216796875" xlink:href="#ArialMT-65"/>
       <use x="127.83203125" xlink:href="#ArialMT-62"/>
       <use x="183.447265625" xlink:href="#ArialMT-72"/>
       <use x="216.748046875" xlink:href="#ArialMT-69"/>
       <use x="238.96484375" xlink:href="#ArialMT-73"/>
       <use x="288.96484375" xlink:href="#ArialMT-20"/>
       <use x="316.748046875" xlink:href="#ArialMT-52"/>
       <use x="388.96484375" xlink:href="#ArialMT-65"/>
       <use x="444.580078125" xlink:href="#ArialMT-6d"/>
       <use x="527.880859375" xlink:href="#ArialMT-6f"/>
       <use x="583.49609375" xlink:href="#ArialMT-76"/>
       <use x="633.49609375" xlink:href="#ArialMT-61"/>
       <use x="689.111328125" xlink:href="#ArialMT-6c"/>
      </g>
     </g>
    </g>
    <g id="xtick_3">
     <g id="line2d_7">
      <path clip-path="url(#p82c8045bb0)" d="
M247.5 567
L247.5 64.8" style="fill:none;stroke:#ffffff;stroke-linecap:round;"/>
     </g>
     <g id="line2d_8">
      <g>
       <use style="fill:#262626;stroke:#262626;" x="247.5" xlink:href="#md70f53a077" y="567.0"/>
      </g>
     </g>
     <g id="line2d_9">
      <g>
       <use style="fill:#262626;stroke:#262626;" x="247.5" xlink:href="#md70f53a077" y="64.8"/>
      </g>
     </g>
     <g id="text_3">
      <!-- Doors -->
      <g style="fill:#262626;" transform="translate(249.653435156 595.254515625)rotate(-90.0)scale(0.0833 -0.0833)">
       <use xlink:href="#ArialMT-44"/>
       <use x="72.216796875" xlink:href="#ArialMT-6f"/>
       <use x="127.83203125" xlink:href="#ArialMT-6f"/>
       <use x="183.447265625" xlink:href="#ArialMT-72"/>
       <use x="216.748046875" xlink:href="#ArialMT-73"/>
      </g>
     </g>
    </g>
    <g id="xtick_4">
     <g id="line2d_10">
      <path clip-path="url(#p82c8045bb0)" d="
M303.3 567
L303.3 64.8" style="fill:none;stroke:#ffffff;stroke-linecap:round;"/>
     </g>
     <g id="line2d_11">
      <g>
       <use style="fill:#262626;stroke:#262626;" x="303.3" xlink:href="#md70f53a077" y="567.0"/>
      </g>
     </g>
     <g id="line2d_12">
      <g>
       <use style="fill:#262626;stroke:#262626;" x="303.3" xlink:href="#md70f53a077" y="64.8"/>
      </g>
     </g>
     <g id="text_4">
      <!-- Electrical -->
      <defs>
       <path d="
M25.7812 7.85938
L27.0469 0.09375
Q23.3438 -0.6875 20.4062 -0.6875
Q15.625 -0.6875 12.9844 0.828125
Q10.3594 2.34375 9.28125 4.8125
Q8.20312 7.28125 8.20312 15.1875
L8.20312 45.0156
L1.76562 45.0156
L1.76562 51.8594
L8.20312 51.8594
L8.20312 64.7031
L16.9375 69.9688
L16.9375 51.8594
L25.7812 51.8594
L25.7812 45.0156
L16.9375 45.0156
L16.9375 14.7031
Q16.9375 10.9375 17.4062 9.85938
Q17.875 8.79688 18.9219 8.15625
Q19.9688 7.51562 21.9219 7.51562
Q23.3906 7.51562 25.7812 7.85938" id="ArialMT-74"/>
       <path d="
M7.90625 0
L7.90625 71.5781
L59.6719 71.5781
L59.6719 63.1406
L17.3906 63.1406
L17.3906 41.2188
L56.9844 41.2188
L56.9844 32.8125
L17.3906 32.8125
L17.3906 8.45312
L61.3281 8.45312
L61.3281 0
z
" id="ArialMT-45"/>
       <path d="
M40.4375 19
L49.0781 17.875
Q47.6562 8.9375 41.8125 3.875
Q35.9844 -1.17188 27.4844 -1.17188
Q16.8438 -1.17188 10.375 5.78125
Q3.90625 12.75 3.90625 25.7344
Q3.90625 34.125 6.6875 40.4219
Q9.46875 46.7344 15.1562 49.875
Q20.8438 53.0312 27.5469 53.0312
Q35.9844 53.0312 41.3594 48.75
Q46.7344 44.4844 48.25 36.625
L39.7031 35.2969
Q38.4844 40.5312 35.375 43.1562
Q32.2812 45.7969 27.875 45.7969
Q21.2344 45.7969 17.0781 41.0312
Q12.9375 36.2812 12.9375 25.9844
Q12.9375 15.5312 16.9375 10.7969
Q20.9531 6.0625 27.3906 6.0625
Q32.5625 6.0625 36.0312 9.23438
Q39.5 12.4062 40.4375 19" id="ArialMT-63"/>
      </defs>
      <g style="fill:#262626;" transform="translate(305.453435156 606.546871875)rotate(-90.0)scale(0.0833 -0.0833)">
       <use xlink:href="#ArialMT-45"/>
       <use x="66.69921875" xlink:href="#ArialMT-6c"/>
       <use x="88.916015625" xlink:href="#ArialMT-65"/>
       <use x="144.53125" xlink:href="#ArialMT-63"/>
       <use x="194.53125" xlink:href="#ArialMT-74"/>
       <use x="222.314453125" xlink:href="#ArialMT-72"/>
       <use x="255.615234375" xlink:href="#ArialMT-69"/>
       <use x="277.83203125" xlink:href="#ArialMT-63"/>
       <use x="327.83203125" xlink:href="#ArialMT-61"/>
       <use x="383.447265625" xlink:href="#ArialMT-6c"/>
      </g>
     </g>
    </g>
    <g id="xtick_5">
     <g id="line2d_13">
      <path clip-path="url(#p82c8045bb0)" d="
M359.1 567
L359.1 64.8" style="fill:none;stroke:#ffffff;stroke-linecap:round;"/>
     </g>
     <g id="line2d_14">
      <g>
       <use style="fill:#262626;stroke:#262626;" x="359.1" xlink:href="#md70f53a077" y="567.0"/>
      </g>
     </g>
     <g id="line2d_15">
      <g>
       <use style="fill:#262626;stroke:#262626;" x="359.1" xlink:href="#md70f53a077" y="64.8"/>
      </g>
     </g>
     <g id="text_5">
      <!-- HVAC -->
      <defs>
       <path d="
M8.01562 0
L8.01562 71.5781
L17.4844 71.5781
L17.4844 42.1875
L54.6875 42.1875
L54.6875 71.5781
L64.1562 71.5781
L64.1562 0
L54.6875 0
L54.6875 33.7344
L17.4844 33.7344
L17.4844 0
z
" id="ArialMT-48"/>
       <path d="
M-0.140625 0
L27.3438 71.5781
L37.5469 71.5781
L66.8438 0
L56.0625 0
L47.7031 21.6875
L17.7812 21.6875
L9.90625 0
z

M20.5156 29.3906
L44.7812 29.3906
L37.3125 49.2188
Q33.8906 58.25 32.2344 64.0625
Q30.8594 57.1719 28.375 50.3906
z
" id="ArialMT-41"/>
       <path d="
M28.1719 0
L0.4375 71.5781
L10.6875 71.5781
L29.2969 19.5781
Q31.5469 13.3281 33.0625 7.85938
Q34.7188 13.7188 36.9219 19.5781
L56.25 71.5781
L65.9219 71.5781
L37.8906 0
z
" id="ArialMT-56"/>
      </defs>
      <g style="fill:#262626;" transform="translate(361.253435156 595.53305)rotate(-90.0)scale(0.0833 -0.0833)">
       <use xlink:href="#ArialMT-48"/>
       <use x="72.216796875" xlink:href="#ArialMT-56"/>
       <use x="131.541015625" xlink:href="#ArialMT-41"/>
       <use x="198.240234375" xlink:href="#ArialMT-43"/>
      </g>
     </g>
    </g>
    <g id="xtick_6">
     <g id="line2d_16">
      <path clip-path="url(#p82c8045bb0)" d="
M414.9 567
L414.9 64.8" style="fill:none;stroke:#ffffff;stroke-linecap:round;"/>
     </g>
     <g id="line2d_17">
      <g>
       <use style="fill:#262626;stroke:#262626;" x="414.9" xlink:href="#md70f53a077" y="567.0"/>
      </g>
     </g>
     <g id="line2d_18">
      <g>
       <use style="fill:#262626;stroke:#262626;" x="414.9" xlink:href="#md70f53a077" y="64.8"/>
      </g>
     </g>
     <g id="text_6">
      <!-- Landscaping -->
      <defs>
       <path d="
M4.98438 -4.29688
L13.5312 -5.5625
Q14.0625 -9.51562 16.5 -11.3281
Q19.7812 -13.7656 25.4375 -13.7656
Q31.5469 -13.7656 34.8594 -11.3281
Q38.1875 -8.89062 39.3594 -4.5
Q40.0469 -1.8125 39.9844 6.78125
Q34.2344 0 25.6406 0
Q14.9375 0 9.07812 7.71875
Q3.21875 15.4375 3.21875 26.2188
Q3.21875 33.6406 5.90625 39.9062
Q8.59375 46.1875 13.6875 49.6094
Q18.7969 53.0312 25.6875 53.0312
Q34.8594 53.0312 40.8281 45.6094
L40.8281 51.8594
L48.9219 51.8594
L48.9219 7.03125
Q48.9219 -5.07812 46.4531 -10.125
Q44 -15.1875 38.6406 -18.1094
Q33.2969 -21.0469 25.4844 -21.0469
Q16.2188 -21.0469 10.5 -16.875
Q4.78125 -12.7031 4.98438 -4.29688
M12.25 26.8594
Q12.25 16.6562 16.2969 11.9688
Q20.3594 7.28125 26.4688 7.28125
Q32.5156 7.28125 36.6094 11.9375
Q40.7188 16.6094 40.7188 26.5625
Q40.7188 36.0781 36.5 40.9062
Q32.2812 45.75 26.3125 45.75
Q20.4531 45.75 16.3438 40.9844
Q12.25 36.2344 12.25 26.8594" id="ArialMT-67"/>
       <path d="
M7.32812 0
L7.32812 71.5781
L16.7969 71.5781
L16.7969 8.45312
L52.0469 8.45312
L52.0469 0
z
" id="ArialMT-4c"/>
       <path d="
M6.59375 -19.875
L6.59375 51.8594
L14.5938 51.8594
L14.5938 45.125
Q17.4375 49.0781 21 51.0469
Q24.5625 53.0312 29.6406 53.0312
Q36.2812 53.0312 41.3594 49.6094
Q46.4375 46.1875 49.0156 39.9531
Q51.6094 33.7344 51.6094 26.3125
Q51.6094 18.3594 48.75 11.9844
Q45.9062 5.60938 40.4531 2.21875
Q35.0156 -1.17188 29 -1.17188
Q24.6094 -1.17188 21.1094 0.6875
Q17.625 2.54688 15.375 5.375
L15.375 -19.875
z

M14.5469 25.6406
Q14.5469 15.625 18.5938 10.8438
Q22.6562 6.0625 28.4219 6.0625
Q34.2812 6.0625 38.4531 11.0156
Q42.625 15.9688 42.625 26.375
Q42.625 36.2812 38.5469 41.2031
Q34.4688 46.1406 28.8125 46.1406
Q23.1875 46.1406 18.8594 40.8906
Q14.5469 35.6406 14.5469 25.6406" id="ArialMT-70"/>
      </defs>
      <g style="fill:#262626;" transform="translate(417.004626562 620.071407812)rotate(-90.0)scale(0.0833 -0.0833)">
       <use xlink:href="#ArialMT-4c"/>
       <use x="55.615234375" xlink:href="#ArialMT-61"/>
       <use x="111.23046875" xlink:href="#ArialMT-6e"/>
       <use x="166.845703125" xlink:href="#ArialMT-64"/>
       <use x="222.4609375" xlink:href="#ArialMT-73"/>
       <use x="272.4609375" xlink:href="#ArialMT-63"/>
       <use x="322.4609375" xlink:href="#ArialMT-61"/>
       <use x="378.076171875" xlink:href="#ArialMT-70"/>
       <use x="433.69140625" xlink:href="#ArialMT-69"/>
       <use x="455.908203125" xlink:href="#ArialMT-6e"/>
       <use x="511.5234375" xlink:href="#ArialMT-67"/>
      </g>
     </g>
    </g>
    <g id="xtick_7">
     <g id="line2d_19">
      <path clip-path="url(#p82c8045bb0)" d="
M470.7 567
L470.7 64.8" style="fill:none;stroke:#ffffff;stroke-linecap:round;"/>
     </g>
     <g id="line2d_20">
      <g>
       <use style="fill:#262626;stroke:#262626;" x="470.7" xlink:href="#md70f53a077" y="567.0"/>
      </g>
     </g>
     <g id="line2d_21">
      <g>
       <use style="fill:#262626;stroke:#262626;" x="470.7" xlink:href="#md70f53a077" y="64.8"/>
      </g>
     </g>
     <g id="text_7">
      <!-- Paint/Refinsh/Sanding -->
      <defs>
       <path d="
M8.6875 0
L8.6875 45.0156
L0.921875 45.0156
L0.921875 51.8594
L8.6875 51.8594
L8.6875 57.375
Q8.6875 62.5938 9.625 65.1406
Q10.8906 68.5625 14.0781 70.6719
Q17.2812 72.7969 23.0469 72.7969
Q26.7656 72.7969 31.25 71.9219
L29.9375 64.2656
Q27.2031 64.75 24.75 64.75
Q20.75 64.75 19.0938 63.0312
Q17.4375 61.3281 17.4375 56.6406
L17.4375 51.8594
L27.5469 51.8594
L27.5469 45.0156
L17.4375 45.0156
L17.4375 0
z
" id="ArialMT-66"/>
       <path d="
M6.59375 0
L6.59375 71.5781
L15.375 71.5781
L15.375 45.9062
Q21.5312 53.0312 30.9062 53.0312
Q36.6719 53.0312 40.9219 50.75
Q45.1719 48.4844 47 44.4844
Q48.8281 40.4844 48.8281 32.8594
L48.8281 0
L40.0469 0
L40.0469 32.8594
Q40.0469 39.4531 37.1875 42.4531
Q34.3281 45.4531 29.1094 45.4531
Q25.2031 45.4531 21.75 43.4219
Q18.3125 41.4062 16.8438 37.9375
Q15.375 34.4688 15.375 28.375
L15.375 0
z
" id="ArialMT-68"/>
       <path d="
M4.5 23
L13.4219 23.7812
Q14.0625 18.4062 16.375 14.9688
Q18.7031 11.5312 23.5781 9.40625
Q28.4688 7.28125 34.5781 7.28125
Q39.9844 7.28125 44.1406 8.89062
Q48.2969 10.5 50.3125 13.2969
Q52.3438 16.1094 52.3438 19.4375
Q52.3438 22.7969 50.3906 25.3125
Q48.4375 27.8281 43.9531 29.5469
Q41.0625 30.6719 31.2031 33.0312
Q21.3438 35.4062 17.3906 37.5
Q12.25 40.1875 9.73438 44.1562
Q7.23438 48.1406 7.23438 53.0781
Q7.23438 58.5 10.2969 63.2031
Q13.375 67.9219 19.2812 70.3594
Q25.2031 72.7969 32.4219 72.7969
Q40.375 72.7969 46.4531 70.2344
Q52.5469 67.6719 55.8125 62.6875
Q59.0781 57.7188 59.3281 51.4219
L50.25 50.7344
Q49.5156 57.5156 45.2812 60.9844
Q41.0625 64.4531 32.8125 64.4531
Q24.2188 64.4531 20.2812 61.2969
Q16.3594 58.1562 16.3594 53.7188
Q16.3594 49.8594 19.1406 47.3594
Q21.875 44.875 33.4219 42.2656
Q44.9688 39.6562 49.2656 37.7031
Q55.5156 34.8125 58.4844 30.3906
Q61.4688 25.9844 61.4688 20.2188
Q61.4688 14.5 58.2031 9.4375
Q54.9375 4.39062 48.7969 1.57812
Q42.6719 -1.21875 35.0156 -1.21875
Q25.2969 -1.21875 18.7188 1.60938
Q12.1562 4.4375 8.42188 10.125
Q4.6875 15.8281 4.5 23" id="ArialMT-53"/>
       <path d="
M7.71875 0
L7.71875 71.5781
L34.7188 71.5781
Q41.8438 71.5781 45.6094 70.9062
Q50.875 70.0156 54.4375 67.5469
Q58.0156 65.0938 60.1875 60.6406
Q62.3594 56.2031 62.3594 50.875
Q62.3594 41.75 56.5469 35.4219
Q50.7344 29.1094 35.5469 29.1094
L17.1875 29.1094
L17.1875 0
z

M17.1875 37.5469
L35.6875 37.5469
Q44.875 37.5469 48.7344 40.9688
Q52.5938 44.3906 52.5938 50.5938
Q52.5938 55.0781 50.3125 58.2656
Q48.0469 61.4688 44.3438 62.5
Q41.9375 63.1406 35.5 63.1406
L17.1875 63.1406
z
" id="ArialMT-50"/>
      </defs>
      <g style="fill:#262626;" transform="translate(472.8553875 655.225309375)rotate(-90.0)scale(0.0833 -0.0833)">
       <use xlink:href="#ArialMT-50"/>
       <use x="66.69921875" xlink:href="#ArialMT-61"/>
       <use x="122.314453125" xlink:href="#ArialMT-69"/>
       <use x="144.53125" xlink:href="#ArialMT-6e"/>
       <use x="200.146484375" xlink:href="#ArialMT-74"/>
       <use x="227.9296875" xlink:href="#ArialMT-2f"/>
       <use x="255.712890625" xlink:href="#ArialMT-52"/>
       <use x="327.9296875" xlink:href="#ArialMT-65"/>
       <use x="383.544921875" xlink:href="#ArialMT-66"/>
       <use x="411.328125" xlink:href="#ArialMT-69"/>
       <use x="433.544921875" xlink:href="#ArialMT-6e"/>
       <use x="489.16015625" xlink:href="#ArialMT-73"/>
       <use x="539.16015625" xlink:href="#ArialMT-68"/>
       <use x="594.775390625" xlink:href="#ArialMT-2f"/>
       <use x="622.55859375" xlink:href="#ArialMT-53"/>
       <use x="689.2578125" xlink:href="#ArialMT-61"/>
       <use x="744.873046875" xlink:href="#ArialMT-6e"/>
       <use x="800.48828125" xlink:href="#ArialMT-64"/>
       <use x="856.103515625" xlink:href="#ArialMT-69"/>
       <use x="878.3203125" xlink:href="#ArialMT-6e"/>
       <use x="933.935546875" xlink:href="#ArialMT-67"/>
      </g>
     </g>
    </g>
    <g id="xtick_8">
     <g id="line2d_22">
      <path clip-path="url(#p82c8045bb0)" d="
M526.5 567
L526.5 64.8" style="fill:none;stroke:#ffffff;stroke-linecap:round;"/>
     </g>
     <g id="line2d_23">
      <g>
       <use style="fill:#262626;stroke:#262626;" x="526.5" xlink:href="#md70f53a077" y="567.0"/>
      </g>
     </g>
     <g id="line2d_24">
      <g>
       <use style="fill:#262626;stroke:#262626;" x="526.5" xlink:href="#md70f53a077" y="64.8"/>
      </g>
     </g>
     <g id="text_8">
      <!-- Plumbing -->
      <defs>
       <path d="
M40.5781 0
L40.5781 7.625
Q34.5156 -1.17188 24.125 -1.17188
Q19.5312 -1.17188 15.5469 0.578125
Q11.5781 2.34375 9.64062 5
Q7.71875 7.67188 6.9375 11.5312
Q6.39062 14.1094 6.39062 19.7344
L6.39062 51.8594
L15.1875 51.8594
L15.1875 23.0938
Q15.1875 16.2188 15.7188 13.8125
Q16.5469 10.3594 19.2344 8.375
Q21.9219 6.39062 25.875 6.39062
Q29.8281 6.39062 33.2969 8.42188
Q36.7656 10.4531 38.2031 13.9375
Q39.6562 17.4375 39.6562 24.0781
L39.6562 51.8594
L48.4375 51.8594
L48.4375 0
z
" id="ArialMT-75"/>
      </defs>
      <g style="fill:#262626;" transform="translate(528.604626563 607.525646875)rotate(-90.0)scale(0.0833 -0.0833)">
       <use xlink:href="#ArialMT-50"/>
       <use x="66.69921875" xlink:href="#ArialMT-6c"/>
       <use x="88.916015625" xlink:href="#ArialMT-75"/>
       <use x="144.53125" xlink:href="#ArialMT-6d"/>
       <use x="227.83203125" xlink:href="#ArialMT-62"/>
       <use x="283.447265625" xlink:href="#ArialMT-69"/>
       <use x="305.6640625" xlink:href="#ArialMT-6e"/>
       <use x="361.279296875" xlink:href="#ArialMT-67"/>
      </g>
     </g>
    </g>
    <g id="xtick_9">
     <g id="line2d_25">
      <path clip-path="url(#p82c8045bb0)" d="
M582.3 567
L582.3 64.8" style="fill:none;stroke:#ffffff;stroke-linecap:round;"/>
     </g>
     <g id="line2d_26">
      <g>
       <use style="fill:#262626;stroke:#262626;" x="582.3" xlink:href="#md70f53a077" y="567.0"/>
      </g>
     </g>
     <g id="line2d_27">
      <g>
       <use style="fill:#262626;stroke:#262626;" x="582.3" xlink:href="#md70f53a077" y="64.8"/>
      </g>
     </g>
     <g id="text_9">
      <!-- Property &amp; Preservation -->
      <defs>
       <path d="
M6.20312 -19.9688
L5.21875 -11.7188
Q8.10938 -12.5 10.25 -12.5
Q13.1875 -12.5 14.9375 -11.5156
Q16.7031 -10.5469 17.8281 -8.79688
Q18.6562 -7.46875 20.5156 -2.25
Q20.75 -1.51562 21.2969 -0.09375
L1.60938 51.8594
L11.0781 51.8594
L21.875 21.8281
Q23.9688 16.1094 25.6406 9.8125
Q27.1562 15.875 29.25 21.625
L40.3281 51.8594
L49.125 51.8594
L29.3906 -0.875
Q26.2188 -9.42188 24.4688 -12.6406
Q22.125 -17 19.0938 -19.0156
Q16.0625 -21.0469 11.8594 -21.0469
Q9.32812 -21.0469 6.20312 -19.9688" id="ArialMT-79"/>
       <path d="
M47.5156 8.45312
Q43.1719 3.60938 38.0312 1.1875
Q32.9062 -1.21875 26.9531 -1.21875
Q15.9688 -1.21875 9.51562 6.20312
Q4.29688 12.25 4.29688 19.7344
Q4.29688 26.375 8.5625 31.7188
Q12.8438 37.0625 21.3438 41.1094
Q16.5 46.6875 14.8906 50.1406
Q13.2812 53.6094 13.2812 56.8438
Q13.2812 63.2812 18.3281 68.0312
Q23.3906 72.7969 31.0625 72.7969
Q38.375 72.7969 43.0312 68.2969
Q47.7031 63.8125 47.7031 57.5156
Q47.7031 47.3125 34.1875 40.0938
L47.0156 23.7344
Q49.2188 28.0312 50.4375 33.6875
L59.5781 31.7344
Q57.2344 22.3594 53.2188 16.3125
Q58.1562 9.76562 64.4062 5.32812
L58.5 -1.65625
Q53.1719 1.76562 47.5156 8.45312
M29.6406 45.75
Q35.3594 49.125 37.0312 51.6562
Q38.7188 54.2031 38.7188 57.2812
Q38.7188 60.9375 36.3906 63.25
Q34.0781 65.5781 30.6094 65.5781
Q27.0469 65.5781 24.6719 63.2812
Q22.3125 60.9844 22.3125 57.6719
Q22.3125 56 23.1719 54.1719
Q24.0312 52.3438 25.7344 50.2969
z

M42 15.375
L25.875 35.3594
Q18.75 31.1094 16.25 27.4688
Q13.7656 23.8281 13.7656 20.2656
Q13.7656 15.9219 17.2344 11.2344
Q20.7031 6.54688 27.0469 6.54688
Q31 6.54688 35.2188 9
Q39.4531 11.4688 42 15.375" id="ArialMT-26"/>
      </defs>
      <g style="fill:#262626;" transform="translate(584.4553875 661.851564062)rotate(-90.0)scale(0.0833 -0.0833)">
       <use xlink:href="#ArialMT-50"/>
       <use x="66.69921875" xlink:href="#ArialMT-72"/>
       <use x="100.0" xlink:href="#ArialMT-6f"/>
       <use x="155.615234375" xlink:href="#ArialMT-70"/>
       <use x="211.23046875" xlink:href="#ArialMT-65"/>
       <use x="266.845703125" xlink:href="#ArialMT-72"/>
       <use x="300.146484375" xlink:href="#ArialMT-74"/>
       <use x="327.9296875" xlink:href="#ArialMT-79"/>
       <use x="377.9296875" xlink:href="#ArialMT-20"/>
       <use x="405.712890625" xlink:href="#ArialMT-26"/>
       <use x="472.412109375" xlink:href="#ArialMT-20"/>
       <use x="500.1953125" xlink:href="#ArialMT-50"/>
       <use x="566.89453125" xlink:href="#ArialMT-72"/>
       <use x="600.1953125" xlink:href="#ArialMT-65"/>
       <use x="655.810546875" xlink:href="#ArialMT-73"/>
       <use x="705.810546875" xlink:href="#ArialMT-65"/>
       <use x="761.42578125" xlink:href="#ArialMT-72"/>
       <use x="794.7265625" xlink:href="#ArialMT-76"/>
       <use x="844.7265625" xlink:href="#ArialMT-61"/>
       <use x="900.341796875" xlink:href="#ArialMT-74"/>
       <use x="928.125" xlink:href="#ArialMT-69"/>
       <use x="950.341796875" xlink:href="#ArialMT-6f"/>
       <use x="1005.95703125" xlink:href="#ArialMT-6e"/>
      </g>
     </g>
    </g>
    <g id="xtick_10">
     <g id="line2d_28">
      <path clip-path="url(#p82c8045bb0)" d="
M638.1 567
L638.1 64.8" style="fill:none;stroke:#ffffff;stroke-linecap:round;"/>
     </g>
     <g id="line2d_29">
      <g>
       <use style="fill:#262626;stroke:#262626;" x="638.1" xlink:href="#md70f53a077" y="567.0"/>
      </g>
     </g>
     <g id="line2d_30">
      <g>
       <use style="fill:#262626;stroke:#262626;" x="638.1" xlink:href="#md70f53a077" y="64.8"/>
      </g>
     </g>
     <g id="text_10">
      <!-- Roofing -->
      <g style="fill:#262626;" transform="translate(640.2553875 601.498110937)rotate(-90.0)scale(0.0833 -0.0833)">
       <use xlink:href="#ArialMT-52"/>
       <use x="72.216796875" xlink:href="#ArialMT-6f"/>
       <use x="127.83203125" xlink:href="#ArialMT-6f"/>
       <use x="183.447265625" xlink:href="#ArialMT-66"/>
       <use x="211.23046875" xlink:href="#ArialMT-69"/>
       <use x="233.447265625" xlink:href="#ArialMT-6e"/>
       <use x="289.0625" xlink:href="#ArialMT-67"/>
      </g>
     </g>
    </g>
    <g id="xtick_11">
     <g id="line2d_31">
      <path clip-path="url(#p82c8045bb0)" d="
M693.9 567
L693.9 64.8" style="fill:none;stroke:#ffffff;stroke-linecap:round;"/>
     </g>
     <g id="line2d_32">
      <g>
       <use style="fill:#262626;stroke:#262626;" x="693.9" xlink:href="#md70f53a077" y="567.0"/>
      </g>
     </g>
     <g id="line2d_33">
      <g>
       <use style="fill:#262626;stroke:#262626;" x="693.9" xlink:href="#md70f53a077" y="64.8"/>
      </g>
     </g>
     <g id="text_11">
      <!-- Siding/Soffit -->
      <g style="fill:#262626;" transform="translate(696.0553875 617.869164062)rotate(-90.0)scale(0.0833 -0.0833)">
       <use xlink:href="#ArialMT-53"/>
       <use x="66.69921875" xlink:href="#ArialMT-69"/>
       <use x="88.916015625" xlink:href="#ArialMT-64"/>
       <use x="144.53125" xlink:href="#ArialMT-69"/>
       <use x="166.748046875" xlink:href="#ArialMT-6e"/>
       <use x="222.36328125" xlink:href="#ArialMT-67"/>
       <use x="277.978515625" xlink:href="#ArialMT-2f"/>
       <use x="305.76171875" xlink:href="#ArialMT-53"/>
       <use x="372.4609375" xlink:href="#ArialMT-6f"/>
       <use x="428.076171875" xlink:href="#ArialMT-66"/>
       <use x="454.109375" xlink:href="#ArialMT-66"/>
       <use x="481.892578125" xlink:href="#ArialMT-69"/>
       <use x="504.109375" xlink:href="#ArialMT-74"/>
      </g>
     </g>
    </g>
    <g id="xtick_12">
     <g id="line2d_34">
      <path clip-path="url(#p82c8045bb0)" d="
M749.7 567
L749.7 64.8" style="fill:none;stroke:#ffffff;stroke-linecap:round;"/>
     </g>
     <g id="line2d_35">
      <g>
       <use style="fill:#262626;stroke:#262626;" x="749.7" xlink:href="#md70f53a077" y="567.0"/>
      </g>
     </g>
     <g id="line2d_36">
      <g>
       <use style="fill:#262626;stroke:#262626;" x="749.7" xlink:href="#md70f53a077" y="64.8"/>
      </g>
     </g>
     <g id="text_12">
      <!-- Windows/Screens -->
      <defs>
       <path d="
M20.2188 0
L1.21875 71.5781
L10.9375 71.5781
L21.8281 24.6562
Q23.5781 17.2812 24.8594 10.0156
Q27.5938 21.4844 28.0781 23.25
L41.7031 71.5781
L53.125 71.5781
L63.375 35.3594
Q67.2344 21.875 68.9531 10.0156
Q70.3125 16.7969 72.5156 25.5938
L83.7344 71.5781
L93.2656 71.5781
L73.6406 0
L64.5 0
L49.4219 54.5469
Q47.5156 61.375 47.1719 62.9375
Q46.0469 58.0156 45.0625 54.5469
L29.8906 0
z
" id="ArialMT-57"/>
       <path d="
M16.1562 0
L0.296875 51.8594
L9.375 51.8594
L17.625 21.9219
L20.7031 10.7969
Q20.9062 11.625 23.3906 21.4844
L31.6406 51.8594
L40.6719 51.8594
L48.4375 21.7812
L51.0312 11.8594
L54 21.875
L62.8906 51.8594
L71.4375 51.8594
L55.2188 0
L46.0938 0
L37.8438 31.0625
L35.8438 39.8906
L25.3438 0
z
" id="ArialMT-77"/>
      </defs>
      <g style="fill:#262626;" transform="translate(751.853435156 640.23911875)rotate(-90.0)scale(0.0833 -0.0833)">
       <use xlink:href="#ArialMT-57"/>
       <use x="94.384765625" xlink:href="#ArialMT-69"/>
       <use x="116.6015625" xlink:href="#ArialMT-6e"/>
       <use x="172.216796875" xlink:href="#ArialMT-64"/>
       <use x="227.83203125" xlink:href="#ArialMT-6f"/>
       <use x="283.447265625" xlink:href="#ArialMT-77"/>
       <use x="355.6640625" xlink:href="#ArialMT-73"/>
       <use x="405.6640625" xlink:href="#ArialMT-2f"/>
       <use x="433.447265625" xlink:href="#ArialMT-53"/>
       <use x="500.146484375" xlink:href="#ArialMT-63"/>
       <use x="550.146484375" xlink:href="#ArialMT-72"/>
       <use x="583.447265625" xlink:href="#ArialMT-65"/>
       <use x="639.0625" xlink:href="#ArialMT-65"/>
       <use x="694.677734375" xlink:href="#ArialMT-6e"/>
       <use x="750.29296875" xlink:href="#ArialMT-73"/>
      </g>
     </g>
    </g>
   </g>
   <g id="matplotlib.axis_2">
    <g id="ytick_1">
     <g id="line2d_37">
      <path clip-path="url(#p82c8045bb0)" d="
M108 567
L777.6 567" style="fill:none;stroke:#ffffff;stroke-linecap:round;"/>
     </g>
     <g id="line2d_38">
      <g>
       <use style="fill:#262626;stroke:#262626;" x="108.0" xlink:href="#md70f53a077" y="567.0"/>
      </g>
     </g>
     <g id="line2d_39">
      <g>
       <use style="fill:#262626;stroke:#262626;" x="777.6" xlink:href="#md70f53a077" y="567.0"/>
      </g>
     </g>
     <g id="text_13">
      <!-- 0 -->
      <defs>
       <path d="
M4.15625 35.2969
Q4.15625 48 6.76562 55.7344
Q9.375 63.4844 14.5156 67.6719
Q19.6719 71.875 27.4844 71.875
Q33.25 71.875 37.5938 69.5469
Q41.9375 67.2344 44.7656 62.8594
Q47.6094 58.5 49.2188 52.2188
Q50.8281 45.9531 50.8281 35.2969
Q50.8281 22.7031 48.2344 14.9688
Q45.6562 7.23438 40.5 3
Q35.3594 -1.21875 27.4844 -1.21875
Q17.1406 -1.21875 11.2344 6.20312
Q4.15625 15.1406 4.15625 35.2969
M13.1875 35.2969
Q13.1875 17.6719 17.3125 11.8281
Q21.4375 6 27.4844 6
Q33.5469 6 37.6719 11.8594
Q41.7969 17.7188 41.7969 35.2969
Q41.7969 52.9844 37.6719 58.7812
Q33.5469 64.5938 27.3906 64.5938
Q21.3438 64.5938 17.7188 59.4688
Q13.1875 52.9375 13.1875 35.2969" id="ArialMT-30"/>
      </defs>
      <g style="fill:#262626;" transform="translate(96.3328125 569.58515625)scale(0.1 -0.1)">
       <use xlink:href="#ArialMT-30"/>
      </g>
     </g>
    </g>
    <g id="ytick_2">
     <g id="line2d_40">
      <path clip-path="url(#p82c8045bb0)" d="
M108 504.225
L777.6 504.225" style="fill:none;stroke:#ffffff;stroke-linecap:round;"/>
     </g>
     <g id="line2d_41">
      <g>
       <use style="fill:#262626;stroke:#262626;" x="108.0" xlink:href="#md70f53a077" y="504.225"/>
      </g>
     </g>
     <g id="line2d_42">
      <g>
       <use style="fill:#262626;stroke:#262626;" x="777.6" xlink:href="#md70f53a077" y="504.225"/>
      </g>
     </g>
     <g id="text_14">
      <!-- 100 -->
      <defs>
       <path d="
M37.25 0
L28.4688 0
L28.4688 56
Q25.2969 52.9844 20.1406 49.9531
Q14.9844 46.9219 10.8906 45.4062
L10.8906 53.9062
Q18.2656 57.375 23.7812 62.2969
Q29.2969 67.2344 31.5938 71.875
L37.25 71.875
z
" id="ArialMT-31"/>
      </defs>
      <g style="fill:#262626;" transform="translate(85.884375 506.81015625)scale(0.1 -0.1)">
       <use xlink:href="#ArialMT-31"/>
       <use x="55.615234375" xlink:href="#ArialMT-30"/>
       <use x="111.23046875" xlink:href="#ArialMT-30"/>
      </g>
     </g>
    </g>
    <g id="ytick_3">
     <g id="line2d_43">
      <path clip-path="url(#p82c8045bb0)" d="
M108 441.45
L777.6 441.45" style="fill:none;stroke:#ffffff;stroke-linecap:round;"/>
     </g>
     <g id="line2d_44">
      <g>
       <use style="fill:#262626;stroke:#262626;" x="108.0" xlink:href="#md70f53a077" y="441.45"/>
      </g>
     </g>
     <g id="line2d_45">
      <g>
       <use style="fill:#262626;stroke:#262626;" x="777.6" xlink:href="#md70f53a077" y="441.45"/>
      </g>
     </g>
     <g id="text_15">
      <!-- 200 -->
      <defs>
       <path d="
M50.3438 8.45312
L50.3438 0
L3.03125 0
Q2.9375 3.17188 4.04688 6.10938
Q5.85938 10.9375 9.82812 15.625
Q13.8125 20.3125 21.3438 26.4688
Q33.0156 36.0312 37.1094 41.625
Q41.2188 47.2188 41.2188 52.2031
Q41.2188 57.4219 37.4688 61
Q33.7344 64.5938 27.7344 64.5938
Q21.3906 64.5938 17.5781 60.7812
Q13.7656 56.9844 13.7188 50.25
L4.6875 51.1719
Q5.60938 61.2812 11.6562 66.5781
Q17.7188 71.875 27.9375 71.875
Q38.2344 71.875 44.2344 66.1562
Q50.25 60.4531 50.25 52
Q50.25 47.7031 48.4844 43.5469
Q46.7344 39.4062 42.6562 34.8125
Q38.5781 30.2188 29.1094 22.2188
Q21.1875 15.5781 18.9375 13.2031
Q16.7031 10.8438 15.2344 8.45312
z
" id="ArialMT-32"/>
      </defs>
      <g style="fill:#262626;" transform="translate(85.0890625 444.03515625)scale(0.1 -0.1)">
       <use xlink:href="#ArialMT-32"/>
       <use x="55.615234375" xlink:href="#ArialMT-30"/>
       <use x="111.23046875" xlink:href="#ArialMT-30"/>
      </g>
     </g>
    </g>
    <g id="ytick_4">
     <g id="line2d_46">
      <path clip-path="url(#p82c8045bb0)" d="
M108 378.675
L777.6 378.675" style="fill:none;stroke:#ffffff;stroke-linecap:round;"/>
     </g>
     <g id="line2d_47">
      <g>
       <use style="fill:#262626;stroke:#262626;" x="108.0" xlink:href="#md70f53a077" y="378.675"/>
      </g>
     </g>
     <g id="line2d_48">
      <g>
       <use style="fill:#262626;stroke:#262626;" x="777.6" xlink:href="#md70f53a077" y="378.675"/>
      </g>
     </g>
     <g id="text_16">
      <!-- 300 -->
      <defs>
       <path d="
M4.20312 18.8906
L12.9844 20.0625
Q14.5 12.5938 18.1406 9.29688
Q21.7812 6 27 6
Q33.2031 6 37.4688 10.2969
Q41.75 14.5938 41.75 20.9531
Q41.75 27 37.7969 30.9219
Q33.8438 34.8594 27.7344 34.8594
Q25.25 34.8594 21.5312 33.8906
L22.5156 41.6094
Q23.3906 41.5 23.9219 41.5
Q29.5469 41.5 34.0312 44.4219
Q38.5312 47.3594 38.5312 53.4688
Q38.5312 58.2969 35.25 61.4688
Q31.9844 64.6562 26.8125 64.6562
Q21.6875 64.6562 18.2656 61.4219
Q14.8438 58.2031 13.875 51.7656
L5.07812 53.3281
Q6.6875 62.1562 12.3906 67.0156
Q18.1094 71.875 26.6094 71.875
Q32.4688 71.875 37.3906 69.3594
Q42.3281 66.8438 44.9375 62.5
Q47.5625 58.1562 47.5625 53.2656
Q47.5625 48.6406 45.0625 44.8281
Q42.5781 41.0156 37.7031 38.7656
Q44.0469 37.3125 47.5625 32.6875
Q51.0781 28.0781 51.0781 21.1406
Q51.0781 11.7656 44.2344 5.25
Q37.4062 -1.26562 26.9531 -1.26562
Q17.5312 -1.26562 11.2969 4.34375
Q5.07812 9.96875 4.20312 18.8906" id="ArialMT-33"/>
      </defs>
      <g style="fill:#262626;" transform="translate(85.215625 381.26015625)scale(0.1 -0.1)">
       <use xlink:href="#ArialMT-33"/>
       <use x="55.615234375" xlink:href="#ArialMT-30"/>
       <use x="111.23046875" xlink:href="#ArialMT-30"/>
      </g>
     </g>
    </g>
    <g id="ytick_5">
     <g id="line2d_49">
      <path clip-path="url(#p82c8045bb0)" d="
M108 315.9
L777.6 315.9" style="fill:none;stroke:#ffffff;stroke-linecap:round;"/>
     </g>
     <g id="line2d_50">
      <g>
       <use style="fill:#262626;stroke:#262626;" x="108.0" xlink:href="#md70f53a077" y="315.9"/>
      </g>
     </g>
     <g id="line2d_51">
      <g>
       <use style="fill:#262626;stroke:#262626;" x="777.6" xlink:href="#md70f53a077" y="315.9"/>
      </g>
     </g>
     <g id="text_17">
      <!-- 400 -->
      <defs>
       <path d="
M32.3281 0
L32.3281 17.1406
L1.26562 17.1406
L1.26562 25.2031
L33.9375 71.5781
L41.1094 71.5781
L41.1094 25.2031
L50.7812 25.2031
L50.7812 17.1406
L41.1094 17.1406
L41.1094 0
z

M32.3281 25.2031
L32.3281 57.4688
L9.90625 25.2031
z
" id="ArialMT-34"/>
      </defs>
      <g style="fill:#262626;" transform="translate(84.921875 318.48515625)scale(0.1 -0.1)">
       <use xlink:href="#ArialMT-34"/>
       <use x="55.615234375" xlink:href="#ArialMT-30"/>
       <use x="111.23046875" xlink:href="#ArialMT-30"/>
      </g>
     </g>
    </g>
    <g id="ytick_6">
     <g id="line2d_52">
      <path clip-path="url(#p82c8045bb0)" d="
M108 253.125
L777.6 253.125" style="fill:none;stroke:#ffffff;stroke-linecap:round;"/>
     </g>
     <g id="line2d_53">
      <g>
       <use style="fill:#262626;stroke:#262626;" x="108.0" xlink:href="#md70f53a077" y="253.125"/>
      </g>
     </g>
     <g id="line2d_54">
      <g>
       <use style="fill:#262626;stroke:#262626;" x="777.6" xlink:href="#md70f53a077" y="253.125"/>
      </g>
     </g>
     <g id="text_18">
      <!-- 500 -->
      <defs>
       <path d="
M4.15625 18.75
L13.375 19.5312
Q14.4062 12.7969 18.1406 9.39062
Q21.875 6 27.1562 6
Q33.5 6 37.8906 10.7812
Q42.2812 15.5781 42.2812 23.4844
Q42.2812 31 38.0625 35.3438
Q33.8438 39.7031 27 39.7031
Q22.75 39.7031 19.3281 37.7656
Q15.9219 35.8438 13.9688 32.7656
L5.71875 33.8438
L12.6406 70.6094
L48.25 70.6094
L48.25 62.2031
L19.6719 62.2031
L15.8281 42.9688
Q22.2656 47.4688 29.3438 47.4688
Q38.7188 47.4688 45.1562 40.9688
Q51.6094 34.4688 51.6094 24.2656
Q51.6094 14.5469 45.9531 7.46875
Q39.0625 -1.21875 27.1562 -1.21875
Q17.3906 -1.21875 11.2031 4.25
Q5.03125 9.71875 4.15625 18.75" id="ArialMT-35"/>
      </defs>
      <g style="fill:#262626;" transform="translate(85.2109375 255.71015625)scale(0.1 -0.1)">
       <use xlink:href="#ArialMT-35"/>
       <use x="55.615234375" xlink:href="#ArialMT-30"/>
       <use x="111.23046875" xlink:href="#ArialMT-30"/>
      </g>
     </g>
    </g>
    <g id="ytick_7">
     <g id="line2d_55">
      <path clip-path="url(#p82c8045bb0)" d="
M108 190.35
L777.6 190.35" style="fill:none;stroke:#ffffff;stroke-linecap:round;"/>
     </g>
     <g id="line2d_56">
      <g>
       <use style="fill:#262626;stroke:#262626;" x="108.0" xlink:href="#md70f53a077" y="190.35"/>
      </g>
     </g>
     <g id="line2d_57">
      <g>
       <use style="fill:#262626;stroke:#262626;" x="777.6" xlink:href="#md70f53a077" y="190.35"/>
      </g>
     </g>
     <g id="text_19">
      <!-- 600 -->
      <defs>
       <path d="
M49.75 54.0469
L41.0156 53.375
Q39.8438 58.5469 37.7031 60.8906
Q34.125 64.6562 28.9062 64.6562
Q24.7031 64.6562 21.5312 62.3125
Q17.3906 59.2812 14.9844 53.4688
Q12.5938 47.6562 12.5 36.9219
Q15.6719 41.75 20.2656 44.0938
Q24.8594 46.4375 29.8906 46.4375
Q38.6719 46.4375 44.8438 39.9688
Q51.0312 33.5 51.0312 23.25
Q51.0312 16.5 48.125 10.7188
Q45.2188 4.9375 40.1406 1.85938
Q35.0625 -1.21875 28.6094 -1.21875
Q17.625 -1.21875 10.6875 6.85938
Q3.76562 14.9375 3.76562 33.5
Q3.76562 54.25 11.4219 63.6719
Q18.1094 71.875 29.4375 71.875
Q37.8906 71.875 43.2812 67.1406
Q48.6875 62.4062 49.75 54.0469
M13.875 23.1875
Q13.875 18.6562 15.7969 14.5
Q17.7188 10.3594 21.1875 8.17188
Q24.6562 6 28.4688 6
Q34.0312 6 38.0312 10.4844
Q42.0469 14.9844 42.0469 22.7031
Q42.0469 30.125 38.0781 34.3906
Q34.125 38.6719 28.125 38.6719
Q22.1719 38.6719 18.0156 34.3906
Q13.875 30.125 13.875 23.1875" id="ArialMT-36"/>
      </defs>
      <g style="fill:#262626;" transform="translate(85.171875 192.93515625)scale(0.1 -0.1)">
       <use xlink:href="#ArialMT-36"/>
       <use x="55.615234375" xlink:href="#ArialMT-30"/>
       <use x="111.23046875" xlink:href="#ArialMT-30"/>
      </g>
     </g>
    </g>
    <g id="ytick_8">
     <g id="line2d_58">
      <path clip-path="url(#p82c8045bb0)" d="
M108 127.575
L777.6 127.575" style="fill:none;stroke:#ffffff;stroke-linecap:round;"/>
     </g>
     <g id="line2d_59">
      <g>
       <use style="fill:#262626;stroke:#262626;" x="108.0" xlink:href="#md70f53a077" y="127.575"/>
      </g>
     </g>
     <g id="line2d_60">
      <g>
       <use style="fill:#262626;stroke:#262626;" x="777.6" xlink:href="#md70f53a077" y="127.575"/>
      </g>
     </g>
     <g id="text_20">
      <!-- 700 -->
      <defs>
       <path d="
M4.73438 62.2031
L4.73438 70.6562
L51.0781 70.6562
L51.0781 63.8125
Q44.2344 56.5469 37.5156 44.4844
Q30.8125 32.4219 27.1562 19.6719
Q24.5156 10.6875 23.7812 0
L14.75 0
Q14.8906 8.45312 18.0625 20.4062
Q21.2344 32.375 27.1719 43.4844
Q33.1094 54.5938 39.7969 62.2031
z
" id="ArialMT-37"/>
      </defs>
      <g style="fill:#262626;" transform="translate(85.26875 130.16015625)scale(0.1 -0.1)">
       <use xlink:href="#ArialMT-37"/>
       <use x="55.615234375" xlink:href="#ArialMT-30"/>
       <use x="111.23046875" xlink:href="#ArialMT-30"/>
      </g>
     </g>
    </g>
    <g id="ytick_9">
     <g id="line2d_61">
      <path clip-path="url(#p82c8045bb0)" d="
M108 64.8
L777.6 64.8" style="fill:none;stroke:#ffffff;stroke-linecap:round;"/>
     </g>
     <g id="line2d_62">
      <g>
       <use style="fill:#262626;stroke:#262626;" x="108.0" xlink:href="#md70f53a077" y="64.8"/>
      </g>
     </g>
     <g id="line2d_63">
      <g>
       <use style="fill:#262626;stroke:#262626;" x="777.6" xlink:href="#md70f53a077" y="64.8"/>
      </g>
     </g>
     <g id="text_21">
      <!-- 800 -->
      <defs>
       <path d="
M17.6719 38.8125
Q12.2031 40.8281 9.5625 44.5312
Q6.9375 48.25 6.9375 53.4219
Q6.9375 61.2344 12.5469 66.5469
Q18.1719 71.875 27.4844 71.875
Q36.8594 71.875 42.5781 66.4219
Q48.2969 60.9844 48.2969 53.1719
Q48.2969 48.1875 45.6719 44.5
Q43.0625 40.8281 37.75 38.8125
Q44.3438 36.6719 47.7812 31.875
Q51.2188 27.0938 51.2188 20.4531
Q51.2188 11.2812 44.7188 5.03125
Q38.2344 -1.21875 27.6406 -1.21875
Q17.0469 -1.21875 10.5469 5.04688
Q4.04688 11.3281 4.04688 20.7031
Q4.04688 27.6875 7.59375 32.3906
Q11.1406 37.1094 17.6719 38.8125
M15.9219 53.7188
Q15.9219 48.6406 19.1875 45.4062
Q22.4688 42.1875 27.6875 42.1875
Q32.7656 42.1875 36.0156 45.375
Q39.2656 48.5781 39.2656 53.2188
Q39.2656 58.0625 35.9062 61.3594
Q32.5625 64.6562 27.5938 64.6562
Q22.5625 64.6562 19.2344 61.4219
Q15.9219 58.2031 15.9219 53.7188
M13.0938 20.6562
Q13.0938 16.8906 14.875 13.375
Q16.6562 9.85938 20.1719 7.92188
Q23.6875 6 27.7344 6
Q34.0312 6 38.125 10.0469
Q42.2344 14.1094 42.2344 20.3594
Q42.2344 26.7031 38.0156 30.8594
Q33.7969 35.0156 27.4375 35.0156
Q21.2344 35.0156 17.1562 30.9062
Q13.0938 26.8125 13.0938 20.6562" id="ArialMT-38"/>
      </defs>
      <g style="fill:#262626;" transform="translate(85.2 67.38515625)scale(0.1 -0.1)">
       <use xlink:href="#ArialMT-38"/>
       <use x="55.615234375" xlink:href="#ArialMT-30"/>
       <use x="111.23046875" xlink:href="#ArialMT-30"/>
      </g>
     </g>
    </g>
   </g>
   <g id="patch_3">
    <path clip-path="url(#p82c8045bb0)" d="
M121.95 567
L135.9 567
L135.9 553.478
L121.95 553.478
z
" style="fill:#0000ff;stroke:#000000;stroke-linejoin:miter;stroke-width:0.3;"/>
   </g>
   <g id="patch_4">
    <path clip-path="url(#p82c8045bb0)" d="
M177.75 567
L191.7 567
L191.7 548.588
L177.75 548.588
z
" style="fill:#0000ff;stroke:#000000;stroke-linejoin:miter;stroke-width:0.3;"/>
   </g>
   <g id="patch_5">
    <path clip-path="url(#p82c8045bb0)" d="
M233.55 567
L247.5 567
L247.5 565.763
L233.55 565.763
z
" style="fill:#0000ff;stroke:#000000;stroke-linejoin:miter;stroke-width:0.3;"/>
   </g>
   <g id="patch_6">
    <path clip-path="url(#p82c8045bb0)" d="
M289.35 567
L303.3 567
L303.3 565.996
L289.35 565.996
z
" style="fill:#0000ff;stroke:#000000;stroke-linejoin:miter;stroke-width:0.3;"/>
   </g>
   <g id="patch_7">
    <path clip-path="url(#p82c8045bb0)" d="
M345.15 567
L359.1 567
L359.1 565.97
L345.15 565.97
z
" style="fill:#0000ff;stroke:#000000;stroke-linejoin:miter;stroke-width:0.3;"/>
   </g>
   <g id="patch_8">
    <path clip-path="url(#p82c8045bb0)" d="
M400.95 567
L414.9 567
L414.9 563.083
L400.95 563.083
z
" style="fill:#0000ff;stroke:#000000;stroke-linejoin:miter;stroke-width:0.3;"/>
   </g>
   <g id="patch_9">
    <path clip-path="url(#p82c8045bb0)" d="
M456.75 567
L470.7 567
L470.7 565.142
L456.75 565.142
z
" style="fill:#0000ff;stroke:#000000;stroke-linejoin:miter;stroke-width:0.3;"/>
   </g>
   <g id="patch_10">
    <path clip-path="url(#p82c8045bb0)" d="
M512.55 567
L526.5 567
L526.5 564.721
L512.55 564.721
z
" style="fill:#0000ff;stroke:#000000;stroke-linejoin:miter;stroke-width:0.3;"/>
   </g>
   <g id="patch_11">
    <path clip-path="url(#p82c8045bb0)" d="
M568.35 567
L582.3 567
L582.3 561.733
L568.35 561.733
z
" style="fill:#0000ff;stroke:#000000;stroke-linejoin:miter;stroke-width:0.3;"/>
   </g>
   <g id="patch_12">
    <path clip-path="url(#p82c8045bb0)" d="
M624.15 567
L638.1 567
L638.1 565.814
L624.15 565.814
z
" style="fill:#0000ff;stroke:#000000;stroke-linejoin:miter;stroke-width:0.3;"/>
   </g>
   <g id="patch_13">
    <path clip-path="url(#p82c8045bb0)" d="
M679.95 567
L693.9 567
L693.9 566.071
L679.95 566.071
z
" style="fill:#0000ff;stroke:#000000;stroke-linejoin:miter;stroke-width:0.3;"/>
   </g>
   <g id="patch_14">
    <path clip-path="url(#p82c8045bb0)" d="
M735.75 567
L749.7 567
L749.7 565.18
L735.75 565.18
z
" style="fill:#0000ff;stroke:#000000;stroke-linejoin:miter;stroke-width:0.3;"/>
   </g>
   <g id="patch_15">
    <path clip-path="url(#p82c8045bb0)" d="
M135.9 567
L149.85 567
L149.85 486.14
L135.9 486.14
z
" style="fill:#fffafa;stroke:#000000;stroke-linejoin:miter;stroke-width:0.3;"/>
   </g>
   <g id="patch_16">
    <path clip-path="url(#p82c8045bb0)" d="
M191.7 567
L205.65 567
L205.65 314.695
L191.7 314.695
z
" style="fill:#fffafa;stroke:#000000;stroke-linejoin:miter;stroke-width:0.3;"/>
   </g>
   <g id="patch_17">
    <path clip-path="url(#p82c8045bb0)" d="
M247.5 567
L261.45 567
L261.45 402.862
L247.5 402.862
z
" style="fill:#fffafa;stroke:#000000;stroke-linejoin:miter;stroke-width:0.3;"/>
   </g>
   <g id="patch_18">
    <path clip-path="url(#p82c8045bb0)" d="
M303.3 567
L317.25 567
L317.25 488.983
L303.3 488.983
z
" style="fill:#fffafa;stroke:#000000;stroke-linejoin:miter;stroke-width:0.3;"/>
   </g>
   <g id="patch_19">
    <path clip-path="url(#p82c8045bb0)" d="
M359.1 567
L373.05 567
L373.05 131.863
L359.1 131.863
z
" style="fill:#fffafa;stroke:#000000;stroke-linejoin:miter;stroke-width:0.3;"/>
   </g>
   <g id="patch_20">
    <path clip-path="url(#p82c8045bb0)" d="
M414.9 567
L428.85 567
L428.85 424.319
L414.9 424.319
z
" style="fill:#fffafa;stroke:#000000;stroke-linejoin:miter;stroke-width:0.3;"/>
   </g>
   <g id="patch_21">
    <path clip-path="url(#p82c8045bb0)" d="
M470.7 567
L484.65 567
L484.65 213.056
L470.7 213.056
z
" style="fill:#fffafa;stroke:#000000;stroke-linejoin:miter;stroke-width:0.3;"/>
   </g>
   <g id="patch_22">
    <path clip-path="url(#p82c8045bb0)" d="
M526.5 567
L540.45 567
L540.45 455.405
L526.5 455.405
z
" style="fill:#fffafa;stroke:#000000;stroke-linejoin:miter;stroke-width:0.3;"/>
   </g>
   <g id="patch_23">
    <path clip-path="url(#p82c8045bb0)" d="
M582.3 567
L596.25 567
L596.25 239.189
L582.3 239.189
z
" style="fill:#fffafa;stroke:#000000;stroke-linejoin:miter;stroke-width:0.3;"/>
   </g>
   <g id="patch_24">
    <path clip-path="url(#p82c8045bb0)" d="
M638.1 567
L652.05 567
L652.05 418.882
L638.1 418.882
z
" style="fill:#fffafa;stroke:#000000;stroke-linejoin:miter;stroke-width:0.3;"/>
   </g>
   <g id="patch_25">
    <path clip-path="url(#p82c8045bb0)" d="
M693.9 567
L707.85 567
L707.85 95.5095
L693.9 95.5095
z
" style="fill:#fffafa;stroke:#000000;stroke-linejoin:miter;stroke-width:0.3;"/>
   </g>
   <g id="patch_26">
    <path clip-path="url(#p82c8045bb0)" d="
M749.7 567
L763.65 567
L763.65 489.592
L749.7 489.592
z
" style="fill:#fffafa;stroke:#000000;stroke-linejoin:miter;stroke-width:0.3;"/>
   </g>
   <g id="patch_27">
    <path d="
M108 567
L108 64.8" style="fill:none;"/>
   </g>
   <g id="patch_28">
    <path d="
M777.6 567
L777.6 64.8" style="fill:none;"/>
   </g>
   <g id="patch_29">
    <path d="
M108 64.8
L777.6 64.8" style="fill:none;"/>
   </g>
   <g id="patch_30">
    <path d="
M108 567
L777.6 567" style="fill:none;"/>
   </g>
   <g id="text_22">
    <!-- Price Overides by Trade -->
    <defs>
     <path d="
M4.82812 34.8594
Q4.82812 52.6875 14.3906 62.7656
Q23.9688 72.8594 39.1094 72.8594
Q49.0312 72.8594 56.9844 68.1094
Q64.9375 63.375 69.1094 54.9062
Q73.2969 46.4375 73.2969 35.6875
Q73.2969 24.8125 68.8906 16.2188
Q64.5 7.625 56.4375 3.20312
Q48.3906 -1.21875 39.0625 -1.21875
Q28.9531 -1.21875 20.9844 3.65625
Q13.0312 8.54688 8.92188 16.9844
Q4.82812 25.4375 4.82812 34.8594
M14.5938 34.7188
Q14.5938 21.7812 21.5469 14.3281
Q28.5156 6.89062 39.0156 6.89062
Q49.7031 6.89062 56.6094 14.4062
Q63.5312 21.9219 63.5312 35.75
Q63.5312 44.4844 60.5781 51
Q57.625 57.5156 51.9219 61.1094
Q46.2344 64.7031 39.1562 64.7031
Q29.1094 64.7031 21.8438 57.7812
Q14.5938 50.875 14.5938 34.7188" id="ArialMT-4f"/>
     <path d="
M25.9219 0
L25.9219 63.1406
L2.34375 63.1406
L2.34375 71.5781
L59.0781 71.5781
L59.0781 63.1406
L35.4062 63.1406
L35.4062 0
z
" id="ArialMT-54"/>
    </defs>
    <g style="fill:#262626;" transform="translate(378.691875 59.8)scale(0.12 -0.12)">
     <use xlink:href="#ArialMT-50"/>
     <use x="66.69921875" xlink:href="#ArialMT-72"/>
     <use x="100.0" xlink:href="#ArialMT-69"/>
     <use x="122.216796875" xlink:href="#ArialMT-63"/>
     <use x="172.216796875" xlink:href="#ArialMT-65"/>
     <use x="227.83203125" xlink:href="#ArialMT-20"/>
     <use x="255.615234375" xlink:href="#ArialMT-4f"/>
     <use x="333.3984375" xlink:href="#ArialMT-76"/>
     <use x="383.3984375" xlink:href="#ArialMT-65"/>
     <use x="439.013671875" xlink:href="#ArialMT-72"/>
     <use x="472.314453125" xlink:href="#ArialMT-69"/>
     <use x="494.53125" xlink:href="#ArialMT-64"/>
     <use x="550.146484375" xlink:href="#ArialMT-65"/>
     <use x="605.76171875" xlink:href="#ArialMT-73"/>
     <use x="655.76171875" xlink:href="#ArialMT-20"/>
     <use x="683.544921875" xlink:href="#ArialMT-62"/>
     <use x="739.16015625" xlink:href="#ArialMT-79"/>
     <use x="789.16015625" xlink:href="#ArialMT-20"/>
     <use x="815.193359375" xlink:href="#ArialMT-54"/>
     <use x="872.52734375" xlink:href="#ArialMT-72"/>
     <use x="905.828125" xlink:href="#ArialMT-61"/>
     <use x="961.443359375" xlink:href="#ArialMT-64"/>
     <use x="1017.05859375" xlink:href="#ArialMT-65"/>
    </g>
   </g>
   <g id="legend_1">
    <g id="patch_31">
     <path d="
M117 80.9578
L137 80.9578
L137 73.9578
L117 73.9578
z
" style="fill:#0000ff;stroke:#000000;stroke-linejoin:miter;stroke-width:0.3;"/>
    </g>
    <g id="text_23">
     <!-- % of Price Overrides -->
     <defs>
      <path d="
M5.8125 54.3906
Q5.8125 62.0625 9.67188 67.4219
Q13.5312 72.7969 20.8438 72.7969
Q27.5938 72.7969 32 67.9844
Q36.4219 63.1875 36.4219 53.8594
Q36.4219 44.7812 31.9531 39.875
Q27.4844 34.9688 20.9531 34.9688
Q14.4531 34.9688 10.125 39.7969
Q5.8125 44.625 5.8125 54.3906
M21.0938 66.75
Q17.8281 66.75 15.6562 63.9062
Q13.4844 61.0781 13.4844 53.5156
Q13.4844 46.625 15.6719 43.8125
Q17.875 41.0156 21.0938 41.0156
Q24.4219 41.0156 26.5938 43.8438
Q28.7656 46.6875 28.7656 54.2031
Q28.7656 61.1406 26.5625 63.9375
Q24.3594 66.75 21.0938 66.75
M21.1406 -2.64062
L60.2969 72.7969
L67.4375 72.7969
L28.4219 -2.64062
z

M52.0938 16.7969
Q52.0938 24.5156 55.9531 29.8594
Q59.8125 35.2031 67.1875 35.2031
Q73.9219 35.2031 78.3438 30.3906
Q82.7656 25.5938 82.7656 16.2656
Q82.7656 7.17188 78.2969 2.26562
Q73.8281 -2.64062 67.2344 -2.64062
Q60.75 -2.64062 56.4219 2.21875
Q52.0938 7.07812 52.0938 16.7969
M67.4375 29.1562
Q64.1094 29.1562 61.9375 26.3125
Q59.7656 23.4844 59.7656 15.9219
Q59.7656 9.07812 61.9531 6.25
Q64.1562 3.42188 67.3906 3.42188
Q70.75 3.42188 72.9219 6.25
Q75.0938 9.07812 75.0938 16.6094
Q75.0938 23.5312 72.8906 26.3438
Q70.7031 29.1562 67.4375 29.1562" id="ArialMT-25"/>
     </defs>
     <g style="fill:#262626;" transform="translate(145.0 80.9578125)scale(0.1 -0.1)">
      <use xlink:href="#ArialMT-25"/>
      <use x="88.916015625" xlink:href="#ArialMT-20"/>
      <use x="116.69921875" xlink:href="#ArialMT-6f"/>
      <use x="172.314453125" xlink:href="#ArialMT-66"/>
      <use x="200.09765625" xlink:href="#ArialMT-20"/>
      <use x="227.880859375" xlink:href="#ArialMT-50"/>
      <use x="294.580078125" xlink:href="#ArialMT-72"/>
      <use x="327.880859375" xlink:href="#ArialMT-69"/>
      <use x="350.09765625" xlink:href="#ArialMT-63"/>
      <use x="400.09765625" xlink:href="#ArialMT-65"/>
      <use x="455.712890625" xlink:href="#ArialMT-20"/>
      <use x="483.49609375" xlink:href="#ArialMT-4f"/>
      <use x="561.279296875" xlink:href="#ArialMT-76"/>
      <use x="611.279296875" xlink:href="#ArialMT-65"/>
      <use x="666.89453125" xlink:href="#ArialMT-72"/>
      <use x="700.1953125" xlink:href="#ArialMT-72"/>
      <use x="733.49609375" xlink:href="#ArialMT-69"/>
      <use x="755.712890625" xlink:href="#ArialMT-64"/>
      <use x="811.328125" xlink:href="#ArialMT-65"/>
      <use x="866.943359375" xlink:href="#ArialMT-73"/>
     </g>
    </g>
    <g id="patch_32">
     <path d="
M117 95.2313
L137 95.2313
L137 88.2313
L117 88.2313
z
" style="fill:#fffafa;stroke:#000000;stroke-linejoin:miter;stroke-width:0.3;"/>
    </g>
    <g id="text_24">
     <!-- Average Price Overide Amount -->
     <g style="fill:#262626;" transform="translate(145.0 95.23125)scale(0.1 -0.1)">
      <use xlink:href="#ArialMT-41"/>
      <use x="64.94921875" xlink:href="#ArialMT-76"/>
      <use x="114.94921875" xlink:href="#ArialMT-65"/>
      <use x="170.564453125" xlink:href="#ArialMT-72"/>
      <use x="203.865234375" xlink:href="#ArialMT-61"/>
      <use x="259.48046875" xlink:href="#ArialMT-67"/>
      <use x="315.095703125" xlink:href="#ArialMT-65"/>
      <use x="370.7109375" xlink:href="#ArialMT-20"/>
      <use x="398.494140625" xlink:href="#ArialMT-50"/>
      <use x="465.193359375" xlink:href="#ArialMT-72"/>
      <use x="498.494140625" xlink:href="#ArialMT-69"/>
      <use x="520.7109375" xlink:href="#ArialMT-63"/>
      <use x="570.7109375" xlink:href="#ArialMT-65"/>
      <use x="626.326171875" xlink:href="#ArialMT-20"/>
      <use x="654.109375" xlink:href="#ArialMT-4f"/>
      <use x="731.892578125" xlink:href="#ArialMT-76"/>
      <use x="781.892578125" xlink:href="#ArialMT-65"/>
      <use x="837.5078125" xlink:href="#ArialMT-72"/>
      <use x="870.80859375" xlink:href="#ArialMT-69"/>
      <use x="893.025390625" xlink:href="#ArialMT-64"/>
      <use x="948.640625" xlink:href="#ArialMT-65"/>
      <use x="1004.255859375" xlink:href="#ArialMT-20"/>
      <use x="1026.5390625" xlink:href="#ArialMT-41"/>
      <use x="1093.23828125" xlink:href="#ArialMT-6d"/>
      <use x="1176.5390625" xlink:href="#ArialMT-6f"/>
      <use x="1232.154296875" xlink:href="#ArialMT-75"/>
      <use x="1287.76953125" xlink:href="#ArialMT-6e"/>
      <use x="1343.384765625" xlink:href="#ArialMT-74"/>
     </g>
    </g>
   </g>
  </g>
 </g>
 <defs>
  <clipPath id="p82c8045bb0">
   <rect height="502.2" width="669.6" x="108.0" y="64.8"/>
  </clipPath>
 </defs>
</svg>
