<?xml version="1.0" encoding="utf-8" standalone="no"?>
<!DOCTYPE svg PUBLIC "-//W3C//DTD SVG 1.1//EN"
  "http://www.w3.org/Graphics/SVG/1.1/DTD/svg11.dtd">
<!-- Created with matplotlib (http://matplotlib.org/) -->
<svg height="360pt" version="1.1" viewBox="0 0 360 360" width="360pt" xmlns="http://www.w3.org/2000/svg" xmlns:xlink="http://www.w3.org/1999/xlink">
 <defs>
  <style type="text/css">
*{stroke-linecap:butt;stroke-linejoin:round;}
  </style>
 </defs>
 <g id="figure_1">
  <g id="patch_1">
   <path d="
M0 360
L360 360
L360 0
L0 0
z
" style="fill:#ffffff;"/>
  </g>
  <g id="axes_1">
   <g id="patch_2">
    <path d="
M47.1647 317.04
L268.812 317.04
L268.812 92.2852
L47.1647 92.2852
z
" style="fill:#eaeaf2;"/>
   </g>
   <g id="matplotlib.axis_1">
    <g id="xtick_1">
     <g id="line2d_1">
      <path clip-path="url(#p4a9f002641)" d="
M47.1647 317.04
L47.1647 92.2852" style="fill:none;stroke:#ffffff;stroke-linecap:round;"/>
     </g>
     <g id="line2d_2">
      <defs>
       <path d="
M0 0
L0 0" id="md70f53a077" style="stroke:#262626;"/>
      </defs>
      <g>
       <use style="fill:#262626;stroke:#262626;" x="47.1646875" xlink:href="#md70f53a077" y="317.04"/>
      </g>
     </g>
     <g id="text_1">
      <!-- −20 -->
      <defs>
       <path d="
M50.3438 8.45312
L50.3438 0
L3.03125 0
Q2.9375 3.17188 4.04688 6.10938
Q5.85938 10.9375 9.82812 15.625
Q13.8125 20.3125 21.3438 26.4688
Q33.0156 36.0312 37.1094 41.625
Q41.2188 47.2188 41.2188 52.2031
Q41.2188 57.4219 37.4688 61
Q33.7344 64.5938 27.7344 64.5938
Q21.3906 64.5938 17.5781 60.7812
Q13.7656 56.9844 13.7188 50.25
L4.6875 51.1719
Q5.60938 61.2812 11.6562 66.5781
Q17.7188 71.875 27.9375 71.875
Q38.2344 71.875 44.2344 66.1562
Q50.25 60.4531 50.25 52
Q50.25 47.7031 48.4844 43.5469
Q46.7344 39.4062 42.6562 34.8125
Q38.5781 30.2188 29.1094 22.2188
Q21.1875 15.5781 18.9375 13.2031
Q16.7031 10.8438 15.2344 8.45312
z
" id="ArialMT-32"/>
       <path d="
M4.15625 35.2969
Q4.15625 48 6.76562 55.7344
Q9.375 63.4844 14.5156 67.6719
Q19.6719 71.875 27.4844 71.875
Q33.25 71.875 37.5938 69.5469
Q41.9375 67.2344 44.7656 62.8594
Q47.6094 58.5 49.2188 52.2188
Q50.8281 45.9531 50.8281 35.2969
Q50.8281 22.7031 48.2344 14.9688
Q45.6562 7.23438 40.5 3
Q35.3594 -1.21875 27.4844 -1.21875
Q17.1406 -1.21875 11.2344 6.20312
Q4.15625 15.1406 4.15625 35.2969
M13.1875 35.2969
Q13.1875 17.6719 17.3125 11.8281
Q21.4375 6 27.4844 6
Q33.5469 6 37.6719 11.8594
Q41.7969 17.7188 41.7969 35.2969
Q41.7969 52.9844 37.6719 58.7812
Q33.5469 64.5938 27.3906 64.5938
Q21.3438 64.5938 17.7188 59.4688
Q13.1875 52.9375 13.1875 35.2969" id="ArialMT-30"/>
       <path d="
M52.8281 31.2031
L5.5625 31.2031
L5.5625 39.4062
L52.8281 39.4062
z
" id="ArialMT-2212"/>
      </defs>
      <g style="fill:#262626;" transform="translate(39.200625 331.1978125)scale(0.1 -0.1)">
       <use xlink:href="#ArialMT-2212"/>
       <use x="58.3984375" xlink:href="#ArialMT-32"/>
       <use x="114.013671875" xlink:href="#ArialMT-30"/>
      </g>
     </g>
    </g>
    <g id="xtick_2">
     <g id="line2d_3">
      <path clip-path="url(#p4a9f002641)" d="
M74.8706 317.04
L74.8706 92.2852" style="fill:none;stroke:#ffffff;stroke-linecap:round;"/>
     </g>
     <g id="line2d_4">
      <g>
       <use style="fill:#262626;stroke:#262626;" x="74.8705587636" xlink:href="#md70f53a077" y="317.04"/>
      </g>
     </g>
     <g id="text_2">
      <!-- −10 -->
      <defs>
       <path d="
M37.25 0
L28.4688 0
L28.4688 56
Q25.2969 52.9844 20.1406 49.9531
Q14.9844 46.9219 10.8906 45.4062
L10.8906 53.9062
Q18.2656 57.375 23.7812 62.2969
Q29.2969 67.2344 31.5938 71.875
L37.25 71.875
z
" id="ArialMT-31"/>
      </defs>
      <g style="fill:#262626;" transform="translate(66.9064962636 331.1978125)scale(0.1 -0.1)">
       <use xlink:href="#ArialMT-2212"/>
       <use x="58.3984375" xlink:href="#ArialMT-31"/>
       <use x="114.013671875" xlink:href="#ArialMT-30"/>
      </g>
     </g>
    </g>
    <g id="xtick_3">
     <g id="line2d_5">
      <path clip-path="url(#p4a9f002641)" d="
M102.576 317.04
L102.576 92.2852" style="fill:none;stroke:#ffffff;stroke-linecap:round;"/>
     </g>
     <g id="line2d_6">
      <g>
       <use style="fill:#262626;stroke:#262626;" x="102.576430027" xlink:href="#md70f53a077" y="317.04"/>
      </g>
     </g>
     <g id="text_3">
      <!-- 0 -->
      <g style="fill:#262626;" transform="translate(100.242836277 331.1978125)scale(0.1 -0.1)">
       <use xlink:href="#ArialMT-30"/>
      </g>
     </g>
    </g>
    <g id="xtick_4">
     <g id="line2d_7">
      <path clip-path="url(#p4a9f002641)" d="
M130.282 317.04
L130.282 92.2852" style="fill:none;stroke:#ffffff;stroke-linecap:round;"/>
     </g>
     <g id="line2d_8">
      <g>
       <use style="fill:#262626;stroke:#262626;" x="130.282301291" xlink:href="#md70f53a077" y="317.04"/>
      </g>
     </g>
     <g id="text_4">
      <!-- 10 -->
      <g style="fill:#262626;" transform="translate(125.504957541 331.1978125)scale(0.1 -0.1)">
       <use xlink:href="#ArialMT-31"/>
       <use x="55.615234375" xlink:href="#ArialMT-30"/>
      </g>
     </g>
    </g>
    <g id="xtick_5">
     <g id="line2d_9">
      <path clip-path="url(#p4a9f002641)" d="
M157.988 317.04
L157.988 92.2852" style="fill:none;stroke:#ffffff;stroke-linecap:round;"/>
     </g>
     <g id="line2d_10">
      <g>
       <use style="fill:#262626;stroke:#262626;" x="157.988172554" xlink:href="#md70f53a077" y="317.04"/>
      </g>
     </g>
     <g id="text_5">
      <!-- 20 -->
      <g style="fill:#262626;" transform="translate(152.813172554 331.1978125)scale(0.1 -0.1)">
       <use xlink:href="#ArialMT-32"/>
       <use x="55.615234375" xlink:href="#ArialMT-30"/>
      </g>
     </g>
    </g>
    <g id="xtick_6">
     <g id="line2d_11">
      <path clip-path="url(#p4a9f002641)" d="
M185.694 317.04
L185.694 92.2852" style="fill:none;stroke:#ffffff;stroke-linecap:round;"/>
     </g>
     <g id="line2d_12">
      <g>
       <use style="fill:#262626;stroke:#262626;" x="185.694043818" xlink:href="#md70f53a077" y="317.04"/>
      </g>
     </g>
     <g id="text_6">
      <!-- 30 -->
      <defs>
       <path d="
M4.20312 18.8906
L12.9844 20.0625
Q14.5 12.5938 18.1406 9.29688
Q21.7812 6 27 6
Q33.2031 6 37.4688 10.2969
Q41.75 14.5938 41.75 20.9531
Q41.75 27 37.7969 30.9219
Q33.8438 34.8594 27.7344 34.8594
Q25.25 34.8594 21.5312 33.8906
L22.5156 41.6094
Q23.3906 41.5 23.9219 41.5
Q29.5469 41.5 34.0312 44.4219
Q38.5312 47.3594 38.5312 53.4688
Q38.5312 58.2969 35.25 61.4688
Q31.9844 64.6562 26.8125 64.6562
Q21.6875 64.6562 18.2656 61.4219
Q14.8438 58.2031 13.875 51.7656
L5.07812 53.3281
Q6.6875 62.1562 12.3906 67.0156
Q18.1094 71.875 26.6094 71.875
Q32.4688 71.875 37.3906 69.3594
Q42.3281 66.8438 44.9375 62.5
Q47.5625 58.1562 47.5625 53.2656
Q47.5625 48.6406 45.0625 44.8281
Q42.5781 41.0156 37.7031 38.7656
Q44.0469 37.3125 47.5625 32.6875
Q51.0781 28.0781 51.0781 21.1406
Q51.0781 11.7656 44.2344 5.25
Q37.4062 -1.26562 26.9531 -1.26562
Q17.5312 -1.26562 11.2969 4.34375
Q5.07812 9.96875 4.20312 18.8906" id="ArialMT-33"/>
      </defs>
      <g style="fill:#262626;" transform="translate(180.582325068 331.1978125)scale(0.1 -0.1)">
       <use xlink:href="#ArialMT-33"/>
       <use x="55.615234375" xlink:href="#ArialMT-30"/>
      </g>
     </g>
    </g>
    <g id="xtick_7">
     <g id="line2d_13">
      <path clip-path="url(#p4a9f002641)" d="
M213.4 317.04
L213.4 92.2852" style="fill:none;stroke:#ffffff;stroke-linecap:round;"/>
     </g>
     <g id="line2d_14">
      <g>
       <use style="fill:#262626;stroke:#262626;" x="213.399915082" xlink:href="#md70f53a077" y="317.04"/>
      </g>
     </g>
     <g id="text_7">
      <!-- 40 -->
      <defs>
       <path d="
M32.3281 0
L32.3281 17.1406
L1.26562 17.1406
L1.26562 25.2031
L33.9375 71.5781
L41.1094 71.5781
L41.1094 25.2031
L50.7812 25.2031
L50.7812 17.1406
L41.1094 17.1406
L41.1094 0
z

M32.3281 25.2031
L32.3281 57.4688
L9.90625 25.2031
z
" id="ArialMT-34"/>
      </defs>
      <g style="fill:#262626;" transform="translate(208.141321332 331.1978125)scale(0.1 -0.1)">
       <use xlink:href="#ArialMT-34"/>
       <use x="55.615234375" xlink:href="#ArialMT-30"/>
      </g>
     </g>
    </g>
    <g id="xtick_8">
     <g id="line2d_15">
      <path clip-path="url(#p4a9f002641)" d="
M241.106 317.04
L241.106 92.2852" style="fill:none;stroke:#ffffff;stroke-linecap:round;"/>
     </g>
     <g id="line2d_16">
      <g>
       <use style="fill:#262626;stroke:#262626;" x="241.105786345" xlink:href="#md70f53a077" y="317.04"/>
      </g>
     </g>
     <g id="text_8">
      <!-- 50 -->
      <defs>
       <path d="
M4.15625 18.75
L13.375 19.5312
Q14.4062 12.7969 18.1406 9.39062
Q21.875 6 27.1562 6
Q33.5 6 37.8906 10.7812
Q42.2812 15.5781 42.2812 23.4844
Q42.2812 31 38.0625 35.3438
Q33.8438 39.7031 27 39.7031
Q22.75 39.7031 19.3281 37.7656
Q15.9219 35.8438 13.9688 32.7656
L5.71875 33.8438
L12.6406 70.6094
L48.25 70.6094
L48.25 62.2031
L19.6719 62.2031
L15.8281 42.9688
Q22.2656 47.4688 29.3438 47.4688
Q38.7188 47.4688 45.1562 40.9688
Q51.6094 34.4688 51.6094 24.2656
Q51.6094 14.5469 45.9531 7.46875
Q39.0625 -1.21875 27.1562 -1.21875
Q17.3906 -1.21875 11.2031 4.25
Q5.03125 9.71875 4.15625 18.75" id="ArialMT-35"/>
      </defs>
      <g style="fill:#262626;" transform="translate(235.991723845 331.1978125)scale(0.1 -0.1)">
       <use xlink:href="#ArialMT-35"/>
       <use x="55.615234375" xlink:href="#ArialMT-30"/>
      </g>
     </g>
    </g>
    <g id="xtick_9">
     <g id="line2d_17">
      <path clip-path="url(#p4a9f002641)" d="
M268.812 317.04
L268.812 92.2852" style="fill:none;stroke:#ffffff;stroke-linecap:round;"/>
     </g>
     <g id="line2d_18">
      <g>
       <use style="fill:#262626;stroke:#262626;" x="268.811657609" xlink:href="#md70f53a077" y="317.04"/>
      </g>
     </g>
     <g id="text_9">
      <!-- 60 -->
      <defs>
       <path d="
M49.75 54.0469
L41.0156 53.375
Q39.8438 58.5469 37.7031 60.8906
Q34.125 64.6562 28.9062 64.6562
Q24.7031 64.6562 21.5312 62.3125
Q17.3906 59.2812 14.9844 53.4688
Q12.5938 47.6562 12.5 36.9219
Q15.6719 41.75 20.2656 44.0938
Q24.8594 46.4375 29.8906 46.4375
Q38.6719 46.4375 44.8438 39.9688
Q51.0312 33.5 51.0312 23.25
Q51.0312 16.5 48.125 10.7188
Q45.2188 4.9375 40.1406 1.85938
Q35.0625 -1.21875 28.6094 -1.21875
Q17.625 -1.21875 10.6875 6.85938
Q3.76562 14.9375 3.76562 33.5
Q3.76562 54.25 11.4219 63.6719
Q18.1094 71.875 29.4375 71.875
Q37.8906 71.875 43.2812 67.1406
Q48.6875 62.4062 49.75 54.0469
M13.875 23.1875
Q13.875 18.6562 15.7969 14.5
Q17.7188 10.3594 21.1875 8.17188
Q24.6562 6 28.4688 6
Q34.0312 6 38.0312 10.4844
Q42.0469 14.9844 42.0469 22.7031
Q42.0469 30.125 38.0781 34.3906
Q34.125 38.6719 28.125 38.6719
Q22.1719 38.6719 18.0156 34.3906
Q13.875 30.125 13.875 23.1875" id="ArialMT-36"/>
      </defs>
      <g style="fill:#262626;" transform="translate(263.678063859 331.1978125)scale(0.1 -0.1)">
       <use xlink:href="#ArialMT-36"/>
       <use x="55.615234375" xlink:href="#ArialMT-30"/>
      </g>
     </g>
    </g>
    <g id="text_10">
     <!-- Sample Company -->
     <defs>
      <path d="
M6.39062 0
L6.39062 71.5781
L15.1875 71.5781
L15.1875 0
z
" id="ArialMT-6c"/>
      <path d="
M42.0938 16.7031
L51.1719 15.5781
Q49.0312 7.625 43.2188 3.21875
Q37.4062 -1.17188 28.375 -1.17188
Q17 -1.17188 10.3281 5.82812
Q3.65625 12.8438 3.65625 25.4844
Q3.65625 38.5781 10.3906 45.7969
Q17.1406 53.0312 27.875 53.0312
Q38.2812 53.0312 44.875 45.9531
Q51.4688 38.875 51.4688 26.0312
Q51.4688 25.25 51.4219 23.6875
L12.75 23.6875
Q13.2344 15.1406 17.5781 10.5938
Q21.9219 6.0625 28.4219 6.0625
Q33.25 6.0625 36.6719 8.59375
Q40.0938 11.1406 42.0938 16.7031
M13.2344 30.9062
L42.1875 30.9062
Q41.6094 37.4531 38.875 40.7188
Q34.6719 45.7969 27.9844 45.7969
Q21.9219 45.7969 17.7969 41.75
Q13.6719 37.7031 13.2344 30.9062" id="ArialMT-65"/>
      <path d="
M6.59375 -19.875
L6.59375 51.8594
L14.5938 51.8594
L14.5938 45.125
Q17.4375 49.0781 21 51.0469
Q24.5625 53.0312 29.6406 53.0312
Q36.2812 53.0312 41.3594 49.6094
Q46.4375 46.1875 49.0156 39.9531
Q51.6094 33.7344 51.6094 26.3125
Q51.6094 18.3594 48.75 11.9844
Q45.9062 5.60938 40.4531 2.21875
Q35.0156 -1.17188 29 -1.17188
Q24.6094 -1.17188 21.1094 0.6875
Q17.625 2.54688 15.375 5.375
L15.375 -19.875
z

M14.5469 25.6406
Q14.5469 15.625 18.5938 10.8438
Q22.6562 6.0625 28.4219 6.0625
Q34.2812 6.0625 38.4531 11.0156
Q42.625 15.9688 42.625 26.375
Q42.625 36.2812 38.5469 41.2031
Q34.4688 46.1406 28.8125 46.1406
Q23.1875 46.1406 18.8594 40.8906
Q14.5469 35.6406 14.5469 25.6406" id="ArialMT-70"/>
      <path d="
M4.5 23
L13.4219 23.7812
Q14.0625 18.4062 16.375 14.9688
Q18.7031 11.5312 23.5781 9.40625
Q28.4688 7.28125 34.5781 7.28125
Q39.9844 7.28125 44.1406 8.89062
Q48.2969 10.5 50.3125 13.2969
Q52.3438 16.1094 52.3438 19.4375
Q52.3438 22.7969 50.3906 25.3125
Q48.4375 27.8281 43.9531 29.5469
Q41.0625 30.6719 31.2031 33.0312
Q21.3438 35.4062 17.3906 37.5
Q12.25 40.1875 9.73438 44.1562
Q7.23438 48.1406 7.23438 53.0781
Q7.23438 58.5 10.2969 63.2031
Q13.375 67.9219 19.2812 70.3594
Q25.2031 72.7969 32.4219 72.7969
Q40.375 72.7969 46.4531 70.2344
Q52.5469 67.6719 55.8125 62.6875
Q59.0781 57.7188 59.3281 51.4219
L50.25 50.7344
Q49.5156 57.5156 45.2812 60.9844
Q41.0625 64.4531 32.8125 64.4531
Q24.2188 64.4531 20.2812 61.2969
Q16.3594 58.1562 16.3594 53.7188
Q16.3594 49.8594 19.1406 47.3594
Q21.875 44.875 33.4219 42.2656
Q44.9688 39.6562 49.2656 37.7031
Q55.5156 34.8125 58.4844 30.3906
Q61.4688 25.9844 61.4688 20.2188
Q61.4688 14.5 58.2031 9.4375
Q54.9375 4.39062 48.7969 1.57812
Q42.6719 -1.21875 35.0156 -1.21875
Q25.2969 -1.21875 18.7188 1.60938
Q12.1562 4.4375 8.42188 10.125
Q4.6875 15.8281 4.5 23" id="ArialMT-53"/>
      <path d="
M6.20312 -19.9688
L5.21875 -11.7188
Q8.10938 -12.5 10.25 -12.5
Q13.1875 -12.5 14.9375 -11.5156
Q16.7031 -10.5469 17.8281 -8.79688
Q18.6562 -7.46875 20.5156 -2.25
Q20.75 -1.51562 21.2969 -0.09375
L1.60938 51.8594
L11.0781 51.8594
L21.875 21.8281
Q23.9688 16.1094 25.6406 9.8125
Q27.1562 15.875 29.25 21.625
L40.3281 51.8594
L49.125 51.8594
L29.3906 -0.875
Q26.2188 -9.42188 24.4688 -12.6406
Q22.125 -17 19.0938 -19.0156
Q16.0625 -21.0469 11.8594 -21.0469
Q9.32812 -21.0469 6.20312 -19.9688" id="ArialMT-79"/>
      <path d="
M6.59375 0
L6.59375 51.8594
L14.4531 51.8594
L14.4531 44.5781
Q16.8906 48.3906 20.9375 50.7031
Q25 53.0312 30.1719 53.0312
Q35.9375 53.0312 39.625 50.6406
Q43.3125 48.25 44.8281 43.9531
Q50.9844 53.0312 60.8438 53.0312
Q68.5625 53.0312 72.7031 48.75
Q76.8594 44.4844 76.8594 35.5938
L76.8594 0
L68.1094 0
L68.1094 32.6719
Q68.1094 37.9375 67.25 40.25
Q66.4062 42.5781 64.1562 43.9844
Q61.9219 45.4062 58.8906 45.4062
Q53.4219 45.4062 49.7969 41.7656
Q46.1875 38.1406 46.1875 30.125
L46.1875 0
L37.4062 0
L37.4062 33.6875
Q37.4062 39.5469 35.25 42.4688
Q33.1094 45.4062 28.2188 45.4062
Q24.5156 45.4062 21.3594 43.4531
Q18.2188 41.5 16.7969 37.7344
Q15.375 33.9844 15.375 26.9062
L15.375 0
z
" id="ArialMT-6d"/>
      <path d="
M58.7969 25.0938
L68.2656 22.7031
Q65.2812 11.0312 57.5469 4.90625
Q49.8125 -1.21875 38.625 -1.21875
Q27.0469 -1.21875 19.7969 3.48438
Q12.5469 8.20312 8.76562 17.1406
Q4.98438 26.0781 4.98438 36.3281
Q4.98438 47.5156 9.25 55.8281
Q13.5312 64.1562 21.4062 68.4688
Q29.2969 72.7969 38.7656 72.7969
Q49.5156 72.7969 56.8281 67.3281
Q64.1562 61.8594 67.0469 51.9531
L57.7188 49.75
Q55.2188 57.5625 50.4844 61.125
Q45.75 64.7031 38.5781 64.7031
Q30.3281 64.7031 24.7812 60.7344
Q19.2344 56.7812 16.9844 50.1094
Q14.75 43.4531 14.75 36.375
Q14.75 27.25 17.4062 20.4375
Q20.0625 13.625 25.6719 10.25
Q31.2969 6.89062 37.8438 6.89062
Q45.7969 6.89062 51.3125 11.4688
Q56.8438 16.0625 58.7969 25.0938" id="ArialMT-43"/>
      <path id="ArialMT-20"/>
      <path d="
M3.32812 25.9219
Q3.32812 40.3281 11.3281 47.2656
Q18.0156 53.0312 27.6406 53.0312
Q38.3281 53.0312 45.1094 46.0156
Q51.9062 39.0156 51.9062 26.6562
Q51.9062 16.6562 48.9062 10.9062
Q45.9062 5.17188 40.1562 2
Q34.4219 -1.17188 27.6406 -1.17188
Q16.75 -1.17188 10.0312 5.8125
Q3.32812 12.7969 3.32812 25.9219
M12.3594 25.9219
Q12.3594 15.9688 16.7031 11.0156
Q21.0469 6.0625 27.6406 6.0625
Q34.1875 6.0625 38.5312 11.0312
Q42.875 16.0156 42.875 26.2188
Q42.875 35.8438 38.5 40.7969
Q34.125 45.75 27.6406 45.75
Q21.0469 45.75 16.7031 40.8125
Q12.3594 35.8906 12.3594 25.9219" id="ArialMT-6f"/>
      <path d="
M6.59375 0
L6.59375 51.8594
L14.5 51.8594
L14.5 44.4844
Q20.2188 53.0312 31 53.0312
Q35.6875 53.0312 39.625 51.3438
Q43.5625 49.6562 45.5156 46.9219
Q47.4688 44.1875 48.25 40.4375
Q48.7344 37.9844 48.7344 31.8906
L48.7344 0
L39.9375 0
L39.9375 31.5469
Q39.9375 36.9219 38.9062 39.5781
Q37.8906 42.2344 35.2812 43.8125
Q32.6719 45.4062 29.1562 45.4062
Q23.5312 45.4062 19.4531 41.8438
Q15.375 38.2812 15.375 28.3281
L15.375 0
z
" id="ArialMT-6e"/>
      <path d="
M40.4375 6.39062
Q35.5469 2.25 31.0312 0.53125
Q26.5156 -1.17188 21.3438 -1.17188
Q12.7969 -1.17188 8.20312 3
Q3.60938 7.17188 3.60938 13.6719
Q3.60938 17.4844 5.34375 20.625
Q7.07812 23.7812 9.89062 25.6875
Q12.7031 27.5938 16.2188 28.5625
Q18.7969 29.25 24.0312 29.8906
Q34.6719 31.1562 39.7031 32.9062
Q39.75 34.7188 39.75 35.2031
Q39.75 40.5781 37.25 42.7812
Q33.8906 45.75 27.25 45.75
Q21.0469 45.75 18.0938 43.5781
Q15.1406 41.4062 13.7188 35.8906
L5.125 37.0625
Q6.29688 42.5781 8.98438 45.9688
Q11.6719 49.3594 16.75 51.1875
Q21.8281 53.0312 28.5156 53.0312
Q35.1562 53.0312 39.2969 51.4688
Q43.4531 49.9062 45.4062 47.5312
Q47.3594 45.1719 48.1406 41.5469
Q48.5781 39.3125 48.5781 33.4531
L48.5781 21.7344
Q48.5781 9.46875 49.1406 6.21875
Q49.7031 2.98438 51.375 0
L42.1875 0
Q40.8281 2.73438 40.4375 6.39062
M39.7031 26.0312
Q34.9062 24.0781 25.3438 22.7031
Q19.9219 21.9219 17.6719 20.9375
Q15.4375 19.9688 14.2031 18.0938
Q12.9844 16.2188 12.9844 13.9219
Q12.9844 10.4062 15.6406 8.0625
Q18.3125 5.71875 23.4375 5.71875
Q28.5156 5.71875 32.4688 7.9375
Q36.4219 10.1562 38.2812 14.0156
Q39.7031 17 39.7031 22.7969
z
" id="ArialMT-61"/>
     </defs>
     <g style="fill:#262626;" transform="translate(114.323328804 346.19296875)scale(0.11 -0.11)">
      <use xlink:href="#ArialMT-53"/>
      <use x="66.69921875" xlink:href="#ArialMT-61"/>
      <use x="122.314453125" xlink:href="#ArialMT-6d"/>
      <use x="205.615234375" xlink:href="#ArialMT-70"/>
      <use x="261.23046875" xlink:href="#ArialMT-6c"/>
      <use x="283.447265625" xlink:href="#ArialMT-65"/>
      <use x="339.0625" xlink:href="#ArialMT-20"/>
      <use x="366.845703125" xlink:href="#ArialMT-43"/>
      <use x="439.0625" xlink:href="#ArialMT-6f"/>
      <use x="494.677734375" xlink:href="#ArialMT-6d"/>
      <use x="577.978515625" xlink:href="#ArialMT-70"/>
      <use x="633.59375" xlink:href="#ArialMT-61"/>
      <use x="689.208984375" xlink:href="#ArialMT-6e"/>
      <use x="744.82421875" xlink:href="#ArialMT-79"/>
     </g>
    </g>
   </g>
   <g id="matplotlib.axis_2">
    <g id="ytick_1">
     <g id="line2d_19">
      <path clip-path="url(#p4a9f002641)" d="
M47.1647 317.04
L268.812 317.04" style="fill:none;stroke:#ffffff;stroke-linecap:round;"/>
     </g>
     <g id="line2d_20">
      <g>
       <use style="fill:#262626;stroke:#262626;" x="47.1646875" xlink:href="#md70f53a077" y="317.04"/>
      </g>
     </g>
     <g id="text_11">
      <!-- −60 -->
      <g style="fill:#262626;" transform="translate(24.2365625 319.62515625)scale(0.1 -0.1)">
       <use xlink:href="#ArialMT-2212"/>
       <use x="58.3984375" xlink:href="#ArialMT-36"/>
       <use x="114.013671875" xlink:href="#ArialMT-30"/>
      </g>
     </g>
    </g>
    <g id="ytick_2">
     <g id="line2d_21">
      <path clip-path="url(#p4a9f002641)" d="
M47.1647 284.932
L268.812 284.932" style="fill:none;stroke:#ffffff;stroke-linecap:round;"/>
     </g>
     <g id="line2d_22">
      <g>
       <use style="fill:#262626;stroke:#262626;" x="47.1646875" xlink:href="#md70f53a077" y="284.932173913"/>
      </g>
     </g>
     <g id="text_12">
      <!-- −40 -->
      <g style="fill:#262626;" transform="translate(24.2365625 287.517330163)scale(0.1 -0.1)">
       <use xlink:href="#ArialMT-2212"/>
       <use x="58.3984375" xlink:href="#ArialMT-34"/>
       <use x="114.013671875" xlink:href="#ArialMT-30"/>
      </g>
     </g>
    </g>
    <g id="ytick_3">
     <g id="line2d_23">
      <path clip-path="url(#p4a9f002641)" d="
M47.1647 252.824
L268.812 252.824" style="fill:none;stroke:#ffffff;stroke-linecap:round;"/>
     </g>
     <g id="line2d_24">
      <g>
       <use style="fill:#262626;stroke:#262626;" x="47.1646875" xlink:href="#md70f53a077" y="252.824347826"/>
      </g>
     </g>
     <g id="text_13">
      <!-- −20 -->
      <g style="fill:#262626;" transform="translate(24.2365625 255.409504076)scale(0.1 -0.1)">
       <use xlink:href="#ArialMT-2212"/>
       <use x="58.3984375" xlink:href="#ArialMT-32"/>
       <use x="114.013671875" xlink:href="#ArialMT-30"/>
      </g>
     </g>
    </g>
    <g id="ytick_4">
     <g id="line2d_25">
      <path clip-path="url(#p4a9f002641)" d="
M47.1647 220.717
L268.812 220.717" style="fill:none;stroke:#ffffff;stroke-linecap:round;"/>
     </g>
     <g id="line2d_26">
      <g>
       <use style="fill:#262626;stroke:#262626;" x="47.1646875" xlink:href="#md70f53a077" y="220.716521739"/>
      </g>
     </g>
     <g id="text_14">
      <!-- 0 -->
      <g style="fill:#262626;" transform="translate(35.4975 223.301677989)scale(0.1 -0.1)">
       <use xlink:href="#ArialMT-30"/>
      </g>
     </g>
    </g>
    <g id="ytick_5">
     <g id="line2d_27">
      <path clip-path="url(#p4a9f002641)" d="
M47.1647 188.609
L268.812 188.609" style="fill:none;stroke:#ffffff;stroke-linecap:round;"/>
     </g>
     <g id="line2d_28">
      <g>
       <use style="fill:#262626;stroke:#262626;" x="47.1646875" xlink:href="#md70f53a077" y="188.608695652"/>
      </g>
     </g>
     <g id="text_15">
      <!-- 20 -->
      <g style="fill:#262626;" transform="translate(29.8146875 191.193851902)scale(0.1 -0.1)">
       <use xlink:href="#ArialMT-32"/>
       <use x="55.615234375" xlink:href="#ArialMT-30"/>
      </g>
     </g>
    </g>
    <g id="ytick_6">
     <g id="line2d_29">
      <path clip-path="url(#p4a9f002641)" d="
M47.1647 156.501
L268.812 156.501" style="fill:none;stroke:#ffffff;stroke-linecap:round;"/>
     </g>
     <g id="line2d_30">
      <g>
       <use style="fill:#262626;stroke:#262626;" x="47.1646875" xlink:href="#md70f53a077" y="156.500869565"/>
      </g>
     </g>
     <g id="text_16">
      <!-- 40 -->
      <g style="fill:#262626;" transform="translate(29.6475 159.086025815)scale(0.1 -0.1)">
       <use xlink:href="#ArialMT-34"/>
       <use x="55.615234375" xlink:href="#ArialMT-30"/>
      </g>
     </g>
    </g>
    <g id="ytick_7">
     <g id="line2d_31">
      <path clip-path="url(#p4a9f002641)" d="
M47.1647 124.393
L268.812 124.393" style="fill:none;stroke:#ffffff;stroke-linecap:round;"/>
     </g>
     <g id="line2d_32">
      <g>
       <use style="fill:#262626;stroke:#262626;" x="47.1646875" xlink:href="#md70f53a077" y="124.393043478"/>
      </g>
     </g>
     <g id="text_17">
      <!-- 60 -->
      <g style="fill:#262626;" transform="translate(29.8975 126.978199728)scale(0.1 -0.1)">
       <use xlink:href="#ArialMT-36"/>
       <use x="55.615234375" xlink:href="#ArialMT-30"/>
      </g>
     </g>
    </g>
    <g id="ytick_8">
     <g id="line2d_33">
      <path clip-path="url(#p4a9f002641)" d="
M47.1647 92.2852
L268.812 92.2852" style="fill:none;stroke:#ffffff;stroke-linecap:round;"/>
     </g>
     <g id="line2d_34">
      <g>
       <use style="fill:#262626;stroke:#262626;" x="47.1646875" xlink:href="#md70f53a077" y="92.2852173913"/>
      </g>
     </g>
     <g id="text_18">
      <!-- 80 -->
      <defs>
       <path d="
M17.6719 38.8125
Q12.2031 40.8281 9.5625 44.5312
Q6.9375 48.25 6.9375 53.4219
Q6.9375 61.2344 12.5469 66.5469
Q18.1719 71.875 27.4844 71.875
Q36.8594 71.875 42.5781 66.4219
Q48.2969 60.9844 48.2969 53.1719
Q48.2969 48.1875 45.6719 44.5
Q43.0625 40.8281 37.75 38.8125
Q44.3438 36.6719 47.7812 31.875
Q51.2188 27.0938 51.2188 20.4531
Q51.2188 11.2812 44.7188 5.03125
Q38.2344 -1.21875 27.6406 -1.21875
Q17.0469 -1.21875 10.5469 5.04688
Q4.04688 11.3281 4.04688 20.7031
Q4.04688 27.6875 7.59375 32.3906
Q11.1406 37.1094 17.6719 38.8125
M15.9219 53.7188
Q15.9219 48.6406 19.1875 45.4062
Q22.4688 42.1875 27.6875 42.1875
Q32.7656 42.1875 36.0156 45.375
Q39.2656 48.5781 39.2656 53.2188
Q39.2656 58.0625 35.9062 61.3594
Q32.5625 64.6562 27.5938 64.6562
Q22.5625 64.6562 19.2344 61.4219
Q15.9219 58.2031 15.9219 53.7188
M13.0938 20.6562
Q13.0938 16.8906 14.875 13.375
Q16.6562 9.85938 20.1719 7.92188
Q23.6875 6 27.7344 6
Q34.0312 6 38.125 10.0469
Q42.2344 14.1094 42.2344 20.3594
Q42.2344 26.7031 38.0156 30.8594
Q33.7969 35.0156 27.4375 35.0156
Q21.2344 35.0156 17.1562 30.9062
Q13.0938 26.8125 13.0938 20.6562" id="ArialMT-38"/>
      </defs>
      <g style="fill:#262626;" transform="translate(29.925625 94.8703736413)scale(0.1 -0.1)">
       <use xlink:href="#ArialMT-38"/>
       <use x="55.615234375" xlink:href="#ArialMT-30"/>
      </g>
     </g>
    </g>
    <g id="text_19">
     <!-- Industry -->
     <defs>
      <path d="
M6.5 0
L6.5 51.8594
L14.4062 51.8594
L14.4062 44
Q17.4375 49.5156 20 51.2656
Q22.5625 53.0312 25.6406 53.0312
Q30.0781 53.0312 34.6719 50.2031
L31.6406 42.0469
Q28.4219 43.9531 25.2031 43.9531
Q22.3125 43.9531 20.0156 42.2188
Q17.7188 40.4844 16.75 37.4062
Q15.2812 32.7188 15.2812 27.1562
L15.2812 0
z
" id="ArialMT-72"/>
      <path d="
M40.2344 0
L40.2344 6.54688
Q35.2969 -1.17188 25.7344 -1.17188
Q19.5312 -1.17188 14.3281 2.25
Q9.125 5.67188 6.26562 11.7969
Q3.42188 17.9219 3.42188 25.875
Q3.42188 33.6406 6 39.9688
Q8.59375 46.2969 13.7656 49.6562
Q18.9531 53.0312 25.3438 53.0312
Q30.0312 53.0312 33.6875 51.0469
Q37.3594 49.0781 39.6562 45.9062
L39.6562 71.5781
L48.3906 71.5781
L48.3906 0
z

M12.4531 25.875
Q12.4531 15.9219 16.6406 10.9844
Q20.8438 6.0625 26.5625 6.0625
Q32.3281 6.0625 36.3438 10.7656
Q40.375 15.4844 40.375 25.1406
Q40.375 35.7969 36.2656 40.7656
Q32.1719 45.75 26.1719 45.75
Q20.3125 45.75 16.375 40.9688
Q12.4531 36.1875 12.4531 25.875" id="ArialMT-64"/>
      <path d="
M40.5781 0
L40.5781 7.625
Q34.5156 -1.17188 24.125 -1.17188
Q19.5312 -1.17188 15.5469 0.578125
Q11.5781 2.34375 9.64062 5
Q7.71875 7.67188 6.9375 11.5312
Q6.39062 14.1094 6.39062 19.7344
L6.39062 51.8594
L15.1875 51.8594
L15.1875 23.0938
Q15.1875 16.2188 15.7188 13.8125
Q16.5469 10.3594 19.2344 8.375
Q21.9219 6.39062 25.875 6.39062
Q29.8281 6.39062 33.2969 8.42188
Q36.7656 10.4531 38.2031 13.9375
Q39.6562 17.4375 39.6562 24.0781
L39.6562 51.8594
L48.4375 51.8594
L48.4375 0
z
" id="ArialMT-75"/>
      <path d="
M25.7812 7.85938
L27.0469 0.09375
Q23.3438 -0.6875 20.4062 -0.6875
Q15.625 -0.6875 12.9844 0.828125
Q10.3594 2.34375 9.28125 4.8125
Q8.20312 7.28125 8.20312 15.1875
L8.20312 45.0156
L1.76562 45.0156
L1.76562 51.8594
L8.20312 51.8594
L8.20312 64.7031
L16.9375 69.9688
L16.9375 51.8594
L25.7812 51.8594
L25.7812 45.0156
L16.9375 45.0156
L16.9375 14.7031
Q16.9375 10.9375 17.4062 9.85938
Q17.875 8.79688 18.9219 8.15625
Q19.9688 7.51562 21.9219 7.51562
Q23.3906 7.51562 25.7812 7.85938" id="ArialMT-74"/>
      <path d="
M3.07812 15.4844
L11.7656 16.8438
Q12.5 11.625 15.8438 8.84375
Q19.1875 6.0625 25.2031 6.0625
Q31.25 6.0625 34.1719 8.51562
Q37.1094 10.9844 37.1094 14.3125
Q37.1094 17.2812 34.5156 19
Q32.7188 20.1719 25.5312 21.9688
Q15.875 24.4219 12.1406 26.2031
Q8.40625 27.9844 6.46875 31.125
Q4.54688 34.2812 4.54688 38.0938
Q4.54688 41.5469 6.125 44.5
Q7.71875 47.4688 10.4531 49.4219
Q12.5 50.9219 16.0312 51.9688
Q19.5781 53.0312 23.6406 53.0312
Q29.7344 53.0312 34.3438 51.2656
Q38.9688 49.5156 41.1562 46.5
Q43.3594 43.5 44.1875 38.4844
L35.5938 37.3125
Q35.0156 41.3125 32.2031 43.5469
Q29.3906 45.7969 24.2656 45.7969
Q18.2188 45.7969 15.625 43.7969
Q13.0312 41.7969 13.0312 39.1094
Q13.0312 37.4062 14.1094 36.0312
Q15.1875 34.625 17.4844 33.6875
Q18.7969 33.2031 25.25 31.4531
Q34.5781 28.9531 38.25 27.3594
Q41.9375 25.7812 44.0312 22.75
Q46.1406 19.7344 46.1406 15.2344
Q46.1406 10.8438 43.5781 6.95312
Q41.0156 3.07812 36.1719 0.953125
Q31.3438 -1.17188 25.25 -1.17188
Q15.1406 -1.17188 9.84375 3.03125
Q4.54688 7.23438 3.07812 15.4844" id="ArialMT-73"/>
      <path d="
M9.32812 0
L9.32812 71.5781
L18.7969 71.5781
L18.7969 0
z
" id="ArialMT-49"/>
     </defs>
     <g style="fill:#262626;" transform="translate(16.92140625 223.664249321)rotate(-90.0)scale(0.11 -0.11)">
      <use xlink:href="#ArialMT-49"/>
      <use x="27.783203125" xlink:href="#ArialMT-6e"/>
      <use x="83.3984375" xlink:href="#ArialMT-64"/>
      <use x="139.013671875" xlink:href="#ArialMT-75"/>
      <use x="194.62890625" xlink:href="#ArialMT-73"/>
      <use x="244.62890625" xlink:href="#ArialMT-74"/>
      <use x="272.412109375" xlink:href="#ArialMT-72"/>
      <use x="305.712890625" xlink:href="#ArialMT-79"/>
     </g>
    </g>
   </g>
   <g id="PathCollection_1">
    <defs>
     <path d="
M0 2.23607
C0.593012 2.23607 1.16182 2.00046 1.58114 1.58114
C2.00046 1.16182 2.23607 0.593012 2.23607 0
C2.23607 -0.593012 2.00046 -1.16182 1.58114 -1.58114
C1.16182 -2.00046 0.593012 -2.23607 0 -2.23607
C-0.593012 -2.23607 -1.16182 -2.00046 -1.58114 -1.58114
C-2.00046 -1.16182 -2.23607 -0.593012 -2.23607 0
C-2.23607 0.593012 -2.00046 1.16182 -1.58114 1.58114
C-1.16182 2.00046 -0.593012 2.23607 0 2.23607
z
" id="mbf673f18a2"/>
    </defs>
    <g clip-path="url(#p4a9f002641)">
     <use style="fill:#ff0000;fill-opacity:0.8;" x="191.235218071" xlink:href="#mbf673f18a2" y="162.922434783"/>
     <use style="fill:#ff0000;fill-opacity:0.8;" x="138.59406267" xlink:href="#mbf673f18a2" y="193.424869565"/>
     <use style="fill:#ff0000;fill-opacity:0.8;" x="146.905824049" xlink:href="#mbf673f18a2" y="211.084173913"/>
     <use style="fill:#ff0000;fill-opacity:0.8;" x="149.676411175" xlink:href="#mbf673f18a2" y="191.819478261"/>
     <use style="fill:#ff0000;fill-opacity:0.8;" x="185.694043818" xlink:href="#mbf673f18a2" y="180.58173913"/>
     <use style="fill:#ff0000;fill-opacity:0.8;" x="133.052888417" xlink:href="#mbf673f18a2" y="201.451826087"/>
     <use style="fill:#ff0000;fill-opacity:0.8;" x="119.199952785" xlink:href="#mbf673f18a2" y="214.294956522"/>
    </g>
   </g>
   <g id="PolyCollection_1">
    <defs>
     <path d="
M47.1647 -142.21
L47.1647 -81.6688
L49.4035 -83.4325
L51.6424 -85.1961
L53.8813 -86.9597
L56.1201 -88.7234
L58.359 -90.487
L60.5978 -92.249
L62.8367 -94.0129
L65.0756 -95.741
L67.3144 -97.5412
L69.5533 -99.308
L71.7921 -101.092
L74.031 -102.875
L76.2698 -104.659
L78.5087 -106.44
L80.7476 -108.223
L82.9864 -110.006
L85.2253 -111.789
L87.4641 -113.572
L89.703 -115.355
L91.9419 -117.138
L94.1807 -118.921
L96.4196 -120.654
L98.6584 -122.25
L100.897 -123.992
L103.136 -125.706
L105.375 -127.391
L107.614 -129.078
L109.853 -130.634
L112.092 -132.384
L114.33 -134.135
L116.569 -135.822
L118.808 -137.507
L121.047 -139.192
L123.286 -140.876
L125.525 -142.561
L127.764 -144.086
L130.002 -145.688
L132.241 -147.289
L134.48 -148.568
L136.719 -149.958
L138.958 -151.426
L141.197 -152.794
L143.436 -153.825
L145.674 -154.98
L147.913 -155.917
L150.152 -156.481
L152.391 -157.718
L154.63 -159.528
L156.869 -160.64
L159.108 -161.38
L161.346 -162.128
L163.585 -162.869
L165.824 -163.611
L168.063 -164.363
L170.302 -164.828
L172.541 -164.944
L174.78 -165.061
L177.018 -165.177
L179.257 -165.294
L181.496 -165.41
L183.735 -165.526
L185.974 -165.643
L188.213 -165.933
L190.452 -166.501
L192.69 -167.071
L194.929 -167.59
L197.168 -167.72
L199.407 -167.85
L201.646 -168.241
L203.885 -168.71
L206.124 -169.181
L208.362 -169.656
L210.601 -170.131
L212.84 -170.605
L215.079 -171.08
L217.318 -171.555
L219.557 -172.03
L221.796 -172.504
L224.034 -172.979
L226.273 -173.454
L228.512 -173.928
L230.751 -174.403
L232.99 -174.878
L235.229 -175.353
L237.468 -175.827
L239.706 -176.302
L241.945 -176.777
L244.184 -177.251
L246.423 -177.726
L248.662 -178.201
L250.901 -178.676
L253.14 -179.15
L255.379 -179.625
L257.617 -180.1
L259.856 -180.574
L262.095 -181.049
L264.334 -181.524
L266.573 -181.999
L268.812 -182.473
L268.812 -256.899
L268.812 -256.899
L266.573 -255.008
L264.334 -253.196
L262.095 -251.451
L259.856 -249.706
L257.617 -247.962
L255.379 -246.217
L253.14 -244.472
L250.901 -242.727
L248.662 -240.982
L246.423 -239.238
L244.184 -237.414
L241.945 -235.577
L239.706 -233.821
L237.468 -232.248
L235.229 -230.68
L232.99 -229.112
L230.751 -227.543
L228.512 -225.939
L226.273 -224.155
L224.034 -222.371
L221.796 -220.682
L219.557 -219.087
L217.318 -217.492
L215.079 -215.893
L212.84 -214.298
L210.601 -212.702
L208.362 -210.872
L206.124 -209.173
L203.885 -207.618
L201.646 -206.086
L199.407 -204.525
L197.168 -202.964
L194.929 -201.316
L192.69 -199.746
L190.452 -198.176
L188.213 -196.606
L185.974 -195.035
L183.735 -193.464
L181.496 -191.869
L179.257 -190.259
L177.018 -188.708
L174.78 -187.175
L172.541 -185.611
L170.302 -184.082
L168.063 -182.669
L165.824 -181.122
L163.585 -179.651
L161.346 -178.179
L159.108 -176.703
L156.869 -175.266
L154.63 -173.757
L152.391 -172.202
L150.152 -170.642
L147.913 -169.334
L145.674 -167.893
L143.436 -166.711
L141.197 -165.44
L138.958 -164.189
L136.719 -163.228
L134.48 -162.515
L132.241 -161.604
L130.002 -160.904
L127.764 -160.201
L125.525 -159.488
L123.286 -158.726
L121.047 -158.293
L118.808 -157.646
L116.569 -156.744
L114.33 -155.842
L112.092 -154.974
L109.853 -154.949
L107.614 -154.571
L105.375 -153.96
L103.136 -153.488
L100.897 -153.496
L98.6584 -152.905
L96.4196 -152.394
L94.1807 -152.061
L91.9419 -151.599
L89.703 -151.363
L87.4641 -151.085
L85.2253 -150.763
L82.9864 -150.441
L80.7476 -150.119
L78.5087 -149.794
L76.2698 -149.465
L74.031 -148.974
L71.7921 -148.369
L69.5533 -147.762
L67.3144 -147.155
L65.0756 -146.549
L62.8367 -145.942
L60.5978 -145.335
L58.359 -144.728
L56.1201 -144.121
L53.8813 -143.515
L51.6424 -142.908
L49.4035 -142.474
L47.1647 -142.21
z
" id="m03cdb0ff7c" style="stroke:#000000;stroke-opacity:0.15;stroke-width:0.3;"/>
    </defs>
    <g clip-path="url(#p4a9f002641)">
     <use style="fill:#ff0000;fill-opacity:0.15;stroke:#000000;stroke-opacity:0.15;stroke-width:0.3;" x="0.0" xlink:href="#m03cdb0ff7c" y="360.0"/>
    </g>
   </g>
   <g id="line2d_35">
    <path clip-path="url(#p4a9f002641)" d="
M47.1647 255.617
L49.4035 254.295
L51.6424 252.972
L53.8813 251.65
L56.1201 250.327
L58.359 249.004
L60.5978 247.682
L62.8367 246.359
L65.0756 245.036
L67.3144 243.714
L69.5533 242.391
L71.7921 241.068
L74.031 239.746
L76.2698 238.423
L78.5087 237.101
L80.7476 235.778
L82.9864 234.455
L85.2253 233.133
L87.4641 231.81
L89.703 230.487
L91.9419 229.165
L94.1807 227.842
L96.4196 226.519
L98.6584 225.197
L100.897 223.874
L103.136 222.552
L105.375 221.229
L107.614 219.906
L109.853 218.584
L112.092 217.261
L114.33 215.938
L116.569 214.616
L118.808 213.293
L121.047 211.97
L123.286 210.648
L125.525 209.325
L127.764 208.002
L130.002 206.68
L132.241 205.357
L134.48 204.035
L136.719 202.712
L138.958 201.389
L141.197 200.067
L143.436 198.744
L145.674 197.421
L147.913 196.099
L150.152 194.776
L152.391 193.453
L154.63 192.131
L156.869 190.808
L159.108 189.486
L161.346 188.163
L163.585 186.84
L165.824 185.518
L168.063 184.195
L170.302 182.872
L172.541 181.55
L174.78 180.227
L177.018 178.904
L179.257 177.582
L181.496 176.259
L183.735 174.937
L185.974 173.614
L188.213 172.291
L190.452 170.969
L192.69 169.646
L194.929 168.323
L197.168 167.001
L199.407 165.678
L201.646 164.355
L203.885 163.033
L206.124 161.71
L208.362 160.387
L210.601 159.065
L212.84 157.742
L215.079 156.42
L217.318 155.097
L219.557 153.774
L221.796 152.452
L224.034 151.129
L226.273 149.806
L228.512 148.484
L230.751 147.161
L232.99 145.838
L235.229 144.516
L237.468 143.193
L239.706 141.871
L241.945 140.548
L244.184 139.225
L246.423 137.903
L248.662 136.58
L250.901 135.257
L253.14 133.935
L255.379 132.612
L257.617 131.289
L259.856 129.967
L262.095 128.644
L264.334 127.322
L266.573 125.999
L268.812 124.676" style="fill:none;stroke:#ff0000;stroke-linecap:round;stroke-width:2.625;"/>
   </g>
   <g id="patch_3">
    <path d="
M47.1647 317.04
L268.812 317.04" style="fill:none;"/>
   </g>
   <g id="patch_4">
    <path d="
M47.1647 317.04
L47.1647 92.2852" style="fill:none;"/>
   </g>
   <g id="legend_1">
    <g id="line2d_36"/>
    <g id="line2d_37"/>
    <g id="text_20">
     <!-- pearsonr = 0.89; p = 0.0075 -->
     <defs>
      <path d="
M8.89062 41.8438
L8.89062 51.8594
L18.8906 51.8594
L18.8906 41.8438
z

M8.89062 0
L8.89062 10.0156
L18.8906 10.0156
L18.8906 0
Q18.8906 -5.51562 16.9375 -8.90625
Q14.9844 -12.3125 10.75 -14.1562
L8.29688 -10.4062
Q11.0781 -9.1875 12.3906 -6.8125
Q13.7188 -4.4375 13.875 0
z
" id="ArialMT-3b"/>
      <path d="
M9.07812 0
L9.07812 10.0156
L19.0938 10.0156
L19.0938 0
z
" id="ArialMT-2e"/>
      <path d="
M4.73438 62.2031
L4.73438 70.6562
L51.0781 70.6562
L51.0781 63.8125
Q44.2344 56.5469 37.5156 44.4844
Q30.8125 32.4219 27.1562 19.6719
Q24.5156 10.6875 23.7812 0
L14.75 0
Q14.8906 8.45312 18.0625 20.4062
Q21.2344 32.375 27.1719 43.4844
Q33.1094 54.5938 39.7969 62.2031
z
" id="ArialMT-37"/>
      <path d="
M5.46875 16.5469
L13.9219 17.3281
Q14.9844 11.375 18.0156 8.6875
Q21.0469 6 25.7812 6
Q29.8281 6 32.875 7.85938
Q35.9375 9.71875 37.8906 12.8125
Q39.8438 15.9219 41.1562 21.1875
Q42.4844 26.4688 42.4844 31.9375
Q42.4844 32.5156 42.4375 33.6875
Q39.7969 29.5 35.2344 26.875
Q30.6719 24.2656 25.3438 24.2656
Q16.4531 24.2656 10.2969 30.7031
Q4.15625 37.1562 4.15625 47.7031
Q4.15625 58.5938 10.5781 65.2344
Q17 71.875 26.6562 71.875
Q33.6406 71.875 39.4219 68.1094
Q45.2188 64.3594 48.2188 57.3906
Q51.2188 50.4375 51.2188 37.25
Q51.2188 23.5312 48.2344 15.4062
Q45.2656 7.28125 39.375 3.03125
Q33.5 -1.21875 25.5938 -1.21875
Q17.1875 -1.21875 11.8594 3.4375
Q6.54688 8.10938 5.46875 16.5469
M41.4531 48.1406
Q41.4531 55.7188 37.4219 60.1562
Q33.4062 64.5938 27.7344 64.5938
Q21.875 64.5938 17.5312 59.8125
Q13.1875 55.0312 13.1875 47.4062
Q13.1875 40.5781 17.3125 36.2969
Q21.4375 32.0312 27.4844 32.0312
Q33.5938 32.0312 37.5156 36.2969
Q41.4531 40.5781 41.4531 48.1406" id="ArialMT-39"/>
      <path d="
M52.8281 42.0938
L5.5625 42.0938
L5.5625 50.2969
L52.8281 50.2969
z

M52.8281 20.3594
L5.5625 20.3594
L5.5625 28.5625
L52.8281 28.5625
z
" id="ArialMT-3d"/>
     </defs>
     <g style="fill:#262626;" transform="translate(136.792907609 108.472717391)scale(0.1 -0.1)">
      <use xlink:href="#ArialMT-70"/>
      <use x="55.615234375" xlink:href="#ArialMT-65"/>
      <use x="111.23046875" xlink:href="#ArialMT-61"/>
      <use x="166.845703125" xlink:href="#ArialMT-72"/>
      <use x="200.146484375" xlink:href="#ArialMT-73"/>
      <use x="250.146484375" xlink:href="#ArialMT-6f"/>
      <use x="305.76171875" xlink:href="#ArialMT-6e"/>
      <use x="361.376953125" xlink:href="#ArialMT-72"/>
      <use x="394.677734375" xlink:href="#ArialMT-20"/>
      <use x="422.4609375" xlink:href="#ArialMT-3d"/>
      <use x="480.859375" xlink:href="#ArialMT-20"/>
      <use x="508.642578125" xlink:href="#ArialMT-30"/>
      <use x="564.2578125" xlink:href="#ArialMT-2e"/>
      <use x="592.041015625" xlink:href="#ArialMT-38"/>
      <use x="647.65625" xlink:href="#ArialMT-39"/>
      <use x="703.271484375" xlink:href="#ArialMT-3b"/>
      <use x="731.0546875" xlink:href="#ArialMT-20"/>
      <use x="758.837890625" xlink:href="#ArialMT-70"/>
      <use x="814.453125" xlink:href="#ArialMT-20"/>
      <use x="842.236328125" xlink:href="#ArialMT-3d"/>
      <use x="900.634765625" xlink:href="#ArialMT-20"/>
      <use x="928.41796875" xlink:href="#ArialMT-30"/>
      <use x="984.033203125" xlink:href="#ArialMT-2e"/>
      <use x="1011.81640625" xlink:href="#ArialMT-30"/>
      <use x="1067.431640625" xlink:href="#ArialMT-30"/>
      <use x="1123.046875" xlink:href="#ArialMT-37"/>
      <use x="1178.662109375" xlink:href="#ArialMT-35"/>
     </g>
    </g>
   </g>
  </g>
  <g id="axes_2">
   <g id="patch_5">
    <path d="
M47.1647 79.0643
L268.812 79.0643
L268.812 12.96
L47.1647 12.96
z
" style="fill:#eaeaf2;"/>
   </g>
   <g id="matplotlib.axis_3">
    <g id="xtick_10">
     <g id="line2d_38">
      <path clip-path="url(#p09b87e084d)" d="
M47.1647 79.0643
L47.1647 12.96" style="fill:none;stroke:#ffffff;stroke-linecap:round;"/>
     </g>
     <g id="line2d_39">
      <g>
       <use style="fill:#262626;stroke:#262626;" x="47.1646875" xlink:href="#md70f53a077" y="79.0643478261"/>
      </g>
     </g>
    </g>
    <g id="xtick_11">
     <g id="line2d_40">
      <path clip-path="url(#p09b87e084d)" d="
M74.8706 79.0643
L74.8706 12.96" style="fill:none;stroke:#ffffff;stroke-linecap:round;"/>
     </g>
     <g id="line2d_41">
      <g>
       <use style="fill:#262626;stroke:#262626;" x="74.8705587636" xlink:href="#md70f53a077" y="79.0643478261"/>
      </g>
     </g>
    </g>
    <g id="xtick_12">
     <g id="line2d_42">
      <path clip-path="url(#p09b87e084d)" d="
M102.576 79.0643
L102.576 12.96" style="fill:none;stroke:#ffffff;stroke-linecap:round;"/>
     </g>
     <g id="line2d_43">
      <g>
       <use style="fill:#262626;stroke:#262626;" x="102.576430027" xlink:href="#md70f53a077" y="79.0643478261"/>
      </g>
     </g>
    </g>
    <g id="xtick_13">
     <g id="line2d_44">
      <path clip-path="url(#p09b87e084d)" d="
M130.282 79.0643
L130.282 12.96" style="fill:none;stroke:#ffffff;stroke-linecap:round;"/>
     </g>
     <g id="line2d_45">
      <g>
       <use style="fill:#262626;stroke:#262626;" x="130.282301291" xlink:href="#md70f53a077" y="79.0643478261"/>
      </g>
     </g>
    </g>
    <g id="xtick_14">
     <g id="line2d_46">
      <path clip-path="url(#p09b87e084d)" d="
M157.988 79.0643
L157.988 12.96" style="fill:none;stroke:#ffffff;stroke-linecap:round;"/>
     </g>
     <g id="line2d_47">
      <g>
       <use style="fill:#262626;stroke:#262626;" x="157.988172554" xlink:href="#md70f53a077" y="79.0643478261"/>
      </g>
     </g>
    </g>
    <g id="xtick_15">
     <g id="line2d_48">
      <path clip-path="url(#p09b87e084d)" d="
M185.694 79.0643
L185.694 12.96" style="fill:none;stroke:#ffffff;stroke-linecap:round;"/>
     </g>
     <g id="line2d_49">
      <g>
       <use style="fill:#262626;stroke:#262626;" x="185.694043818" xlink:href="#md70f53a077" y="79.0643478261"/>
      </g>
     </g>
    </g>
    <g id="xtick_16">
     <g id="line2d_50">
      <path clip-path="url(#p09b87e084d)" d="
M213.4 79.0643
L213.4 12.96" style="fill:none;stroke:#ffffff;stroke-linecap:round;"/>
     </g>
     <g id="line2d_51">
      <g>
       <use style="fill:#262626;stroke:#262626;" x="213.399915082" xlink:href="#md70f53a077" y="79.0643478261"/>
      </g>
     </g>
    </g>
    <g id="xtick_17">
     <g id="line2d_52">
      <path clip-path="url(#p09b87e084d)" d="
M241.106 79.0643
L241.106 12.96" style="fill:none;stroke:#ffffff;stroke-linecap:round;"/>
     </g>
     <g id="line2d_53">
      <g>
       <use style="fill:#262626;stroke:#262626;" x="241.105786345" xlink:href="#md70f53a077" y="79.0643478261"/>
      </g>
     </g>
    </g>
    <g id="xtick_18">
     <g id="line2d_54">
      <path clip-path="url(#p09b87e084d)" d="
M268.812 79.0643
L268.812 12.96" style="fill:none;stroke:#ffffff;stroke-linecap:round;"/>
     </g>
     <g id="line2d_55">
      <g>
       <use style="fill:#262626;stroke:#262626;" x="268.811657609" xlink:href="#md70f53a077" y="79.0643478261"/>
      </g>
     </g>
    </g>
   </g>
   <g id="matplotlib.axis_4">
    <g id="ytick_9"/>
    <g id="ytick_10"/>
    <g id="ytick_11"/>
    <g id="ytick_12"/>
    <g id="ytick_13"/>
    <g id="ytick_14"/>
   </g>
   <g id="patch_6">
    <path clip-path="url(#p09b87e084d)" d="
M119.2 79.0643
L143.212 79.0643
L143.212 13.6864
L119.2 13.6864
z
" style="fill:#ff0000;opacity:0.4;stroke:#000000;stroke-linejoin:miter;stroke-width:0.3;"/>
   </g>
   <g id="patch_7">
    <path clip-path="url(#p09b87e084d)" d="
M143.212 79.0643
L167.223 79.0643
L167.223 35.4791
L143.212 35.4791
z
" style="fill:#ff0000;opacity:0.4;stroke:#000000;stroke-linejoin:miter;stroke-width:0.3;"/>
   </g>
   <g id="patch_8">
    <path clip-path="url(#p09b87e084d)" d="
M167.223 79.0643
L191.235 79.0643
L191.235 35.4791
L167.223 35.4791
z
" style="fill:#ff0000;opacity:0.4;stroke:#000000;stroke-linejoin:miter;stroke-width:0.3;"/>
   </g>
   <g id="line2d_56">
    <path clip-path="url(#p09b87e084d)" d="
M68.3541 78.7519
L73.8258 78.6107
L77.9296 78.2871
L82.0334 77.7035
L84.7693 77.121
L87.5051 76.3423
L90.241 75.3289
L92.9768 74.043
L95.7127 72.4499
L98.4486 70.5219
L101.184 68.2414
L103.92 65.6043
L106.656 62.6222
L109.392 59.3247
L113.496 53.8993
L125.807 36.9818
L128.543 33.859
L131.279 31.2572
L132.647 30.1904
L134.015 29.2976
L135.383 28.5901
L136.751 28.0771
L138.118 27.765
L139.486 27.6575
L140.854 27.7553
L142.222 28.0557
L143.59 28.5528
L144.958 29.2371
L146.326 30.0961
L147.694 31.1138
L150.43 33.5486
L153.166 36.3644
L160.005 43.7416
L162.741 46.3221
L165.477 48.4701
L168.213 50.1118
L169.581 50.7371
L172.317 51.6208
L175.053 52.0885
L177.788 52.2677
L184.628 52.4904
L187.364 52.8864
L190.1 53.6255
L192.836 54.7582
L195.571 56.2848
L198.307 58.1604
L201.043 60.3043
L213.355 70.4665
L216.09 72.3048
L218.826 73.8799
L221.562 75.1851
L224.298 76.2321
L227.034 77.0454
L229.77 77.6567
L233.873 78.2687
L237.977 78.6057
L242.081 78.7429
L242.081 78.7429" style="fill:none;stroke:#ff0000;stroke-linecap:round;stroke-width:1.75;"/>
   </g>
   <g id="patch_9">
    <path d="
M47.1647 79.0643
L268.812 79.0643" style="fill:none;"/>
   </g>
  </g>
  <g id="axes_3">
   <g id="patch_10">
    <path d="
M281.85 317.04
L347.04 317.04
L347.04 92.2852
L281.85 92.2852
z
" style="fill:#eaeaf2;"/>
   </g>
   <g id="matplotlib.axis_5">
    <g id="xtick_19"/>
    <g id="xtick_20"/>
    <g id="xtick_21"/>
    <g id="xtick_22"/>
    <g id="xtick_23"/>
    <g id="xtick_24"/>
    <g id="xtick_25"/>
    <g id="xtick_26"/>
    <g id="xtick_27"/>
    <g id="xtick_28"/>
   </g>
   <g id="matplotlib.axis_6">
    <g id="ytick_15">
     <g id="line2d_57">
      <path clip-path="url(#pb20fbdcb04)" d="
M281.85 317.04
L347.04 317.04" style="fill:none;stroke:#ffffff;stroke-linecap:round;"/>
     </g>
     <g id="line2d_58">
      <g>
       <use style="fill:#262626;stroke:#262626;" x="281.849714674" xlink:href="#md70f53a077" y="317.04"/>
      </g>
     </g>
    </g>
    <g id="ytick_16">
     <g id="line2d_59">
      <path clip-path="url(#pb20fbdcb04)" d="
M281.85 284.932
L347.04 284.932" style="fill:none;stroke:#ffffff;stroke-linecap:round;"/>
     </g>
     <g id="line2d_60">
      <g>
       <use style="fill:#262626;stroke:#262626;" x="281.849714674" xlink:href="#md70f53a077" y="284.932173913"/>
      </g>
     </g>
    </g>
    <g id="ytick_17">
     <g id="line2d_61">
      <path clip-path="url(#pb20fbdcb04)" d="
M281.85 252.824
L347.04 252.824" style="fill:none;stroke:#ffffff;stroke-linecap:round;"/>
     </g>
     <g id="line2d_62">
      <g>
       <use style="fill:#262626;stroke:#262626;" x="281.849714674" xlink:href="#md70f53a077" y="252.824347826"/>
      </g>
     </g>
    </g>
    <g id="ytick_18">
     <g id="line2d_63">
      <path clip-path="url(#pb20fbdcb04)" d="
M281.85 220.717
L347.04 220.717" style="fill:none;stroke:#ffffff;stroke-linecap:round;"/>
     </g>
     <g id="line2d_64">
      <g>
       <use style="fill:#262626;stroke:#262626;" x="281.849714674" xlink:href="#md70f53a077" y="220.716521739"/>
      </g>
     </g>
    </g>
    <g id="ytick_19">
     <g id="line2d_65">
      <path clip-path="url(#pb20fbdcb04)" d="
M281.85 188.609
L347.04 188.609" style="fill:none;stroke:#ffffff;stroke-linecap:round;"/>
     </g>
     <g id="line2d_66">
      <g>
       <use style="fill:#262626;stroke:#262626;" x="281.849714674" xlink:href="#md70f53a077" y="188.608695652"/>
      </g>
     </g>
    </g>
    <g id="ytick_20">
     <g id="line2d_67">
      <path clip-path="url(#pb20fbdcb04)" d="
M281.85 156.501
L347.04 156.501" style="fill:none;stroke:#ffffff;stroke-linecap:round;"/>
     </g>
     <g id="line2d_68">
      <g>
       <use style="fill:#262626;stroke:#262626;" x="281.849714674" xlink:href="#md70f53a077" y="156.500869565"/>
      </g>
     </g>
    </g>
    <g id="ytick_21">
     <g id="line2d_69">
      <path clip-path="url(#pb20fbdcb04)" d="
M281.85 124.393
L347.04 124.393" style="fill:none;stroke:#ffffff;stroke-linecap:round;"/>
     </g>
     <g id="line2d_70">
      <g>
       <use style="fill:#262626;stroke:#262626;" x="281.849714674" xlink:href="#md70f53a077" y="124.393043478"/>
      </g>
     </g>
    </g>
    <g id="ytick_22">
     <g id="line2d_71">
      <path clip-path="url(#pb20fbdcb04)" d="
M281.85 92.2852
L347.04 92.2852" style="fill:none;stroke:#ffffff;stroke-linecap:round;"/>
     </g>
     <g id="line2d_72">
      <g>
       <use style="fill:#262626;stroke:#262626;" x="281.849714674" xlink:href="#md70f53a077" y="92.2852173913"/>
      </g>
     </g>
    </g>
   </g>
   <g id="patch_11">
    <path clip-path="url(#pb20fbdcb04)" d="
M281.85 214.295
L340.055 214.295
L340.055 197.171
L281.85 197.171
z
" style="fill:#ff0000;opacity:0.4;stroke:#000000;stroke-linejoin:miter;stroke-width:0.3;"/>
   </g>
   <g id="patch_12">
    <path clip-path="url(#pb20fbdcb04)" d="
M281.85 197.171
L340.055 197.171
L340.055 180.047
L281.85 180.047
z
" style="fill:#ff0000;opacity:0.4;stroke:#000000;stroke-linejoin:miter;stroke-width:0.3;"/>
   </g>
   <g id="patch_13">
    <path clip-path="url(#pb20fbdcb04)" d="
M281.85 180.047
L301.252 180.047
L301.252 162.922
L281.85 162.922
z
" style="fill:#ff0000;opacity:0.4;stroke:#000000;stroke-linejoin:miter;stroke-width:0.3;"/>
   </g>
   <g id="line2d_73">
    <path clip-path="url(#pb20fbdcb04)" d="
M282.17 246.319
L282.337 243.593
L282.738 240.866
L283.185 239.048
L283.822 237.231
L284.697 235.413
L285.857 233.595
L287.345 231.778
L289.192 229.96
L291.414 228.143
L294 226.325
L296.913 224.507
L301.748 221.781
L313.465 215.419
L317.849 212.693
L320.379 210.875
L322.56 209.057
L324.387 207.24
L325.867 205.422
L327.011 203.604
L327.824 201.787
L328.304 199.969
L328.436 198.151
L328.203 196.334
L327.587 194.516
L326.58 192.698
L325.191 190.881
L323.451 189.063
L321.415 187.245
L317.971 184.519
L310.819 179.066
L307.672 176.34
L305.852 174.522
L304.263 172.704
L302.26 169.978
L300.02 166.343
L297.215 161.798
L295.276 159.072
L292.39 155.437
L288.731 150.892
L286.797 148.166
L285.202 145.44
L284.351 143.622
L283.384 140.895
L282.743 138.169
L282.362 135.442
L282.182 132.716
L282.156 130.898
L282.156 130.898" style="fill:none;stroke:#ff0000;stroke-linecap:round;stroke-width:1.75;"/>
   </g>
   <g id="patch_14">
    <path d="
M281.85 317.04
L281.85 92.2852" style="fill:none;"/>
   </g>
  </g>
 </g>
 <defs>
  <clipPath id="pb20fbdcb04">
   <rect height="224.754782609" width="65.1902853261" x="281.849714674" y="92.2852173913"/>
  </clipPath>
  <clipPath id="p09b87e084d">
   <rect height="66.1043478261" width="221.646970109" x="47.1646875" y="12.96"/>
  </clipPath>
  <clipPath id="p4a9f002641">
   <rect height="224.754782609" width="221.646970109" x="47.1646875" y="92.2852173913"/>
  </clipPath>
 </defs>
</svg>
