<?xml version="1.0" encoding="utf-8" standalone="no"?>
<!DOCTYPE svg PUBLIC "-//W3C//DTD SVG 1.1//EN"
  "http://www.w3.org/Graphics/SVG/1.1/DTD/svg11.dtd">
<!-- Created with matplotlib (http://matplotlib.org/) -->
<svg height="432pt" version="1.1" viewBox="0 0 432 432" width="432pt" xmlns="http://www.w3.org/2000/svg" xmlns:xlink="http://www.w3.org/1999/xlink">
 <defs>
  <style type="text/css">
*{stroke-linecap:butt;stroke-linejoin:round;}
  </style>
 </defs>
 <g id="figure_1">
  <g id="patch_1">
   <path d="
M0 432
L432 432
L432 0
L0 0
z
" style="fill:#ffffff;"/>
  </g>
  <g id="axes_1">
   <g id="patch_2">
    <path d="
M47.1647 389.04
L355.29 389.04
L355.29 77.4309
L47.1647 77.4309
z
" style="fill:#eaeaf2;"/>
   </g>
   <g id="LineCollection_1">
    <path clip-path="url(#pa90f5f3eb1)" d="
M137.565 332.39
L140.395 333.089
L143.224 333.625
L146.053 334.019
L151.712 334.451
L157.371 334.489
L163.03 334.203
L168.689 333.633
L174.348 332.786
L180.007 331.671
L185.665 330.32
L191.324 328.582
L194.154 327.581
L199.813 325.159
L203.22 323.37
L205.471 322.091
L208.301 320.23
L211.733 317.647
L214.98 314.786
L217.755 311.925
L220.148 309.063
L222.448 305.87
L224.086 303.34
L225.694 300.479
L227.152 297.617
L229.636 291.895
L232.743 283.31
L234.733 277.588
L236.932 271.865
L239.425 266.703
L239.75 266.142
L242.254 262.328
L245.084 259.053
L247.913 256.51
L250.742 254.432
L255.047 251.835
L265.509 246.112
L267.719 244.791
L270.548 242.896
L273.852 240.389
L277.085 237.528
L279.837 234.666
L282.195 231.805
L284.696 228.23
L286.031 226.082
L287.572 223.22
L288.966 220.359
L291.262 214.636
L292.229 211.775
L293.878 206.052
L295.226 200.329
L296.292 194.606
L297.111 188.883
L297.581 183.16
L297.666 180.299
L297.636 177.438
L297.478 174.576
L297.175 171.715
L296.709 168.853
L296.013 165.842
L295.243 163.131
L294.198 160.269
L292.89 157.408
L291.318 154.546
L289.396 151.685
L287.061 148.823
L284.194 145.962
L281.866 144.028
L279.037 142.07
L275.699 140.239
L273.378 139.168
L270.548 138.144
L267.71 137.378
L264.89 136.814
L262.06 136.477
L259.231 136.357
L256.401 136.449
L253.572 136.756
L250.398 137.378
L247.913 138.014
L245.084 138.982
L242.235 140.239
L239.425 141.716
L236.595 143.538
L233.469 145.962
L230.41 148.823
L227.848 151.685
L225.277 155.084
L223.722 157.408
L222.026 160.269
L219.619 164.88
L217.704 168.853
L215.033 174.576
L213.622 177.438
L211.13 181.733
L210.137 183.16
L207.802 186.022
L204.569 188.883
L202.642 190.138
L199.49 191.745
L196.983 192.637
L194.154 193.443
L188.495 194.676
L177.177 196.64
L171.518 197.929
L168.689 198.679
L163.783 200.329
L163.03 200.586
L160.201 201.683
L154.542 204.386
L148.883 207.771
L146.053 209.765
L143.224 211.998
L140.209 214.636
L137.282 217.498
L134.666 220.359
L131.906 223.703
L129.077 227.545
L128.1 228.943
L124.54 234.666
L120.588 242.104
L118.613 246.112
L113.595 257.558
L110.304 266.142
L108.42 271.865
L107.595 274.726
L106.3 280.449
L105.796 283.31
L105.44 286.172
L105.236 289.033
L105.19 291.895
L105.313 294.756
L105.617 297.617
L106.441 301.773
L106.813 303.34
L107.714 306.202
L109.271 309.836
L110.31 311.925
L112.1 314.831
L114.93 318.561
L117.759 321.553
L120.588 324.017
L123.669 326.232
L126.247 327.825
L129.077 329.275
L131.906 330.529
L136.136 331.955
L137.565 332.39
L137.565 332.39" style="fill:none;stroke:#333333;stroke-width:1.75;"/>
   </g>
   <g id="LineCollection_2">
    <path clip-path="url(#pa90f5f3eb1)" d="
M148.883 320.87
L151.712 321.26
L154.542 321.505
L157.371 321.623
L163.03 321.525
L168.689 321.032
L174.348 320.182
L180.007 318.982
L184.619 317.647
L185.665 317.325
L188.495 316.325
L192.099 314.786
L194.154 313.818
L197.54 311.925
L199.813 310.487
L202.642 308.405
L205.471 305.967
L208.301 303.086
L211.13 299.621
L212.558 297.617
L214.34 294.756
L216.789 290.068
L217.286 289.033
L218.529 286.172
L220.677 280.449
L223.449 271.865
L226.152 263.28
L228.141 257.558
L230.612 251.835
L230.936 251.148
L232.165 248.973
L234 246.112
L236.595 243.053
L239.774 240.389
L242.254 238.8
L245.084 237.331
L257.069 231.805
L259.231 230.588
L262.06 228.75
L265.401 226.082
L268.284 223.22
L270.642 220.359
L273.378 216.143
L274.211 214.636
L276.207 210.349
L276.792 208.913
L277.813 206.052
L279.037 201.959
L280.125 197.468
L281.131 191.745
L281.475 188.883
L281.702 186.022
L281.795 183.16
L281.735 180.299
L281.497 177.438
L281.054 174.576
L280.372 171.715
L279.037 167.987
L278.079 165.992
L276.207 162.981
L273.378 159.779
L270.393 157.408
L267.719 155.913
L264.89 154.803
L262.06 154.139
L259.231 153.868
L256.401 153.965
L253.159 154.546
L250.742 155.284
L247.913 156.545
L245.084 158.272
L242.254 160.533
L239.425 163.471
L236.595 167.267
L235.592 168.853
L233.766 172.11
L231.249 177.438
L225.092 191.745
L223.577 194.606
L221.793 197.468
L219.533 200.329
L216.203 203.19
L213.96 204.48
L211.13 205.572
L208.301 206.248
L205.471 206.63
L199.813 206.933
L188.495 207.131
L182.836 207.51
L180.007 207.838
L177.177 208.283
L171.518 209.538
L168.689 210.369
L164.925 211.775
L163.03 212.547
L158.879 214.636
L157.371 215.469
L154.215 217.498
L150.386 220.359
L147.128 223.22
L144.295 226.082
L141.795 228.943
L139.568 231.805
L137.565 234.688
L134.736 239.26
L134.075 240.389
L131.117 246.112
L128.551 251.835
L126.247 257.655
L124.213 263.28
L122.41 269.003
L120.931 274.726
L119.844 280.449
L119.498 283.31
L119.31 286.172
L119.297 289.033
L119.48 291.895
L119.884 294.756
L120.588 297.773
L121.46 300.479
L122.711 303.34
L124.349 306.202
L126.459 309.063
L129.189 311.925
L132.827 314.786
L134.736 315.999
L137.952 317.647
L140.395 318.668
L143.224 319.604
L147.018 320.509
L148.883 320.87
L148.883 320.87" style="fill:none;stroke:#356047;stroke-width:1.75;"/>
   </g>
   <g id="LineCollection_3">
    <path clip-path="url(#pa90f5f3eb1)" d="
M148.883 309.876
L151.712 310.627
L154.542 311.159
L157.371 311.504
L160.201 311.685
L163.03 311.72
L165.859 311.622
L168.689 311.398
L171.518 311.051
L174.348 310.578
L177.177 309.974
L180.517 309.063
L182.836 308.332
L185.665 307.265
L188.495 305.994
L191.324 304.5
L194.154 302.725
L197.152 300.479
L200.289 297.617
L202.874 294.756
L205.471 291.26
L206.892 289.033
L208.487 286.172
L209.888 283.31
L212.23 277.588
L214.132 271.865
L215.767 266.142
L217.822 257.558
L218.955 251.835
L219.855 246.112
L220.203 243.25
L220.435 240.389
L220.506 237.528
L220.344 234.666
L219.619 231.237
L218.767 228.943
L216.738 226.082
L213.308 223.22
L211.13 221.987
L207.649 220.359
L205.471 219.545
L202.642 218.629
L198.185 217.498
L194.154 216.748
L191.324 216.391
L188.495 216.173
L185.665 216.098
L182.836 216.171
L180.007 216.4
L177.177 216.794
L173.856 217.498
L171.518 218.106
L168.689 219.042
L165.536 220.359
L163.03 221.575
L160.192 223.22
L156.116 226.082
L154.542 227.353
L151.712 229.953
L148.883 232.989
L146.053 236.549
L145.339 237.528
L143.224 240.757
L141.741 243.25
L138.831 248.973
L136.42 254.696
L134.401 260.419
L132.698 266.142
L131.346 271.865
L130.816 274.726
L130.409 277.588
L130.144 280.449
L130.042 283.31
L130.131 286.172
L130.446 289.033
L131.029 291.895
L131.929 294.756
L133.233 297.617
L135.026 300.479
L137.565 303.4
L141.049 306.202
L143.224 307.515
L146.576 309.063
L148.883 309.876
L148.883 309.876" style="fill:none;stroke:#368c5c;stroke-width:1.75;"/>
    <path clip-path="url(#pa90f5f3eb1)" d="
M245.084 209.884
L247.913 211.068
L250.742 210.885
L253.572 209.765
L254.792 208.913
L256.401 207.642
L257.803 206.052
L259.231 204.19
L259.812 203.19
L261.201 200.329
L262.06 198.179
L262.287 197.468
L262.953 194.606
L263.378 191.745
L263.522 188.883
L263.319 186.022
L262.679 183.16
L262.06 181.638
L261.13 180.299
L259.231 178.538
L256.401 177.79
L253.572 178.571
L251.149 180.299
L250.742 180.632
L248.776 183.16
L247.913 184.412
L247.075 186.022
L245.758 188.883
L245.084 190.548
L244.682 191.745
L243.879 194.606
L243.218 197.468
L242.752 200.329
L242.582 203.19
L242.914 206.052
L244.181 208.913
L245.084 209.884" style="fill:none;stroke:#368c5c;stroke-width:1.75;"/>
   </g>
   <g id="LineCollection_4">
    <path clip-path="url(#pa90f5f3eb1)" d="
M154.542 300.957
L157.371 301.741
L160.201 302.258
L163.03 302.542
L165.859 302.621
L168.689 302.512
L171.518 302.223
L174.348 301.755
L177.177 301.102
L179.254 300.479
L180.007 300.248
L182.836 299.169
L185.665 297.842
L186.072 297.617
L188.495 296.208
L190.599 294.756
L191.324 294.22
L194.038 291.895
L194.154 291.787
L196.755 289.033
L196.983 288.766
L198.982 286.172
L199.813 284.961
L200.857 283.31
L202.459 280.449
L202.642 280.084
L203.832 277.588
L205.03 274.726
L205.471 273.538
L206.078 271.865
L206.996 269.003
L207.796 266.142
L208.301 264.048
L208.488 263.28
L209.077 260.419
L209.553 257.558
L209.908 254.696
L210.128 251.835
L210.191 248.973
L210.066 246.112
L209.708 243.25
L209.051 240.389
L208.301 238.295
L208.005 237.528
L206.446 234.666
L205.471 233.361
L204.149 231.805
L202.642 230.416
L200.739 228.943
L199.813 228.344
L196.983 226.824
L195.216 226.082
L194.154 225.681
L191.324 224.856
L188.495 224.29
L185.665 223.965
L182.836 223.869
L180.007 223.996
L177.177 224.348
L174.348 224.929
L171.518 225.752
L170.639 226.082
L168.689 226.833
L165.859 228.188
L164.544 228.943
L163.03 229.856
L160.278 231.805
L160.201 231.863
L157.371 234.286
L156.973 234.666
L154.542 237.195
L154.247 237.528
L151.948 240.389
L151.712 240.715
L149.975 243.25
L148.883 245.047
L148.257 246.112
L146.757 248.973
L146.053 250.491
L145.436 251.835
L144.273 254.696
L143.25 257.558
L143.224 257.641
L142.346 260.419
L141.564 263.28
L140.898 266.142
L140.395 268.771
L140.349 269.003
L139.923 271.865
L139.64 274.726
L139.518 277.588
L139.588 280.449
L139.885 283.31
L140.395 285.858
L140.463 286.172
L141.417 289.033
L142.822 291.895
L143.224 292.519
L144.912 294.756
L146.053 295.944
L148.027 297.617
L148.883 298.224
L151.712 299.817
L153.276 300.479
L154.542 300.957" style="fill:none;stroke:#4eae7b;stroke-width:1.75;"/>
   </g>
   <g id="LineCollection_5">
    <path clip-path="url(#pa90f5f3eb1)" d="
M163.03 292.644
L165.859 293.096
L168.689 293.233
L171.518 293.082
L174.348 292.658
L177.177 291.961
L177.368 291.895
L180.007 290.938
L182.836 289.598
L183.795 289.033
L185.665 287.852
L187.855 286.172
L188.495 285.637
L190.855 283.31
L191.324 282.798
L193.202 280.449
L194.154 279.108
L195.121 277.588
L196.721 274.726
L196.983 274.192
L198.037 271.865
L199.15 269.003
L199.813 266.981
L200.074 266.142
L200.807 263.28
L201.372 260.419
L201.762 257.558
L201.96 254.696
L201.938 251.835
L201.661 248.973
L201.076 246.112
L200.108 243.25
L199.813 242.633
L198.585 240.389
L196.983 238.267
L196.309 237.528
L194.154 235.663
L192.663 234.666
L191.324 233.916
L188.495 232.755
L185.665 232.013
L184.091 231.805
L182.836 231.654
L180.007 231.632
L178.33 231.805
L177.177 231.928
L174.348 232.552
L171.518 233.497
L168.917 234.666
L168.689 234.776
L165.859 236.48
L164.415 237.528
L163.03 238.627
L161.116 240.389
L160.201 241.327
L158.528 243.25
L157.371 244.754
L156.412 246.112
L154.644 248.973
L154.542 249.165
L153.189 251.835
L151.948 254.696
L151.712 255.341
L150.927 257.558
L150.089 260.419
L149.419 263.28
L148.915 266.142
L148.883 266.435
L148.6 269.003
L148.475 271.865
L148.565 274.726
L148.883 277.374
L148.912 277.588
L149.613 280.449
L150.738 283.31
L151.712 285.043
L152.487 286.172
L154.542 288.419
L155.272 289.033
L157.371 290.465
L160.201 291.825
L160.413 291.895
L163.03 292.644" style="fill:none;stroke:#7cc7a7;stroke-width:1.75;"/>
   </g>
   <g id="LineCollection_6">
    <path clip-path="url(#pa90f5f3eb1)" d="
M165.859 281.068
L168.689 281.929
L171.518 282.188
L174.348 281.925
L177.177 281.181
L178.874 280.449
L180.007 279.917
L182.836 278.06
L183.395 277.588
L185.665 275.442
L186.285 274.726
L188.445 271.865
L188.495 271.788
L190.022 269.003
L191.311 266.142
L191.324 266.102
L192.195 263.28
L192.81 260.419
L193.134 257.558
L193.13 254.696
L192.742 251.835
L191.894 248.973
L191.324 247.779
L190.318 246.112
L188.495 244.032
L187.528 243.25
L185.665 242.097
L182.836 241.051
L180.007 240.646
L177.177 240.811
L174.348 241.495
L171.518 242.666
L170.514 243.25
L168.689 244.454
L166.712 246.112
L165.859 246.94
L164.113 248.973
L163.03 250.464
L162.161 251.835
L160.666 254.696
L160.201 255.826
L159.553 257.558
L158.761 260.419
L158.245 263.28
L158.022 266.142
L158.128 269.003
L158.622 271.865
L159.589 274.726
L160.201 275.904
L161.363 277.588
L163.03 279.304
L164.71 280.449
L165.859 281.068" style="fill:none;stroke:#aadfd3;stroke-width:1.75;"/>
   </g>
   <g id="matplotlib.axis_1">
    <g id="xtick_1">
     <g id="line2d_1">
      <path clip-path="url(#pa90f5f3eb1)" d="
M71.6773 389.04
L71.6773 77.4309" style="fill:none;stroke:#ffffff;stroke-linecap:round;"/>
     </g>
     <g id="line2d_2">
      <defs>
       <path d="
M0 0
L0 0" id="md70f53a077" style="stroke:#262626;"/>
      </defs>
      <g>
       <use style="fill:#262626;stroke:#262626;" x="71.6773485512" xlink:href="#md70f53a077" y="389.04"/>
      </g>
     </g>
     <g id="text_1">
      <!-- −10 -->
      <defs>
       <path d="
M37.25 0
L28.4688 0
L28.4688 56
Q25.2969 52.9844 20.1406 49.9531
Q14.9844 46.9219 10.8906 45.4062
L10.8906 53.9062
Q18.2656 57.375 23.7812 62.2969
Q29.2969 67.2344 31.5938 71.875
L37.25 71.875
z
" id="ArialMT-31"/>
       <path d="
M4.15625 35.2969
Q4.15625 48 6.76562 55.7344
Q9.375 63.4844 14.5156 67.6719
Q19.6719 71.875 27.4844 71.875
Q33.25 71.875 37.5938 69.5469
Q41.9375 67.2344 44.7656 62.8594
Q47.6094 58.5 49.2188 52.2188
Q50.8281 45.9531 50.8281 35.2969
Q50.8281 22.7031 48.2344 14.9688
Q45.6562 7.23438 40.5 3
Q35.3594 -1.21875 27.4844 -1.21875
Q17.1406 -1.21875 11.2344 6.20312
Q4.15625 15.1406 4.15625 35.2969
M13.1875 35.2969
Q13.1875 17.6719 17.3125 11.8281
Q21.4375 6 27.4844 6
Q33.5469 6 37.6719 11.8594
Q41.7969 17.7188 41.7969 35.2969
Q41.7969 52.9844 37.6719 58.7812
Q33.5469 64.5938 27.3906 64.5938
Q21.3438 64.5938 17.7188 59.4688
Q13.1875 52.9375 13.1875 35.2969" id="ArialMT-30"/>
       <path d="
M52.8281 31.2031
L5.5625 31.2031
L5.5625 39.4062
L52.8281 39.4062
z
" id="ArialMT-2212"/>
      </defs>
      <g style="fill:#262626;" transform="translate(63.7132860512 403.1978125)scale(0.1 -0.1)">
       <use xlink:href="#ArialMT-2212"/>
       <use x="58.3984375" xlink:href="#ArialMT-31"/>
       <use x="114.013671875" xlink:href="#ArialMT-30"/>
      </g>
     </g>
    </g>
    <g id="xtick_2">
     <g id="line2d_3">
      <path clip-path="url(#pa90f5f3eb1)" d="
M116.35 389.04
L116.35 77.4309" style="fill:none;stroke:#ffffff;stroke-linecap:round;"/>
     </g>
     <g id="line2d_4">
      <g>
       <use style="fill:#262626;stroke:#262626;" x="116.349751452" xlink:href="#md70f53a077" y="389.04"/>
      </g>
     </g>
     <g id="text_2">
      <!-- 0 -->
      <g style="fill:#262626;" transform="translate(114.016157702 403.1978125)scale(0.1 -0.1)">
       <use xlink:href="#ArialMT-30"/>
      </g>
     </g>
    </g>
    <g id="xtick_3">
     <g id="line2d_5">
      <path clip-path="url(#pa90f5f3eb1)" d="
M161.022 389.04
L161.022 77.4309" style="fill:none;stroke:#ffffff;stroke-linecap:round;"/>
     </g>
     <g id="line2d_6">
      <g>
       <use style="fill:#262626;stroke:#262626;" x="161.022154353" xlink:href="#md70f53a077" y="389.04"/>
      </g>
     </g>
     <g id="text_3">
      <!-- 10 -->
      <g style="fill:#262626;" transform="translate(156.244810603 403.1978125)scale(0.1 -0.1)">
       <use xlink:href="#ArialMT-31"/>
       <use x="55.615234375" xlink:href="#ArialMT-30"/>
      </g>
     </g>
    </g>
    <g id="xtick_4">
     <g id="line2d_7">
      <path clip-path="url(#pa90f5f3eb1)" d="
M205.695 389.04
L205.695 77.4309" style="fill:none;stroke:#ffffff;stroke-linecap:round;"/>
     </g>
     <g id="line2d_8">
      <g>
       <use style="fill:#262626;stroke:#262626;" x="205.694557254" xlink:href="#md70f53a077" y="389.04"/>
      </g>
     </g>
     <g id="text_4">
      <!-- 20 -->
      <defs>
       <path d="
M50.3438 8.45312
L50.3438 0
L3.03125 0
Q2.9375 3.17188 4.04688 6.10938
Q5.85938 10.9375 9.82812 15.625
Q13.8125 20.3125 21.3438 26.4688
Q33.0156 36.0312 37.1094 41.625
Q41.2188 47.2188 41.2188 52.2031
Q41.2188 57.4219 37.4688 61
Q33.7344 64.5938 27.7344 64.5938
Q21.3906 64.5938 17.5781 60.7812
Q13.7656 56.9844 13.7188 50.25
L4.6875 51.1719
Q5.60938 61.2812 11.6562 66.5781
Q17.7188 71.875 27.9375 71.875
Q38.2344 71.875 44.2344 66.1562
Q50.25 60.4531 50.25 52
Q50.25 47.7031 48.4844 43.5469
Q46.7344 39.4062 42.6562 34.8125
Q38.5781 30.2188 29.1094 22.2188
Q21.1875 15.5781 18.9375 13.2031
Q16.7031 10.8438 15.2344 8.45312
z
" id="ArialMT-32"/>
      </defs>
      <g style="fill:#262626;" transform="translate(200.519557254 403.1978125)scale(0.1 -0.1)">
       <use xlink:href="#ArialMT-32"/>
       <use x="55.615234375" xlink:href="#ArialMT-30"/>
      </g>
     </g>
    </g>
    <g id="xtick_5">
     <g id="line2d_9">
      <path clip-path="url(#pa90f5f3eb1)" d="
M250.367 389.04
L250.367 77.4309" style="fill:none;stroke:#ffffff;stroke-linecap:round;"/>
     </g>
     <g id="line2d_10">
      <g>
       <use style="fill:#262626;stroke:#262626;" x="250.366960155" xlink:href="#md70f53a077" y="389.04"/>
      </g>
     </g>
     <g id="text_5">
      <!-- 30 -->
      <defs>
       <path d="
M4.20312 18.8906
L12.9844 20.0625
Q14.5 12.5938 18.1406 9.29688
Q21.7812 6 27 6
Q33.2031 6 37.4688 10.2969
Q41.75 14.5938 41.75 20.9531
Q41.75 27 37.7969 30.9219
Q33.8438 34.8594 27.7344 34.8594
Q25.25 34.8594 21.5312 33.8906
L22.5156 41.6094
Q23.3906 41.5 23.9219 41.5
Q29.5469 41.5 34.0312 44.4219
Q38.5312 47.3594 38.5312 53.4688
Q38.5312 58.2969 35.25 61.4688
Q31.9844 64.6562 26.8125 64.6562
Q21.6875 64.6562 18.2656 61.4219
Q14.8438 58.2031 13.875 51.7656
L5.07812 53.3281
Q6.6875 62.1562 12.3906 67.0156
Q18.1094 71.875 26.6094 71.875
Q32.4688 71.875 37.3906 69.3594
Q42.3281 66.8438 44.9375 62.5
Q47.5625 58.1562 47.5625 53.2656
Q47.5625 48.6406 45.0625 44.8281
Q42.5781 41.0156 37.7031 38.7656
Q44.0469 37.3125 47.5625 32.6875
Q51.0781 28.0781 51.0781 21.1406
Q51.0781 11.7656 44.2344 5.25
Q37.4062 -1.26562 26.9531 -1.26562
Q17.5312 -1.26562 11.2969 4.34375
Q5.07812 9.96875 4.20312 18.8906" id="ArialMT-33"/>
      </defs>
      <g style="fill:#262626;" transform="translate(245.255241405 403.1978125)scale(0.1 -0.1)">
       <use xlink:href="#ArialMT-33"/>
       <use x="55.615234375" xlink:href="#ArialMT-30"/>
      </g>
     </g>
    </g>
    <g id="xtick_6">
     <g id="line2d_11">
      <path clip-path="url(#pa90f5f3eb1)" d="
M295.039 389.04
L295.039 77.4309" style="fill:none;stroke:#ffffff;stroke-linecap:round;"/>
     </g>
     <g id="line2d_12">
      <g>
       <use style="fill:#262626;stroke:#262626;" x="295.039363056" xlink:href="#md70f53a077" y="389.04"/>
      </g>
     </g>
     <g id="text_6">
      <!-- 40 -->
      <defs>
       <path d="
M32.3281 0
L32.3281 17.1406
L1.26562 17.1406
L1.26562 25.2031
L33.9375 71.5781
L41.1094 71.5781
L41.1094 25.2031
L50.7812 25.2031
L50.7812 17.1406
L41.1094 17.1406
L41.1094 0
z

M32.3281 25.2031
L32.3281 57.4688
L9.90625 25.2031
z
" id="ArialMT-34"/>
      </defs>
      <g style="fill:#262626;" transform="translate(289.780769306 403.1978125)scale(0.1 -0.1)">
       <use xlink:href="#ArialMT-34"/>
       <use x="55.615234375" xlink:href="#ArialMT-30"/>
      </g>
     </g>
    </g>
    <g id="xtick_7">
     <g id="line2d_13">
      <path clip-path="url(#pa90f5f3eb1)" d="
M339.712 389.04
L339.712 77.4309" style="fill:none;stroke:#ffffff;stroke-linecap:round;"/>
     </g>
     <g id="line2d_14">
      <g>
       <use style="fill:#262626;stroke:#262626;" x="339.711765958" xlink:href="#md70f53a077" y="389.04"/>
      </g>
     </g>
     <g id="text_7">
      <!-- 50 -->
      <defs>
       <path d="
M4.15625 18.75
L13.375 19.5312
Q14.4062 12.7969 18.1406 9.39062
Q21.875 6 27.1562 6
Q33.5 6 37.8906 10.7812
Q42.2812 15.5781 42.2812 23.4844
Q42.2812 31 38.0625 35.3438
Q33.8438 39.7031 27 39.7031
Q22.75 39.7031 19.3281 37.7656
Q15.9219 35.8438 13.9688 32.7656
L5.71875 33.8438
L12.6406 70.6094
L48.25 70.6094
L48.25 62.2031
L19.6719 62.2031
L15.8281 42.9688
Q22.2656 47.4688 29.3438 47.4688
Q38.7188 47.4688 45.1562 40.9688
Q51.6094 34.4688 51.6094 24.2656
Q51.6094 14.5469 45.9531 7.46875
Q39.0625 -1.21875 27.1562 -1.21875
Q17.3906 -1.21875 11.2031 4.25
Q5.03125 9.71875 4.15625 18.75" id="ArialMT-35"/>
      </defs>
      <g style="fill:#262626;" transform="translate(334.597703458 403.1978125)scale(0.1 -0.1)">
       <use xlink:href="#ArialMT-35"/>
       <use x="55.615234375" xlink:href="#ArialMT-30"/>
      </g>
     </g>
    </g>
    <g id="text_8">
     <!-- Sample Company -->
     <defs>
      <path d="
M6.39062 0
L6.39062 71.5781
L15.1875 71.5781
L15.1875 0
z
" id="ArialMT-6c"/>
      <path d="
M42.0938 16.7031
L51.1719 15.5781
Q49.0312 7.625 43.2188 3.21875
Q37.4062 -1.17188 28.375 -1.17188
Q17 -1.17188 10.3281 5.82812
Q3.65625 12.8438 3.65625 25.4844
Q3.65625 38.5781 10.3906 45.7969
Q17.1406 53.0312 27.875 53.0312
Q38.2812 53.0312 44.875 45.9531
Q51.4688 38.875 51.4688 26.0312
Q51.4688 25.25 51.4219 23.6875
L12.75 23.6875
Q13.2344 15.1406 17.5781 10.5938
Q21.9219 6.0625 28.4219 6.0625
Q33.25 6.0625 36.6719 8.59375
Q40.0938 11.1406 42.0938 16.7031
M13.2344 30.9062
L42.1875 30.9062
Q41.6094 37.4531 38.875 40.7188
Q34.6719 45.7969 27.9844 45.7969
Q21.9219 45.7969 17.7969 41.75
Q13.6719 37.7031 13.2344 30.9062" id="ArialMT-65"/>
      <path d="
M6.59375 -19.875
L6.59375 51.8594
L14.5938 51.8594
L14.5938 45.125
Q17.4375 49.0781 21 51.0469
Q24.5625 53.0312 29.6406 53.0312
Q36.2812 53.0312 41.3594 49.6094
Q46.4375 46.1875 49.0156 39.9531
Q51.6094 33.7344 51.6094 26.3125
Q51.6094 18.3594 48.75 11.9844
Q45.9062 5.60938 40.4531 2.21875
Q35.0156 -1.17188 29 -1.17188
Q24.6094 -1.17188 21.1094 0.6875
Q17.625 2.54688 15.375 5.375
L15.375 -19.875
z

M14.5469 25.6406
Q14.5469 15.625 18.5938 10.8438
Q22.6562 6.0625 28.4219 6.0625
Q34.2812 6.0625 38.4531 11.0156
Q42.625 15.9688 42.625 26.375
Q42.625 36.2812 38.5469 41.2031
Q34.4688 46.1406 28.8125 46.1406
Q23.1875 46.1406 18.8594 40.8906
Q14.5469 35.6406 14.5469 25.6406" id="ArialMT-70"/>
      <path d="
M4.5 23
L13.4219 23.7812
Q14.0625 18.4062 16.375 14.9688
Q18.7031 11.5312 23.5781 9.40625
Q28.4688 7.28125 34.5781 7.28125
Q39.9844 7.28125 44.1406 8.89062
Q48.2969 10.5 50.3125 13.2969
Q52.3438 16.1094 52.3438 19.4375
Q52.3438 22.7969 50.3906 25.3125
Q48.4375 27.8281 43.9531 29.5469
Q41.0625 30.6719 31.2031 33.0312
Q21.3438 35.4062 17.3906 37.5
Q12.25 40.1875 9.73438 44.1562
Q7.23438 48.1406 7.23438 53.0781
Q7.23438 58.5 10.2969 63.2031
Q13.375 67.9219 19.2812 70.3594
Q25.2031 72.7969 32.4219 72.7969
Q40.375 72.7969 46.4531 70.2344
Q52.5469 67.6719 55.8125 62.6875
Q59.0781 57.7188 59.3281 51.4219
L50.25 50.7344
Q49.5156 57.5156 45.2812 60.9844
Q41.0625 64.4531 32.8125 64.4531
Q24.2188 64.4531 20.2812 61.2969
Q16.3594 58.1562 16.3594 53.7188
Q16.3594 49.8594 19.1406 47.3594
Q21.875 44.875 33.4219 42.2656
Q44.9688 39.6562 49.2656 37.7031
Q55.5156 34.8125 58.4844 30.3906
Q61.4688 25.9844 61.4688 20.2188
Q61.4688 14.5 58.2031 9.4375
Q54.9375 4.39062 48.7969 1.57812
Q42.6719 -1.21875 35.0156 -1.21875
Q25.2969 -1.21875 18.7188 1.60938
Q12.1562 4.4375 8.42188 10.125
Q4.6875 15.8281 4.5 23" id="ArialMT-53"/>
      <path d="
M6.20312 -19.9688
L5.21875 -11.7188
Q8.10938 -12.5 10.25 -12.5
Q13.1875 -12.5 14.9375 -11.5156
Q16.7031 -10.5469 17.8281 -8.79688
Q18.6562 -7.46875 20.5156 -2.25
Q20.75 -1.51562 21.2969 -0.09375
L1.60938 51.8594
L11.0781 51.8594
L21.875 21.8281
Q23.9688 16.1094 25.6406 9.8125
Q27.1562 15.875 29.25 21.625
L40.3281 51.8594
L49.125 51.8594
L29.3906 -0.875
Q26.2188 -9.42188 24.4688 -12.6406
Q22.125 -17 19.0938 -19.0156
Q16.0625 -21.0469 11.8594 -21.0469
Q9.32812 -21.0469 6.20312 -19.9688" id="ArialMT-79"/>
      <path d="
M6.59375 0
L6.59375 51.8594
L14.4531 51.8594
L14.4531 44.5781
Q16.8906 48.3906 20.9375 50.7031
Q25 53.0312 30.1719 53.0312
Q35.9375 53.0312 39.625 50.6406
Q43.3125 48.25 44.8281 43.9531
Q50.9844 53.0312 60.8438 53.0312
Q68.5625 53.0312 72.7031 48.75
Q76.8594 44.4844 76.8594 35.5938
L76.8594 0
L68.1094 0
L68.1094 32.6719
Q68.1094 37.9375 67.25 40.25
Q66.4062 42.5781 64.1562 43.9844
Q61.9219 45.4062 58.8906 45.4062
Q53.4219 45.4062 49.7969 41.7656
Q46.1875 38.1406 46.1875 30.125
L46.1875 0
L37.4062 0
L37.4062 33.6875
Q37.4062 39.5469 35.25 42.4688
Q33.1094 45.4062 28.2188 45.4062
Q24.5156 45.4062 21.3594 43.4531
Q18.2188 41.5 16.7969 37.7344
Q15.375 33.9844 15.375 26.9062
L15.375 0
z
" id="ArialMT-6d"/>
      <path d="
M58.7969 25.0938
L68.2656 22.7031
Q65.2812 11.0312 57.5469 4.90625
Q49.8125 -1.21875 38.625 -1.21875
Q27.0469 -1.21875 19.7969 3.48438
Q12.5469 8.20312 8.76562 17.1406
Q4.98438 26.0781 4.98438 36.3281
Q4.98438 47.5156 9.25 55.8281
Q13.5312 64.1562 21.4062 68.4688
Q29.2969 72.7969 38.7656 72.7969
Q49.5156 72.7969 56.8281 67.3281
Q64.1562 61.8594 67.0469 51.9531
L57.7188 49.75
Q55.2188 57.5625 50.4844 61.125
Q45.75 64.7031 38.5781 64.7031
Q30.3281 64.7031 24.7812 60.7344
Q19.2344 56.7812 16.9844 50.1094
Q14.75 43.4531 14.75 36.375
Q14.75 27.25 17.4062 20.4375
Q20.0625 13.625 25.6719 10.25
Q31.2969 6.89062 37.8438 6.89062
Q45.7969 6.89062 51.3125 11.4688
Q56.8438 16.0625 58.7969 25.0938" id="ArialMT-43"/>
      <path id="ArialMT-20"/>
      <path d="
M3.32812 25.9219
Q3.32812 40.3281 11.3281 47.2656
Q18.0156 53.0312 27.6406 53.0312
Q38.3281 53.0312 45.1094 46.0156
Q51.9062 39.0156 51.9062 26.6562
Q51.9062 16.6562 48.9062 10.9062
Q45.9062 5.17188 40.1562 2
Q34.4219 -1.17188 27.6406 -1.17188
Q16.75 -1.17188 10.0312 5.8125
Q3.32812 12.7969 3.32812 25.9219
M12.3594 25.9219
Q12.3594 15.9688 16.7031 11.0156
Q21.0469 6.0625 27.6406 6.0625
Q34.1875 6.0625 38.5312 11.0312
Q42.875 16.0156 42.875 26.2188
Q42.875 35.8438 38.5 40.7969
Q34.125 45.75 27.6406 45.75
Q21.0469 45.75 16.7031 40.8125
Q12.3594 35.8906 12.3594 25.9219" id="ArialMT-6f"/>
      <path d="
M6.59375 0
L6.59375 51.8594
L14.5 51.8594
L14.5 44.4844
Q20.2188 53.0312 31 53.0312
Q35.6875 53.0312 39.625 51.3438
Q43.5625 49.6562 45.5156 46.9219
Q47.4688 44.1875 48.25 40.4375
Q48.7344 37.9844 48.7344 31.8906
L48.7344 0
L39.9375 0
L39.9375 31.5469
Q39.9375 36.9219 38.9062 39.5781
Q37.8906 42.2344 35.2812 43.8125
Q32.6719 45.4062 29.1562 45.4062
Q23.5312 45.4062 19.4531 41.8438
Q15.375 38.2812 15.375 28.3281
L15.375 0
z
" id="ArialMT-6e"/>
      <path d="
M40.4375 6.39062
Q35.5469 2.25 31.0312 0.53125
Q26.5156 -1.17188 21.3438 -1.17188
Q12.7969 -1.17188 8.20312 3
Q3.60938 7.17188 3.60938 13.6719
Q3.60938 17.4844 5.34375 20.625
Q7.07812 23.7812 9.89062 25.6875
Q12.7031 27.5938 16.2188 28.5625
Q18.7969 29.25 24.0312 29.8906
Q34.6719 31.1562 39.7031 32.9062
Q39.75 34.7188 39.75 35.2031
Q39.75 40.5781 37.25 42.7812
Q33.8906 45.75 27.25 45.75
Q21.0469 45.75 18.0938 43.5781
Q15.1406 41.4062 13.7188 35.8906
L5.125 37.0625
Q6.29688 42.5781 8.98438 45.9688
Q11.6719 49.3594 16.75 51.1875
Q21.8281 53.0312 28.5156 53.0312
Q35.1562 53.0312 39.2969 51.4688
Q43.4531 49.9062 45.4062 47.5312
Q47.3594 45.1719 48.1406 41.5469
Q48.5781 39.3125 48.5781 33.4531
L48.5781 21.7344
Q48.5781 9.46875 49.1406 6.21875
Q49.7031 2.98438 51.375 0
L42.1875 0
Q40.8281 2.73438 40.4375 6.39062
M39.7031 26.0312
Q34.9062 24.0781 25.3438 22.7031
Q19.9219 21.9219 17.6719 20.9375
Q15.4375 19.9688 14.2031 18.0938
Q12.9844 16.2188 12.9844 13.9219
Q12.9844 10.4062 15.6406 8.0625
Q18.3125 5.71875 23.4375 5.71875
Q28.5156 5.71875 32.4688 7.9375
Q36.4219 10.1562 38.2812 14.0156
Q39.7031 17 39.7031 22.7969
z
" id="ArialMT-61"/>
     </defs>
     <g style="fill:#262626;" transform="translate(157.562473214 418.19296875)scale(0.11 -0.11)">
      <use xlink:href="#ArialMT-53"/>
      <use x="66.69921875" xlink:href="#ArialMT-61"/>
      <use x="122.314453125" xlink:href="#ArialMT-6d"/>
      <use x="205.615234375" xlink:href="#ArialMT-70"/>
      <use x="261.23046875" xlink:href="#ArialMT-6c"/>
      <use x="283.447265625" xlink:href="#ArialMT-65"/>
      <use x="339.0625" xlink:href="#ArialMT-20"/>
      <use x="366.845703125" xlink:href="#ArialMT-43"/>
      <use x="439.0625" xlink:href="#ArialMT-6f"/>
      <use x="494.677734375" xlink:href="#ArialMT-6d"/>
      <use x="577.978515625" xlink:href="#ArialMT-70"/>
      <use x="633.59375" xlink:href="#ArialMT-61"/>
      <use x="689.208984375" xlink:href="#ArialMT-6e"/>
      <use x="744.82421875" xlink:href="#ArialMT-79"/>
     </g>
    </g>
   </g>
   <g id="matplotlib.axis_2">
    <g id="ytick_1">
     <g id="line2d_15">
      <path clip-path="url(#pa90f5f3eb1)" d="
M47.1647 351.44
L355.29 351.44" style="fill:none;stroke:#ffffff;stroke-linecap:round;"/>
     </g>
     <g id="line2d_16">
      <g>
       <use style="fill:#262626;stroke:#262626;" x="47.1646875" xlink:href="#md70f53a077" y="351.44049187"/>
      </g>
     </g>
     <g id="text_9">
      <!-- −10 -->
      <g style="fill:#262626;" transform="translate(24.2365625 354.02564812)scale(0.1 -0.1)">
       <use xlink:href="#ArialMT-2212"/>
       <use x="58.3984375" xlink:href="#ArialMT-31"/>
       <use x="114.013671875" xlink:href="#ArialMT-30"/>
      </g>
     </g>
    </g>
    <g id="ytick_2">
     <g id="line2d_17">
      <path clip-path="url(#pa90f5f3eb1)" d="
M47.1647 312.039
L355.29 312.039" style="fill:none;stroke:#ffffff;stroke-linecap:round;"/>
     </g>
     <g id="line2d_18">
      <g>
       <use style="fill:#262626;stroke:#262626;" x="47.1646875" xlink:href="#md70f53a077" y="312.038804104"/>
      </g>
     </g>
     <g id="text_10">
      <!-- 0 -->
      <g style="fill:#262626;" transform="translate(35.4975 314.623960354)scale(0.1 -0.1)">
       <use xlink:href="#ArialMT-30"/>
      </g>
     </g>
    </g>
    <g id="ytick_3">
     <g id="line2d_19">
      <path clip-path="url(#pa90f5f3eb1)" d="
M47.1647 272.637
L355.29 272.637" style="fill:none;stroke:#ffffff;stroke-linecap:round;"/>
     </g>
     <g id="line2d_20">
      <g>
       <use style="fill:#262626;stroke:#262626;" x="47.1646875" xlink:href="#md70f53a077" y="272.637116338"/>
      </g>
     </g>
     <g id="text_11">
      <!-- 10 -->
      <g style="fill:#262626;" transform="translate(30.61 275.222272588)scale(0.1 -0.1)">
       <use xlink:href="#ArialMT-31"/>
       <use x="55.615234375" xlink:href="#ArialMT-30"/>
      </g>
     </g>
    </g>
    <g id="ytick_4">
     <g id="line2d_21">
      <path clip-path="url(#pa90f5f3eb1)" d="
M47.1647 233.235
L355.29 233.235" style="fill:none;stroke:#ffffff;stroke-linecap:round;"/>
     </g>
     <g id="line2d_22">
      <g>
       <use style="fill:#262626;stroke:#262626;" x="47.1646875" xlink:href="#md70f53a077" y="233.235428571"/>
      </g>
     </g>
     <g id="text_12">
      <!-- 20 -->
      <g style="fill:#262626;" transform="translate(29.8146875 235.820584821)scale(0.1 -0.1)">
       <use xlink:href="#ArialMT-32"/>
       <use x="55.615234375" xlink:href="#ArialMT-30"/>
      </g>
     </g>
    </g>
    <g id="ytick_5">
     <g id="line2d_23">
      <path clip-path="url(#pa90f5f3eb1)" d="
M47.1647 193.834
L355.29 193.834" style="fill:none;stroke:#ffffff;stroke-linecap:round;"/>
     </g>
     <g id="line2d_24">
      <g>
       <use style="fill:#262626;stroke:#262626;" x="47.1646875" xlink:href="#md70f53a077" y="193.833740805"/>
      </g>
     </g>
     <g id="text_13">
      <!-- 30 -->
      <g style="fill:#262626;" transform="translate(29.94125 196.418897055)scale(0.1 -0.1)">
       <use xlink:href="#ArialMT-33"/>
       <use x="55.615234375" xlink:href="#ArialMT-30"/>
      </g>
     </g>
    </g>
    <g id="ytick_6">
     <g id="line2d_25">
      <path clip-path="url(#pa90f5f3eb1)" d="
M47.1647 154.432
L355.29 154.432" style="fill:none;stroke:#ffffff;stroke-linecap:round;"/>
     </g>
     <g id="line2d_26">
      <g>
       <use style="fill:#262626;stroke:#262626;" x="47.1646875" xlink:href="#md70f53a077" y="154.432053039"/>
      </g>
     </g>
     <g id="text_14">
      <!-- 40 -->
      <g style="fill:#262626;" transform="translate(29.6475 157.017209289)scale(0.1 -0.1)">
       <use xlink:href="#ArialMT-34"/>
       <use x="55.615234375" xlink:href="#ArialMT-30"/>
      </g>
     </g>
    </g>
    <g id="ytick_7">
     <g id="line2d_27">
      <path clip-path="url(#pa90f5f3eb1)" d="
M47.1647 115.03
L355.29 115.03" style="fill:none;stroke:#ffffff;stroke-linecap:round;"/>
     </g>
     <g id="line2d_28">
      <g>
       <use style="fill:#262626;stroke:#262626;" x="47.1646875" xlink:href="#md70f53a077" y="115.030365273"/>
      </g>
     </g>
     <g id="text_15">
      <!-- 50 -->
      <g style="fill:#262626;" transform="translate(29.9365625 117.615521523)scale(0.1 -0.1)">
       <use xlink:href="#ArialMT-35"/>
       <use x="55.615234375" xlink:href="#ArialMT-30"/>
      </g>
     </g>
    </g>
    <g id="text_16">
     <!-- Industry -->
     <defs>
      <path d="
M6.5 0
L6.5 51.8594
L14.4062 51.8594
L14.4062 44
Q17.4375 49.5156 20 51.2656
Q22.5625 53.0312 25.6406 53.0312
Q30.0781 53.0312 34.6719 50.2031
L31.6406 42.0469
Q28.4219 43.9531 25.2031 43.9531
Q22.3125 43.9531 20.0156 42.2188
Q17.7188 40.4844 16.75 37.4062
Q15.2812 32.7188 15.2812 27.1562
L15.2812 0
z
" id="ArialMT-72"/>
      <path d="
M40.2344 0
L40.2344 6.54688
Q35.2969 -1.17188 25.7344 -1.17188
Q19.5312 -1.17188 14.3281 2.25
Q9.125 5.67188 6.26562 11.7969
Q3.42188 17.9219 3.42188 25.875
Q3.42188 33.6406 6 39.9688
Q8.59375 46.2969 13.7656 49.6562
Q18.9531 53.0312 25.3438 53.0312
Q30.0312 53.0312 33.6875 51.0469
Q37.3594 49.0781 39.6562 45.9062
L39.6562 71.5781
L48.3906 71.5781
L48.3906 0
z

M12.4531 25.875
Q12.4531 15.9219 16.6406 10.9844
Q20.8438 6.0625 26.5625 6.0625
Q32.3281 6.0625 36.3438 10.7656
Q40.375 15.4844 40.375 25.1406
Q40.375 35.7969 36.2656 40.7656
Q32.1719 45.75 26.1719 45.75
Q20.3125 45.75 16.375 40.9688
Q12.4531 36.1875 12.4531 25.875" id="ArialMT-64"/>
      <path d="
M40.5781 0
L40.5781 7.625
Q34.5156 -1.17188 24.125 -1.17188
Q19.5312 -1.17188 15.5469 0.578125
Q11.5781 2.34375 9.64062 5
Q7.71875 7.67188 6.9375 11.5312
Q6.39062 14.1094 6.39062 19.7344
L6.39062 51.8594
L15.1875 51.8594
L15.1875 23.0938
Q15.1875 16.2188 15.7188 13.8125
Q16.5469 10.3594 19.2344 8.375
Q21.9219 6.39062 25.875 6.39062
Q29.8281 6.39062 33.2969 8.42188
Q36.7656 10.4531 38.2031 13.9375
Q39.6562 17.4375 39.6562 24.0781
L39.6562 51.8594
L48.4375 51.8594
L48.4375 0
z
" id="ArialMT-75"/>
      <path d="
M25.7812 7.85938
L27.0469 0.09375
Q23.3438 -0.6875 20.4062 -0.6875
Q15.625 -0.6875 12.9844 0.828125
Q10.3594 2.34375 9.28125 4.8125
Q8.20312 7.28125 8.20312 15.1875
L8.20312 45.0156
L1.76562 45.0156
L1.76562 51.8594
L8.20312 51.8594
L8.20312 64.7031
L16.9375 69.9688
L16.9375 51.8594
L25.7812 51.8594
L25.7812 45.0156
L16.9375 45.0156
L16.9375 14.7031
Q16.9375 10.9375 17.4062 9.85938
Q17.875 8.79688 18.9219 8.15625
Q19.9688 7.51562 21.9219 7.51562
Q23.3906 7.51562 25.7812 7.85938" id="ArialMT-74"/>
      <path d="
M3.07812 15.4844
L11.7656 16.8438
Q12.5 11.625 15.8438 8.84375
Q19.1875 6.0625 25.2031 6.0625
Q31.25 6.0625 34.1719 8.51562
Q37.1094 10.9844 37.1094 14.3125
Q37.1094 17.2812 34.5156 19
Q32.7188 20.1719 25.5312 21.9688
Q15.875 24.4219 12.1406 26.2031
Q8.40625 27.9844 6.46875 31.125
Q4.54688 34.2812 4.54688 38.0938
Q4.54688 41.5469 6.125 44.5
Q7.71875 47.4688 10.4531 49.4219
Q12.5 50.9219 16.0312 51.9688
Q19.5781 53.0312 23.6406 53.0312
Q29.7344 53.0312 34.3438 51.2656
Q38.9688 49.5156 41.1562 46.5
Q43.3594 43.5 44.1875 38.4844
L35.5938 37.3125
Q35.0156 41.3125 32.2031 43.5469
Q29.3906 45.7969 24.2656 45.7969
Q18.2188 45.7969 15.625 43.7969
Q13.0312 41.7969 13.0312 39.1094
Q13.0312 37.4062 14.1094 36.0312
Q15.1875 34.625 17.4844 33.6875
Q18.7969 33.2031 25.25 31.4531
Q34.5781 28.9531 38.25 27.3594
Q41.9375 25.7812 44.0312 22.75
Q46.1406 19.7344 46.1406 15.2344
Q46.1406 10.8438 43.5781 6.95312
Q41.0156 3.07812 36.1719 0.953125
Q31.3438 -1.17188 25.25 -1.17188
Q15.1406 -1.17188 9.84375 3.03125
Q4.54688 7.23438 3.07812 15.4844" id="ArialMT-73"/>
      <path d="
M9.32812 0
L9.32812 71.5781
L18.7969 71.5781
L18.7969 0
z
" id="ArialMT-49"/>
     </defs>
     <g style="fill:#262626;" transform="translate(16.92140625 252.237069196)rotate(-90.0)scale(0.11 -0.11)">
      <use xlink:href="#ArialMT-49"/>
      <use x="27.783203125" xlink:href="#ArialMT-6e"/>
      <use x="83.3984375" xlink:href="#ArialMT-64"/>
      <use x="139.013671875" xlink:href="#ArialMT-75"/>
      <use x="194.62890625" xlink:href="#ArialMT-73"/>
      <use x="244.62890625" xlink:href="#ArialMT-74"/>
      <use x="272.412109375" xlink:href="#ArialMT-72"/>
      <use x="305.712890625" xlink:href="#ArialMT-79"/>
     </g>
    </g>
   </g>
   <g id="PathCollection_1">
    <defs>
     <path d="
M0 2.23607
C0.593012 2.23607 1.16182 2.00046 1.58114 1.58114
C2.00046 1.16182 2.23607 0.593012 2.23607 0
C2.23607 -0.593012 2.00046 -1.16182 1.58114 -1.58114
C1.16182 -2.00046 0.593012 -2.23607 0 -2.23607
C-0.593012 -2.23607 -1.16182 -2.00046 -1.58114 -1.58114
C-2.00046 -1.16182 -2.23607 -0.593012 -2.23607 0
C-2.23607 0.593012 -2.00046 1.16182 -1.58114 1.58114
C-1.16182 2.00046 -0.593012 2.23607 0 2.23607
z
" id="m9a0ad34ce5" style="stroke:#bf00bf;stroke-width:0.3;"/>
    </defs>
    <g clip-path="url(#pa90f5f3eb1)">
     <use style="fill:#bf00bf;stroke:#bf00bf;stroke-width:0.3;" x="259.301440736" xlink:href="#m9a0ad34ce5" y="170.192728146"/>
     <use style="fill:#bf00bf;stroke:#bf00bf;stroke-width:0.3;" x="174.423875224" xlink:href="#m9a0ad34ce5" y="245.055934901"/>
     <use style="fill:#bf00bf;stroke:#bf00bf;stroke-width:0.3;" x="187.825596094" xlink:href="#m9a0ad34ce5" y="288.397791444"/>
     <use style="fill:#bf00bf;stroke:#bf00bf;stroke-width:0.3;" x="192.292836384" xlink:href="#m9a0ad34ce5" y="241.115766125"/>
     <use style="fill:#bf00bf;stroke:#bf00bf;stroke-width:0.3;" x="250.366960155" xlink:href="#m9a0ad34ce5" y="213.534584688"/>
     <use style="fill:#bf00bf;stroke:#bf00bf;stroke-width:0.3;" x="165.489394643" xlink:href="#m9a0ad34ce5" y="264.756778784"/>
     <use style="fill:#bf00bf;stroke:#bf00bf;stroke-width:0.3;" x="143.153193193" xlink:href="#m9a0ad34ce5" y="296.278128997"/>
    </g>
   </g>
   <g id="patch_3">
    <path d="
M47.1647 389.04
L355.29 389.04" style="fill:none;"/>
   </g>
   <g id="patch_4">
    <path d="
M47.1647 389.04
L47.1647 77.4309" style="fill:none;"/>
   </g>
   <g id="legend_1">
    <g id="line2d_29"/>
    <g id="line2d_30"/>
    <g id="text_17">
     <!-- pearsonr = 0.89; p = 0.0075 -->
     <defs>
      <path d="
M4.73438 62.2031
L4.73438 70.6562
L51.0781 70.6562
L51.0781 63.8125
Q44.2344 56.5469 37.5156 44.4844
Q30.8125 32.4219 27.1562 19.6719
Q24.5156 10.6875 23.7812 0
L14.75 0
Q14.8906 8.45312 18.0625 20.4062
Q21.2344 32.375 27.1719 43.4844
Q33.1094 54.5938 39.7969 62.2031
z
" id="ArialMT-37"/>
      <path d="
M52.8281 42.0938
L5.5625 42.0938
L5.5625 50.2969
L52.8281 50.2969
z

M52.8281 20.3594
L5.5625 20.3594
L5.5625 28.5625
L52.8281 28.5625
z
" id="ArialMT-3d"/>
      <path d="
M9.07812 0
L9.07812 10.0156
L19.0938 10.0156
L19.0938 0
z
" id="ArialMT-2e"/>
      <path d="
M17.6719 38.8125
Q12.2031 40.8281 9.5625 44.5312
Q6.9375 48.25 6.9375 53.4219
Q6.9375 61.2344 12.5469 66.5469
Q18.1719 71.875 27.4844 71.875
Q36.8594 71.875 42.5781 66.4219
Q48.2969 60.9844 48.2969 53.1719
Q48.2969 48.1875 45.6719 44.5
Q43.0625 40.8281 37.75 38.8125
Q44.3438 36.6719 47.7812 31.875
Q51.2188 27.0938 51.2188 20.4531
Q51.2188 11.2812 44.7188 5.03125
Q38.2344 -1.21875 27.6406 -1.21875
Q17.0469 -1.21875 10.5469 5.04688
Q4.04688 11.3281 4.04688 20.7031
Q4.04688 27.6875 7.59375 32.3906
Q11.1406 37.1094 17.6719 38.8125
M15.9219 53.7188
Q15.9219 48.6406 19.1875 45.4062
Q22.4688 42.1875 27.6875 42.1875
Q32.7656 42.1875 36.0156 45.375
Q39.2656 48.5781 39.2656 53.2188
Q39.2656 58.0625 35.9062 61.3594
Q32.5625 64.6562 27.5938 64.6562
Q22.5625 64.6562 19.2344 61.4219
Q15.9219 58.2031 15.9219 53.7188
M13.0938 20.6562
Q13.0938 16.8906 14.875 13.375
Q16.6562 9.85938 20.1719 7.92188
Q23.6875 6 27.7344 6
Q34.0312 6 38.125 10.0469
Q42.2344 14.1094 42.2344 20.3594
Q42.2344 26.7031 38.0156 30.8594
Q33.7969 35.0156 27.4375 35.0156
Q21.2344 35.0156 17.1562 30.9062
Q13.0938 26.8125 13.0938 20.6562" id="ArialMT-38"/>
      <path d="
M8.89062 41.8438
L8.89062 51.8594
L18.8906 51.8594
L18.8906 41.8438
z

M8.89062 0
L8.89062 10.0156
L18.8906 10.0156
L18.8906 0
Q18.8906 -5.51562 16.9375 -8.90625
Q14.9844 -12.3125 10.75 -14.1562
L8.29688 -10.4062
Q11.0781 -9.1875 12.3906 -6.8125
Q13.7188 -4.4375 13.875 0
z
" id="ArialMT-3b"/>
      <path d="
M5.46875 16.5469
L13.9219 17.3281
Q14.9844 11.375 18.0156 8.6875
Q21.0469 6 25.7812 6
Q29.8281 6 32.875 7.85938
Q35.9375 9.71875 37.8906 12.8125
Q39.8438 15.9219 41.1562 21.1875
Q42.4844 26.4688 42.4844 31.9375
Q42.4844 32.5156 42.4375 33.6875
Q39.7969 29.5 35.2344 26.875
Q30.6719 24.2656 25.3438 24.2656
Q16.4531 24.2656 10.2969 30.7031
Q4.15625 37.1562 4.15625 47.7031
Q4.15625 58.5938 10.5781 65.2344
Q17 71.875 26.6562 71.875
Q33.6406 71.875 39.4219 68.1094
Q45.2188 64.3594 48.2188 57.3906
Q51.2188 50.4375 51.2188 37.25
Q51.2188 23.5312 48.2344 15.4062
Q45.2656 7.28125 39.375 3.03125
Q33.5 -1.21875 25.5938 -1.21875
Q17.1875 -1.21875 11.8594 3.4375
Q6.54688 8.10938 5.46875 16.5469
M41.4531 48.1406
Q41.4531 55.7188 37.4219 60.1562
Q33.4062 64.5938 27.7344 64.5938
Q21.875 64.5938 17.5312 59.8125
Q13.1875 55.0312 13.1875 47.4062
Q13.1875 40.5781 17.3125 36.2969
Q21.4375 32.0312 27.4844 32.0312
Q33.5938 32.0312 37.5156 36.2969
Q41.4531 40.5781 41.4531 48.1406" id="ArialMT-39"/>
     </defs>
     <g style="fill:#262626;" transform="translate(223.271196429 93.6183571429)scale(0.1 -0.1)">
      <use xlink:href="#ArialMT-70"/>
      <use x="55.615234375" xlink:href="#ArialMT-65"/>
      <use x="111.23046875" xlink:href="#ArialMT-61"/>
      <use x="166.845703125" xlink:href="#ArialMT-72"/>
      <use x="200.146484375" xlink:href="#ArialMT-73"/>
      <use x="250.146484375" xlink:href="#ArialMT-6f"/>
      <use x="305.76171875" xlink:href="#ArialMT-6e"/>
      <use x="361.376953125" xlink:href="#ArialMT-72"/>
      <use x="394.677734375" xlink:href="#ArialMT-20"/>
      <use x="422.4609375" xlink:href="#ArialMT-3d"/>
      <use x="480.859375" xlink:href="#ArialMT-20"/>
      <use x="508.642578125" xlink:href="#ArialMT-30"/>
      <use x="564.2578125" xlink:href="#ArialMT-2e"/>
      <use x="592.041015625" xlink:href="#ArialMT-38"/>
      <use x="647.65625" xlink:href="#ArialMT-39"/>
      <use x="703.271484375" xlink:href="#ArialMT-3b"/>
      <use x="731.0546875" xlink:href="#ArialMT-20"/>
      <use x="758.837890625" xlink:href="#ArialMT-70"/>
      <use x="814.453125" xlink:href="#ArialMT-20"/>
      <use x="842.236328125" xlink:href="#ArialMT-3d"/>
      <use x="900.634765625" xlink:href="#ArialMT-20"/>
      <use x="928.41796875" xlink:href="#ArialMT-30"/>
      <use x="984.033203125" xlink:href="#ArialMT-2e"/>
      <use x="1011.81640625" xlink:href="#ArialMT-30"/>
      <use x="1067.431640625" xlink:href="#ArialMT-30"/>
      <use x="1123.046875" xlink:href="#ArialMT-37"/>
      <use x="1178.662109375" xlink:href="#ArialMT-35"/>
     </g>
    </g>
   </g>
  </g>
  <g id="axes_2">
   <g id="patch_5">
    <path d="
M47.1647 66.6857
L355.29 66.6857
L355.29 12.96
L47.1647 12.96
z
" style="fill:#eaeaf2;"/>
   </g>
   <g id="matplotlib.axis_3">
    <g id="xtick_8">
     <g id="line2d_31">
      <path clip-path="url(#pc7958530e8)" d="
M71.6773 66.6857
L71.6773 12.96" style="fill:none;stroke:#ffffff;stroke-linecap:round;"/>
     </g>
     <g id="line2d_32">
      <g>
       <use style="fill:#262626;stroke:#262626;" x="71.6773485512" xlink:href="#md70f53a077" y="66.6857142857"/>
      </g>
     </g>
    </g>
    <g id="xtick_9">
     <g id="line2d_33">
      <path clip-path="url(#pc7958530e8)" d="
M116.35 66.6857
L116.35 12.96" style="fill:none;stroke:#ffffff;stroke-linecap:round;"/>
     </g>
     <g id="line2d_34">
      <g>
       <use style="fill:#262626;stroke:#262626;" x="116.349751452" xlink:href="#md70f53a077" y="66.6857142857"/>
      </g>
     </g>
    </g>
    <g id="xtick_10">
     <g id="line2d_35">
      <path clip-path="url(#pc7958530e8)" d="
M161.022 66.6857
L161.022 12.96" style="fill:none;stroke:#ffffff;stroke-linecap:round;"/>
     </g>
     <g id="line2d_36">
      <g>
       <use style="fill:#262626;stroke:#262626;" x="161.022154353" xlink:href="#md70f53a077" y="66.6857142857"/>
      </g>
     </g>
    </g>
    <g id="xtick_11">
     <g id="line2d_37">
      <path clip-path="url(#pc7958530e8)" d="
M205.695 66.6857
L205.695 12.96" style="fill:none;stroke:#ffffff;stroke-linecap:round;"/>
     </g>
     <g id="line2d_38">
      <g>
       <use style="fill:#262626;stroke:#262626;" x="205.694557254" xlink:href="#md70f53a077" y="66.6857142857"/>
      </g>
     </g>
    </g>
    <g id="xtick_12">
     <g id="line2d_39">
      <path clip-path="url(#pc7958530e8)" d="
M250.367 66.6857
L250.367 12.96" style="fill:none;stroke:#ffffff;stroke-linecap:round;"/>
     </g>
     <g id="line2d_40">
      <g>
       <use style="fill:#262626;stroke:#262626;" x="250.366960155" xlink:href="#md70f53a077" y="66.6857142857"/>
      </g>
     </g>
    </g>
    <g id="xtick_13">
     <g id="line2d_41">
      <path clip-path="url(#pc7958530e8)" d="
M295.039 66.6857
L295.039 12.96" style="fill:none;stroke:#ffffff;stroke-linecap:round;"/>
     </g>
     <g id="line2d_42">
      <g>
       <use style="fill:#262626;stroke:#262626;" x="295.039363056" xlink:href="#md70f53a077" y="66.6857142857"/>
      </g>
     </g>
    </g>
    <g id="xtick_14">
     <g id="line2d_43">
      <path clip-path="url(#pc7958530e8)" d="
M339.712 66.6857
L339.712 12.96" style="fill:none;stroke:#ffffff;stroke-linecap:round;"/>
     </g>
     <g id="line2d_44">
      <g>
       <use style="fill:#262626;stroke:#262626;" x="339.711765958" xlink:href="#md70f53a077" y="66.6857142857"/>
      </g>
     </g>
    </g>
   </g>
   <g id="matplotlib.axis_4">
    <g id="ytick_8"/>
    <g id="ytick_9"/>
    <g id="ytick_10"/>
    <g id="ytick_11"/>
    <g id="ytick_12"/>
    <g id="ytick_13"/>
    <g id="ytick_14"/>
   </g>
   <g id="patch_6">
    <path clip-path="url(#pc7958530e8)" d="
M143.153 66.6857
L181.869 66.6857
L181.869 12.96
L143.153 12.96
z
" style="fill:#bf00bf;opacity:0.4;stroke:#000000;stroke-linejoin:miter;stroke-width:0.3;"/>
   </g>
   <g id="patch_7">
    <path clip-path="url(#pc7958530e8)" d="
M181.869 66.6857
L220.585 66.6857
L220.585 30.8686
L181.869 30.8686
z
" style="fill:#bf00bf;opacity:0.4;stroke:#000000;stroke-linejoin:miter;stroke-width:0.3;"/>
   </g>
   <g id="patch_8">
    <path clip-path="url(#pc7958530e8)" d="
M220.585 66.6857
L259.301 66.6857
L259.301 30.8686
L220.585 30.8686
z
" style="fill:#bf00bf;opacity:0.4;stroke:#000000;stroke-linejoin:miter;stroke-width:0.3;"/>
   </g>
   <g id="patch_9">
    <path d="
M47.1647 66.6857
L355.29 66.6857" style="fill:none;"/>
   </g>
  </g>
  <g id="axes_3">
   <g id="patch_10">
    <path d="
M365.915 389.04
L419.04 389.04
L419.04 77.4309
L365.915 77.4309
z
" style="fill:#eaeaf2;"/>
   </g>
   <g id="matplotlib.axis_5">
    <g id="xtick_15"/>
    <g id="xtick_16"/>
    <g id="xtick_17"/>
    <g id="xtick_18"/>
    <g id="xtick_19"/>
    <g id="xtick_20"/>
    <g id="xtick_21"/>
   </g>
   <g id="matplotlib.axis_6">
    <g id="ytick_15">
     <g id="line2d_45">
      <path clip-path="url(#p90f80bbac8)" d="
M365.915 351.44
L419.04 351.44" style="fill:none;stroke:#ffffff;stroke-linecap:round;"/>
     </g>
     <g id="line2d_46">
      <g>
       <use style="fill:#262626;stroke:#262626;" x="365.914955357" xlink:href="#md70f53a077" y="351.44049187"/>
      </g>
     </g>
    </g>
    <g id="ytick_16">
     <g id="line2d_47">
      <path clip-path="url(#p90f80bbac8)" d="
M365.915 312.039
L419.04 312.039" style="fill:none;stroke:#ffffff;stroke-linecap:round;"/>
     </g>
     <g id="line2d_48">
      <g>
       <use style="fill:#262626;stroke:#262626;" x="365.914955357" xlink:href="#md70f53a077" y="312.038804104"/>
      </g>
     </g>
    </g>
    <g id="ytick_17">
     <g id="line2d_49">
      <path clip-path="url(#p90f80bbac8)" d="
M365.915 272.637
L419.04 272.637" style="fill:none;stroke:#ffffff;stroke-linecap:round;"/>
     </g>
     <g id="line2d_50">
      <g>
       <use style="fill:#262626;stroke:#262626;" x="365.914955357" xlink:href="#md70f53a077" y="272.637116338"/>
      </g>
     </g>
    </g>
    <g id="ytick_18">
     <g id="line2d_51">
      <path clip-path="url(#p90f80bbac8)" d="
M365.915 233.235
L419.04 233.235" style="fill:none;stroke:#ffffff;stroke-linecap:round;"/>
     </g>
     <g id="line2d_52">
      <g>
       <use style="fill:#262626;stroke:#262626;" x="365.914955357" xlink:href="#md70f53a077" y="233.235428571"/>
      </g>
     </g>
    </g>
    <g id="ytick_19">
     <g id="line2d_53">
      <path clip-path="url(#p90f80bbac8)" d="
M365.915 193.834
L419.04 193.834" style="fill:none;stroke:#ffffff;stroke-linecap:round;"/>
     </g>
     <g id="line2d_54">
      <g>
       <use style="fill:#262626;stroke:#262626;" x="365.914955357" xlink:href="#md70f53a077" y="193.833740805"/>
      </g>
     </g>
    </g>
    <g id="ytick_20">
     <g id="line2d_55">
      <path clip-path="url(#p90f80bbac8)" d="
M365.915 154.432
L419.04 154.432" style="fill:none;stroke:#ffffff;stroke-linecap:round;"/>
     </g>
     <g id="line2d_56">
      <g>
       <use style="fill:#262626;stroke:#262626;" x="365.914955357" xlink:href="#md70f53a077" y="154.432053039"/>
      </g>
     </g>
    </g>
    <g id="ytick_21">
     <g id="line2d_57">
      <path clip-path="url(#p90f80bbac8)" d="
M365.915 115.03
L419.04 115.03" style="fill:none;stroke:#ffffff;stroke-linecap:round;"/>
     </g>
     <g id="line2d_58">
      <g>
       <use style="fill:#262626;stroke:#262626;" x="365.914955357" xlink:href="#md70f53a077" y="115.030365273"/>
      </g>
     </g>
    </g>
   </g>
   <g id="patch_11">
    <path clip-path="url(#p90f80bbac8)" d="
M365.915 296.278
L419.04 296.278
L419.04 254.25
L365.915 254.25
z
" style="fill:#bf00bf;opacity:0.4;stroke:#000000;stroke-linejoin:miter;stroke-width:0.3;"/>
   </g>
   <g id="patch_12">
    <path clip-path="url(#p90f80bbac8)" d="
M365.915 254.25
L419.04 254.25
L419.04 212.221
L365.915 212.221
z
" style="fill:#bf00bf;opacity:0.4;stroke:#000000;stroke-linejoin:miter;stroke-width:0.3;"/>
   </g>
   <g id="patch_13">
    <path clip-path="url(#p90f80bbac8)" d="
M365.915 212.221
L383.623 212.221
L383.623 170.193
L365.915 170.193
z
" style="fill:#bf00bf;opacity:0.4;stroke:#000000;stroke-linejoin:miter;stroke-width:0.3;"/>
   </g>
   <g id="patch_14">
    <path d="
M365.915 389.04
L365.915 77.4309" style="fill:none;"/>
   </g>
  </g>
 </g>
 <defs>
  <clipPath id="pa90f5f3eb1">
   <rect height="311.609142857" width="308.125258929" x="47.1646875" y="77.4308571429"/>
  </clipPath>
  <clipPath id="p90f80bbac8">
   <rect height="311.609142857" width="53.1250446429" x="365.914955357" y="77.4308571429"/>
  </clipPath>
  <clipPath id="pc7958530e8">
   <rect height="53.7257142857" width="308.125258929" x="47.1646875" y="12.96"/>
  </clipPath>
 </defs>
</svg>
